STARTFONT 2.1
FONT -Baekmuk-Gulim-Medium-R-Normal--14-140-75-75-M-140-ksx1001.1997-0
SIZE 14 75 75
FONTBOUNDINGBOX 14 15 -1 -3
STARTPROPERTIES 18
FOUNDRY "Baekmuk"
FAMILY_NAME "Gulim"
WEIGHT_NAME "Medium"
SLANT "R"
SETWIDTH_NAME "Normal"
ADD_STYLE_NAME ""
PIXEL_SIZE 14
POINT_SIZE 140
RESOLUTION_X 75
RESOLUTION_Y 75
SPACING "M"
AVERAGE_WIDTH 140
CHARSET_REGISTRY "ksx1001.1997"
CHARSET_ENCODING "0"
DEFAULT_CHAR 8481
FONT_ASCENT 11
FONT_DESCENT 3
COPYRIGHT "(c)Hwan Design Inc. and Mizi Research Inc."
ENDPROPERTIES
CHARS 8224
STARTCHAR 3000
ENCODING 8481
SWIDTH 1400 0
DWIDTH 14 0
BBX 0 0 0 0
BITMAP
ENDCHAR
STARTCHAR 3001
ENCODING 8482
SWIDTH 1400 0
DWIDTH 14 0
BBX 2 2 10 8
BITMAP
80
40
ENDCHAR
STARTCHAR 3002
ENCODING 8483
SWIDTH 1400 0
DWIDTH 14 0
BBX 3 3 9 8
BITMAP
E0
20
E0
ENDCHAR
STARTCHAR 00B7
ENCODING 8484
SWIDTH 1400 0
DWIDTH 14 0
BBX 2 2 6 3
BITMAP
C0
C0
ENDCHAR
STARTCHAR 2025
ENCODING 8485
SWIDTH 1400 0
DWIDTH 14 0
BBX 7 2 3 3
BITMAP
C2
02
ENDCHAR
STARTCHAR 2026
ENCODING 8486
SWIDTH 1400 0
DWIDTH 14 0
BBX 8 2 3 3
BITMAP
91
91
ENDCHAR
STARTCHAR 00A8
ENCODING 8487
SWIDTH 1400 0
DWIDTH 14 0
BBX 5 1 4 8
BITMAP
88
ENDCHAR
STARTCHAR 3003
ENCODING 8488
SWIDTH 1400 0
DWIDTH 14 0
BBX 4 5 5 2
BITMAP
50
50
90
A0
A0
ENDCHAR
STARTCHAR 00AD
ENCODING 8489
SWIDTH 1400 0
DWIDTH 14 0
BBX 6 1 4 4
BITMAP
FC
ENDCHAR
STARTCHAR 2015
ENCODING 8490
SWIDTH 1400 0
DWIDTH 14 0
BBX 12 1 1 4
BITMAP
FFF0
ENDCHAR
STARTCHAR 2225
ENCODING 8491
SWIDTH 1400 0
DWIDTH 14 0
BBX 4 10 5 0
BITMAP
90
90
90
90
90
90
90
90
90
90
ENDCHAR
STARTCHAR FF3C
ENCODING 8492
SWIDTH 1400 0
DWIDTH 14 0
BBX 11 11 1 -1
BITMAP
8000
4000
2000
1000
0800
0400
0200
0100
0080
0040
0020
ENDCHAR
STARTCHAR 223C
ENCODING 8493
SWIDTH 1400 0
DWIDTH 14 0
BBX 7 2 4 3
BITMAP
E2
1C
ENDCHAR
STARTCHAR 2018
ENCODING 8494
SWIDTH 1400 0
DWIDTH 14 0
BBX 1 3 9 7
BITMAP
80
80
80
ENDCHAR
STARTCHAR 2019
ENCODING 8495
SWIDTH 1400 0
DWIDTH 14 0
BBX 2 4 3 7
BITMAP
C0
C0
80
80
ENDCHAR
STARTCHAR 201C
ENCODING 8496
SWIDTH 1400 0
DWIDTH 14 0
BBX 4 3 8 7
BITMAP
80
A0
30
ENDCHAR
STARTCHAR 201D
ENCODING 8497
SWIDTH 1400 0
DWIDTH 14 0
BBX 4 3 2 8
BITMAP
B0
90
80
ENDCHAR
STARTCHAR 3014
ENCODING 8498
SWIDTH 1400 0
DWIDTH 14 0
BBX 3 14 10 -3
BITMAP
60
80
80
80
80
80
80
80
80
80
80
80
C0
20
ENDCHAR
STARTCHAR 3015
ENCODING 8499
SWIDTH 1400 0
DWIDTH 14 0
BBX 3 14 1 -3
BITMAP
C0
20
20
20
20
20
20
20
20
20
20
20
60
80
ENDCHAR
STARTCHAR 3008
ENCODING 8500
SWIDTH 1400 0
DWIDTH 14 0
BBX 4 12 8 -2
BITMAP
10
20
20
40
80
80
80
40
40
20
10
10
ENDCHAR
STARTCHAR 3009
ENCODING 8501
SWIDTH 1400 0
DWIDTH 14 0
BBX 5 11 1 -2
BITMAP
40
20
20
10
08
08
10
20
40
40
80
ENDCHAR
STARTCHAR 300A
ENCODING 8502
SWIDTH 1400 0
DWIDTH 14 0
BBX 5 12 7 -2
BITMAP
18
28
30
50
A0
A0
A0
60
50
30
28
10
ENDCHAR
STARTCHAR 300B
ENCODING 8503
SWIDTH 1400 0
DWIDTH 14 0
BBX 5 12 1 -2
BITMAP
A0
60
50
30
28
18
18
28
30
50
60
A0
ENDCHAR
STARTCHAR 300C
ENCODING 8504
SWIDTH 1400 0
DWIDTH 14 0
BBX 5 6 8 5
BITMAP
F8
80
80
80
80
80
ENDCHAR
STARTCHAR 300D
ENCODING 8505
SWIDTH 1400 0
DWIDTH 14 0
BBX 5 7 0 -3
BITMAP
08
08
08
08
08
08
F8
ENDCHAR
STARTCHAR 300E
ENCODING 8506
SWIDTH 1400 0
DWIDTH 14 0
BBX 6 7 7 4
BITMAP
FC
84
BC
A0
A0
A0
E0
ENDCHAR
STARTCHAR 300F
ENCODING 8507
SWIDTH 1400 0
DWIDTH 14 0
BBX 6 7 0 -3
BITMAP
1C
14
14
14
F4
84
FC
ENDCHAR
STARTCHAR 3010
ENCODING 8508
SWIDTH 1400 0
DWIDTH 14 0
BBX 2 13 9 -2
BITMAP
C0
C0
C0
80
80
80
80
80
80
80
C0
C0
C0
ENDCHAR
STARTCHAR 3011
ENCODING 8509
SWIDTH 1400 0
DWIDTH 14 0
BBX 2 13 3 -2
BITMAP
C0
C0
40
40
40
40
40
40
40
40
C0
C0
C0
ENDCHAR
STARTCHAR 00B1
ENCODING 8510
SWIDTH 1400 0
DWIDTH 14 0
BBX 8 9 3 0
BITMAP
10
10
10
FE
10
10
10
10
FF
ENDCHAR
STARTCHAR 00D7
ENCODING 8511
SWIDTH 1400 0
DWIDTH 14 0
BBX 7 8 3 0
BITMAP
82
44
24
18
18
24
42
80
ENDCHAR
STARTCHAR 00F7
ENCODING 8512
SWIDTH 1400 0
DWIDTH 14 0
BBX 9 8 2 0
BITMAP
0800
0800
0000
FF80
0000
0000
0800
0800
ENDCHAR
STARTCHAR 2260
ENCODING 8513
SWIDTH 1400 0
DWIDTH 14 0
BBX 9 8 2 1
BITMAP
1000
1000
0800
FF80
0800
FF80
0400
0400
ENDCHAR
STARTCHAR 2264
ENCODING 8514
SWIDTH 1400 0
DWIDTH 14 0
BBX 8 8 3 0
BITMAP
03
0C
70
C0
30
0E
01
FF
ENDCHAR
STARTCHAR 2265
ENCODING 8515
SWIDTH 1400 0
DWIDTH 14 0
BBX 8 8 3 0
BITMAP
C0
30
0C
03
1C
60
80
FF
ENDCHAR
STARTCHAR 221E
ENCODING 8516
SWIDTH 1400 0
DWIDTH 14 0
BBX 10 6 2 1
BITMAP
7380
CC40
8840
8840
8C40
7380
ENDCHAR
STARTCHAR 2234
ENCODING 8517
SWIDTH 1400 0
DWIDTH 14 0
BBX 6 7 4 1
BITMAP
20
20
00
00
00
84
84
ENDCHAR
STARTCHAR 00B0
ENCODING 8518
SWIDTH 1400 0
DWIDTH 14 0
BBX 4 3 1 8
BITMAP
F0
90
F0
ENDCHAR
STARTCHAR 2032
ENCODING 8519
SWIDTH 1400 0
DWIDTH 14 0
BBX 2 3 2 8
BITMAP
40
80
80
ENDCHAR
STARTCHAR 2033
ENCODING 8520
SWIDTH 1400 0
DWIDTH 14 0
BBX 4 3 2 8
BITMAP
50
90
A0
ENDCHAR
STARTCHAR 2103
ENCODING 8521
SWIDTH 1400 0
DWIDTH 14 0
BBX 9 10 2 0
BITMAP
C600
B900
5080
2080
2000
2000
2000
2080
1080
0F00
ENDCHAR
STARTCHAR 212B
ENCODING 8522
SWIDTH 1400 0
DWIDTH 14 0
BBX 7 11 3 0
BITMAP
10
28
38
10
18
28
24
44
7C
42
82
ENDCHAR
STARTCHAR FFE0
ENCODING 8523
SWIDTH 1400 0
DWIDTH 14 0
BBX 10 11 2 -1
BITMAP
1E40
2180
2080
4380
4400
4400
4880
5080
2100
5E00
8000
ENDCHAR
STARTCHAR FFE1
ENCODING 8524
SWIDTH 1400 0
DWIDTH 14 0
BBX 8 10 3 0
BITMAP
0C
12
22
20
10
7C
10
50
B1
EE
ENDCHAR
STARTCHAR FFE5
ENCODING 8525
SWIDTH 1400 0
DWIDTH 14 0
BBX 9 10 2 0
BITMAP
4100
2200
2200
5D00
1400
FF80
0800
0800
0800
0800
ENDCHAR
STARTCHAR 2642
ENCODING 8526
SWIDTH 1400 0
DWIDTH 14 0
BBX 7 12 3 -2
BITMAP
10
38
54
54
92
10
10
10
2C
24
24
18
ENDCHAR
STARTCHAR 2640
ENCODING 8527
SWIDTH 1400 0
DWIDTH 14 0
BBX 8 12 3 -2
BITMAP
38
44
44
44
38
10
FF
10
10
10
10
10
ENDCHAR
STARTCHAR 2220
ENCODING 8528
SWIDTH 1400 0
DWIDTH 14 0
BBX 8 8 3 0
BITMAP
02
04
08
10
20
40
80
FF
ENDCHAR
STARTCHAR 22A5
ENCODING 8529
SWIDTH 1400 0
DWIDTH 14 0
BBX 8 7 3 0
BITMAP
10
10
10
10
10
10
FF
ENDCHAR
STARTCHAR 2312
ENCODING 8530
SWIDTH 1400 0
DWIDTH 14 0
BBX 8 3 3 7
BITMAP
3C
C2
01
ENDCHAR
STARTCHAR 2202
ENCODING 8531
SWIDTH 1400 0
DWIDTH 14 0
BBX 5 10 4 0
BITMAP
30
48
08
08
38
48
88
88
90
70
ENDCHAR
STARTCHAR 2207
ENCODING 8532
SWIDTH 1400 0
DWIDTH 14 0
BBX 9 7 2 1
BITMAP
FF80
4080
4100
2100
2200
1400
0C00
ENDCHAR
STARTCHAR 2261
ENCODING 8533
SWIDTH 1400 0
DWIDTH 14 0
BBX 9 6 2 1
BITMAP
FF80
0000
FF80
0000
0000
FF80
ENDCHAR
STARTCHAR 2252
ENCODING 8534
SWIDTH 1400 0
DWIDTH 14 0
BBX 9 8 2 0
BITMAP
2000
2000
FF80
0000
0000
FF80
0100
0100
ENDCHAR
STARTCHAR 00A7
ENCODING 8535
SWIDTH 1400 0
DWIDTH 14 0
BBX 5 12 4 -2
BITMAP
70
88
88
40
B0
88
88
78
10
48
48
30
ENDCHAR
STARTCHAR 203B
ENCODING 8536
SWIDTH 1400 0
DWIDTH 14 0
BBX 8 9 3 0
BITMAP
01
92
54
28
5A
5A
24
52
91
ENDCHAR
STARTCHAR 2606
ENCODING 8537
SWIDTH 1400 0
DWIDTH 14 0
BBX 10 9 2 -1
BITMAP
0800
1400
F3C0
4080
2100
2200
2900
5500
6300
ENDCHAR
STARTCHAR 2605
ENCODING 8538
SWIDTH 1400 0
DWIDTH 14 0
BBX 8 9 3 -1
BITMAP
10
18
38
FF
7E
3C
7C
66
82
ENDCHAR
STARTCHAR 25CB
ENCODING 8539
SWIDTH 1400 0
DWIDTH 14 0
BBX 10 11 2 -1
BITMAP
1E00
6100
4080
8040
8040
8040
8040
8040
4080
6180
1E00
ENDCHAR
STARTCHAR 25CF
ENCODING 8540
SWIDTH 1400 0
DWIDTH 14 0
BBX 10 11 2 -1
BITMAP
1E00
7F00
7F80
FF80
FF80
FFC0
FF80
FF80
7F80
7F00
1E00
ENDCHAR
STARTCHAR 25CE
ENCODING 8541
SWIDTH 1400 0
DWIDTH 14 0
BBX 10 11 2 -1
BITMAP
1E00
6100
5C80
A240
C140
C140
C140
A240
5C80
6180
1E00
ENDCHAR
STARTCHAR 25C7
ENCODING 8542
SWIDTH 1400 0
DWIDTH 14 0
BBX 11 12 1 -2
BITMAP
0400
0A00
1100
2080
4040
8020
4020
2040
1080
1900
0A00
0400
ENDCHAR
STARTCHAR 25C6
ENCODING 8543
SWIDTH 1400 0
DWIDTH 14 0
BBX 10 12 2 -2
BITMAP
0800
1C00
1E00
3F00
7F80
FFC0
FFC0
7F80
3F00
1E00
1C00
0800
ENDCHAR
STARTCHAR 25A1
ENCODING 8544
SWIDTH 1400 0
DWIDTH 14 0
BBX 10 10 2 -1
BITMAP
FFC0
8040
8040
8040
8040
8040
8040
8040
8040
FFC0
ENDCHAR
STARTCHAR 25A0
ENCODING 8545
SWIDTH 1400 0
DWIDTH 14 0
BBX 10 10 2 -1
BITMAP
FFC0
FFC0
FFC0
FFC0
FFC0
FFC0
FFC0
FFC0
FFC0
FFC0
ENDCHAR
STARTCHAR 25B3
ENCODING 8546
SWIDTH 1400 0
DWIDTH 14 0
BBX 10 8 2 0
BITMAP
0C00
1400
1200
2200
4100
4100
0080
FFC0
ENDCHAR
STARTCHAR 25B2
ENCODING 8547
SWIDTH 1400 0
DWIDTH 14 0
BBX 10 8 2 0
BITMAP
0C00
1C00
1E00
3E00
3F00
7F80
7F80
FFC0
ENDCHAR
STARTCHAR 25BD
ENCODING 8548
SWIDTH 1400 0
DWIDTH 14 0
BBX 10 8 2 1
BITMAP
FFC0
8080
4080
4100
2200
1200
1400
0C00
ENDCHAR
STARTCHAR 25BC
ENCODING 8549
SWIDTH 1400 0
DWIDTH 14 0
BBX 10 8 2 1
BITMAP
FFC0
7F80
7F00
3F00
3E00
1E00
0C00
0800
ENDCHAR
STARTCHAR 2192
ENCODING 8550
SWIDTH 1400 0
DWIDTH 14 0
BBX 11 3 1 2
BITMAP
FFE0
0040
0080
ENDCHAR
STARTCHAR 2190
ENCODING 8551
SWIDTH 1400 0
DWIDTH 14 0
BBX 11 3 2 2
BITMAP
FFE0
4000
2000
ENDCHAR
STARTCHAR 2191
ENCODING 8552
SWIDTH 1400 0
DWIDTH 14 0
BBX 3 11 6 -2
BITMAP
40
E0
40
40
40
40
40
40
40
40
40
ENDCHAR
STARTCHAR 2193
ENCODING 8553
SWIDTH 1400 0
DWIDTH 14 0
BBX 3 11 6 -2
BITMAP
40
40
40
40
40
40
40
40
40
E0
40
ENDCHAR
STARTCHAR 2194
ENCODING 8554
SWIDTH 1400 0
DWIDTH 14 0
BBX 9 3 2 3
BITMAP
4000
FF80
8080
ENDCHAR
STARTCHAR 3013
ENCODING 8555
SWIDTH 1400 0
DWIDTH 14 0
BBX 9 4 2 2
BITMAP
FF80
0000
0000
FF80
ENDCHAR
STARTCHAR 226A
ENCODING 8556
SWIDTH 1400 0
DWIDTH 14 0
BBX 10 10 2 -1
BITMAP
0240
0D80
1200
2400
D800
4800
3400
0B00
0480
0240
ENDCHAR
STARTCHAR 226B
ENCODING 8557
SWIDTH 1400 0
DWIDTH 14 0
BBX 9 10 2 -1
BITMAP
1000
C800
2400
1300
0C80
0480
0B00
3400
4800
9000
ENDCHAR
STARTCHAR 221A
ENCODING 8558
SWIDTH 1400 0
DWIDTH 14 0
BBX 11 11 2 0
BITMAP
07E0
0400
0800
0800
0800
1000
1000
9000
A000
6000
2000
ENDCHAR
STARTCHAR 223D
ENCODING 8559
SWIDTH 1400 0
DWIDTH 14 0
BBX 10 6 2 1
BITMAP
7380
8440
8440
8840
9040
7380
ENDCHAR
STARTCHAR 221D
ENCODING 8560
SWIDTH 1400 0
DWIDTH 14 0
BBX 9 6 2 1
BITMAP
7380
8C80
8800
8800
8C80
7380
ENDCHAR
STARTCHAR 2235
ENCODING 8561
SWIDTH 1400 0
DWIDTH 14 0
BBX 6 7 4 0
BITMAP
84
84
00
00
00
20
20
ENDCHAR
STARTCHAR 222B
ENCODING 8562
SWIDTH 1400 0
DWIDTH 14 0
BBX 5 10 4 0
BITMAP
18
20
20
20
20
20
20
20
A0
C0
ENDCHAR
STARTCHAR 222C
ENCODING 8563
SWIDTH 1400 0
DWIDTH 14 0
BBX 9 10 2 0
BITMAP
1980
1680
2200
2200
2200
2200
2200
2200
A400
CC00
ENDCHAR
STARTCHAR 2208
ENCODING 8564
SWIDTH 1400 0
DWIDTH 14 0
BBX 9 8 2 0
BITMAP
3F80
4000
8000
FF80
8000
8000
4000
3F80
ENDCHAR
STARTCHAR 220B
ENCODING 8565
SWIDTH 1400 0
DWIDTH 14 0
BBX 9 8 2 0
BITMAP
FE00
0100
0080
FF80
0080
0080
0100
FE00
ENDCHAR
STARTCHAR 2286
ENCODING 8566
SWIDTH 1400 0
DWIDTH 14 0
BBX 8 8 3 0
BITMAP
7E
80
80
80
C0
3F
00
FF
ENDCHAR
STARTCHAR 2287
ENCODING 8567
SWIDTH 1400 0
DWIDTH 14 0
BBX 8 8 3 0
BITMAP
7E
01
01
01
02
FC
00
FF
ENDCHAR
STARTCHAR 2282
ENCODING 8568
SWIDTH 1400 0
DWIDTH 14 0
BBX 9 8 2 0
BITMAP
3F80
4000
8000
8000
8000
8000
4000
3F80
ENDCHAR
STARTCHAR 2283
ENCODING 8569
SWIDTH 1400 0
DWIDTH 14 0
BBX 9 8 2 0
BITMAP
FE00
0100
0080
0080
0080
0080
0100
FE00
ENDCHAR
STARTCHAR 222A
ENCODING 8570
SWIDTH 1400 0
DWIDTH 14 0
BBX 8 10 3 0
BITMAP
01
81
81
81
81
81
81
42
42
3C
ENDCHAR
STARTCHAR 2229
ENCODING 8571
SWIDTH 1400 0
DWIDTH 14 0
BBX 7 10 3 0
BITMAP
3C
42
42
82
82
82
82
82
82
02
ENDCHAR
STARTCHAR 2227
ENCODING 8572
SWIDTH 1400 0
DWIDTH 14 0
BBX 8 8 3 0
BITMAP
18
18
24
24
42
42
82
81
ENDCHAR
STARTCHAR 2228
ENCODING 8573
SWIDTH 1400 0
DWIDTH 14 0
BBX 8 8 3 1
BITMAP
01
81
82
42
44
24
28
18
ENDCHAR
STARTCHAR FFE2
ENCODING 8574
SWIDTH 1400 0
DWIDTH 14 0
BBX 8 5 3 2
BITMAP
FF
01
01
01
01
ENDCHAR
STARTCHAR 21D2
ENCODING 8737
SWIDTH 1400 0
DWIDTH 14 0
BBX 11 6 1 1
BITMAP
0080
FFC0
0020
0020
7FC0
0080
ENDCHAR
STARTCHAR 21D4
ENCODING 8738
SWIDTH 1400 0
DWIDTH 14 0
BBX 10 7 2 1
BITMAP
1200
2100
7F80
8040
8080
7F80
2100
ENDCHAR
STARTCHAR 2200
ENCODING 8739
SWIDTH 1400 0
DWIDTH 14 0
BBX 8 9 3 1
BITMAP
81
81
42
7E
42
24
24
18
18
ENDCHAR
STARTCHAR 2203
ENCODING 8740
SWIDTH 1400 0
DWIDTH 14 0
BBX 6 9 4 0
BITMAP
FC
04
04
04
FC
04
04
04
FC
ENDCHAR
STARTCHAR 00B4
ENCODING 8741
SWIDTH 1400 0
DWIDTH 14 0
BBX 1 1 6 9
BITMAP
80
ENDCHAR
STARTCHAR FF5E
ENCODING 8742
SWIDTH 1400 0
DWIDTH 14 0
BBX 7 2 3 8
BITMAP
70
8E
ENDCHAR
STARTCHAR 02C7
ENCODING 8743
SWIDTH 1400 0
DWIDTH 14 0
BBX 4 2 5 8
BITMAP
90
60
ENDCHAR
STARTCHAR 02D8
ENCODING 8744
SWIDTH 1400 0
DWIDTH 14 0
BBX 5 3 4 8
BITMAP
80
48
70
ENDCHAR
STARTCHAR 02DD
ENCODING 8745
SWIDTH 1400 0
DWIDTH 14 0
BBX 4 2 5 9
BITMAP
F0
80
ENDCHAR
STARTCHAR 02DA
ENCODING 8746
SWIDTH 1400 0
DWIDTH 14 0
BBX 3 3 5 8
BITMAP
E0
A0
E0
ENDCHAR
STARTCHAR 02D9
ENCODING 8747
SWIDTH 1400 0
DWIDTH 14 0
BBX 1 2 6 9
BITMAP
80
80
ENDCHAR
STARTCHAR 00B8
ENCODING 8748
SWIDTH 1400 0
DWIDTH 14 0
BBX 1 2 7 -1
BITMAP
80
80
ENDCHAR
STARTCHAR 02DB
ENCODING 8749
SWIDTH 1400 0
DWIDTH 14 0
BBX 2 3 6 -2
BITMAP
80
80
C0
ENDCHAR
STARTCHAR 00A1
ENCODING 8750
SWIDTH 1400 0
DWIDTH 14 0
BBX 1 10 6 0
BITMAP
80
80
00
80
80
80
80
80
80
80
ENDCHAR
STARTCHAR 00BF
ENCODING 8751
SWIDTH 1400 0
DWIDTH 14 0
BBX 6 10 4 0
BITMAP
10
10
00
10
10
70
80
84
84
78
ENDCHAR
STARTCHAR 02D0
ENCODING 8752
SWIDTH 1400 0
DWIDTH 14 0
BBX 2 6 6 2
BITMAP
C0
00
00
00
00
C0
ENDCHAR
STARTCHAR 222E
ENCODING 8753
SWIDTH 1400 0
DWIDTH 14 0
BBX 6 10 4 0
BITMAP
1C
10
20
30
70
30
20
20
20
C0
ENDCHAR
STARTCHAR 2211
ENCODING 8754
SWIDTH 1400 0
DWIDTH 14 0
BBX 9 10 2 0
BITMAP
FF80
4080
2080
1080
0800
0800
1080
2080
4080
FF80
ENDCHAR
STARTCHAR 220F
ENCODING 8755
SWIDTH 1400 0
DWIDTH 14 0
BBX 10 10 2 0
BITMAP
FFC0
2100
2100
2100
2100
2100
2100
2100
2100
2100
ENDCHAR
STARTCHAR 00A4
ENCODING 8756
SWIDTH 1400 0
DWIDTH 14 0
BBX 9 11 2 -1
BITMAP
8000
5E80
2100
4100
4080
4080
4080
4080
2100
5E80
8000
ENDCHAR
STARTCHAR 2109
ENCODING 8757
SWIDTH 1400 0
DWIDTH 14 0
BBX 10 10 1 0
BITMAP
E7C0
A400
4400
0400
0780
0400
0400
0400
0400
0400
ENDCHAR
STARTCHAR 2030
ENCODING 8758
SWIDTH 1400 0
DWIDTH 14 0
BBX 11 12 1 -1
BITMAP
3080
4900
4A00
4A00
4C00
3800
0E40
19A0
29A0
29A0
49A0
8640
ENDCHAR
STARTCHAR 25C1
ENCODING 8759
SWIDTH 1400 0
DWIDTH 14 0
BBX 7 11 4 -1
BITMAP
02
06
1A
22
42
82
42
32
0A
06
02
ENDCHAR
STARTCHAR 25C0
ENCODING 8760
SWIDTH 1400 0
DWIDTH 14 0
BBX 7 9 3 0
BITMAP
06
0E
1E
7E
FE
7E
1E
0E
06
ENDCHAR
STARTCHAR 25B7
ENCODING 8761
SWIDTH 1400 0
DWIDTH 14 0
BBX 7 11 3 -1
BITMAP
80
C0
A0
98
84
82
84
88
B0
C0
80
ENDCHAR
STARTCHAR 25B6
ENCODING 8762
SWIDTH 1400 0
DWIDTH 14 0
BBX 8 11 3 -1
BITMAP
80
C0
F0
F8
FC
FF
FC
F8
F0
C0
80
ENDCHAR
STARTCHAR 2664
ENCODING 8763
SWIDTH 1400 0
DWIDTH 14 0
BBX 9 11 2 -1
BITMAP
1800
1400
2400
4200
4100
8080
8080
9480
7B00
1400
1C00
ENDCHAR
STARTCHAR 2660
ENCODING 8764
SWIDTH 1400 0
DWIDTH 14 0
BBX 8 11 3 -1
BITMAP
10
18
3C
7E
FE
FF
FF
FF
F7
18
38
ENDCHAR
STARTCHAR 2661
ENCODING 8765
SWIDTH 1400 0
DWIDTH 14 0
BBX 9 11 2 -1
BITMAP
6700
D580
8880
8080
8080
8100
4100
2200
2200
1400
0800
ENDCHAR
STARTCHAR 2665
ENCODING 8766
SWIDTH 1400 0
DWIDTH 14 0
BBX 10 11 2 -1
BITMAP
7380
FF80
FFC0
FF80
FF80
7F80
7F00
3F00
1E00
1C00
0800
ENDCHAR
STARTCHAR 2667
ENCODING 8767
SWIDTH 1400 0
DWIDTH 14 0
BBX 10 12 2 -1
BITMAP
1C00
2200
2200
2200
1400
7780
8040
8040
8C40
7F80
1400
0C00
ENDCHAR
STARTCHAR 2663
ENCODING 8768
SWIDTH 1400 0
DWIDTH 14 0
BBX 10 11 2 -1
BITMAP
1C00
1E00
3E00
1E00
7F80
FFC0
FFC0
FFC0
7B80
0C00
0C00
ENDCHAR
STARTCHAR 2299
ENCODING 8769
SWIDTH 1400 0
DWIDTH 14 0
BBX 10 11 2 -1
BITMAP
1E00
6180
5E80
BF40
BF40
BF40
BF40
BF40
5E80
6180
1E00
ENDCHAR
STARTCHAR 25C8
ENCODING 8770
SWIDTH 1400 0
DWIDTH 14 0
BBX 11 12 1 -1
BITMAP
0400
0A00
1900
1680
2F40
5FA0
BFA0
5FC0
2F80
1700
0A00
0400
ENDCHAR
STARTCHAR 25A3
ENCODING 8771
SWIDTH 1400 0
DWIDTH 14 0
BBX 10 11 2 -1
BITMAP
FFC0
8040
8040
BE40
BE40
BE40
BE40
BE40
8040
8040
FFC0
ENDCHAR
STARTCHAR 25D0
ENCODING 8772
SWIDTH 1400 0
DWIDTH 14 0
BBX 10 11 2 -1
BITMAP
1E00
3980
7880
F840
F840
F840
F840
F840
7880
3980
1E00
ENDCHAR
STARTCHAR 25D1
ENCODING 8773
SWIDTH 1400 0
DWIDTH 14 0
BBX 10 11 2 -1
BITMAP
1E00
6380
4380
83C0
83C0
83C0
83C0
83C0
4380
6380
1E00
ENDCHAR
STARTCHAR 2592
ENCODING 8774
SWIDTH 1400 0
DWIDTH 14 0
BBX 9 11 2 -1
BITMAP
FF80
D280
AF80
FB80
D680
AB80
D680
AD80
D680
AD80
FF80
ENDCHAR
STARTCHAR 25A4
ENCODING 8775
SWIDTH 1400 0
DWIDTH 14 0
BBX 10 11 2 -1
BITMAP
FFC0
8040
FFC0
8040
8040
FFC0
8040
FFC0
8040
8040
FFC0
ENDCHAR
STARTCHAR 25A5
ENCODING 8776
SWIDTH 1400 0
DWIDTH 14 0
BBX 10 11 2 -1
BITMAP
FFC0
AA40
AA40
AA40
AA40
AA40
AA40
AA40
AA40
AA40
FFC0
ENDCHAR
STARTCHAR 25A8
ENCODING 8777
SWIDTH 1400 0
DWIDTH 14 0
BBX 10 11 2 -1
BITMAP
FFC0
88C0
9140
A240
C440
88C0
9140
A240
C440
8440
FFC0
ENDCHAR
STARTCHAR 25A7
ENCODING 8778
SWIDTH 1400 0
DWIDTH 14 0
BBX 10 11 2 -1
BITMAP
FFC0
C440
C240
A140
9140
C8C0
C440
A240
9140
88C0
FFC0
ENDCHAR
STARTCHAR 25A6
ENCODING 8779
SWIDTH 1400 0
DWIDTH 14 0
BBX 10 11 2 -1
BITMAP
FFC0
A940
FFC0
A940
A940
FFC0
A940
FFC0
A940
A940
FFC0
ENDCHAR
STARTCHAR 25A9
ENCODING 8780
SWIDTH 1400 0
DWIDTH 14 0
BBX 10 11 2 -1
BITMAP
FFC0
94C0
E540
E340
D540
88C0
D4C0
A340
D340
8CC0
FFC0
ENDCHAR
STARTCHAR 2668
ENCODING 8781
SWIDTH 1400 0
DWIDTH 14 0
BBX 10 10 2 -1
BITMAP
1A00
1C00
1C00
1A00
1600
5680
9640
9840
4180
3F00
ENDCHAR
STARTCHAR 260F
ENCODING 8782
SWIDTH 1400 0
DWIDTH 14 0
BBX 11 10 1 -1
BITMAP
0E00
71C0
9FA0
B7A0
78C0
3080
50C0
59C0
4640
3F80
ENDCHAR
STARTCHAR 260E
ENCODING 8783
SWIDTH 1400 0
DWIDTH 14 0
BBX 11 9 2 0
BITMAP
0E00
7FC0
D2E0
DFE0
2100
2180
6180
61C0
7FC0
ENDCHAR
STARTCHAR 261C
ENCODING 8784
SWIDTH 1400 0
DWIDTH 14 0
BBX 12 6 1 2
BITMAP
0700
FAF0
6C30
1730
0EB0
0340
ENDCHAR
STARTCHAR 261E
ENCODING 8785
SWIDTH 1400 0
DWIDTH 14 0
BBX 12 6 1 2
BITMAP
0E00
F5F0
C260
CF80
DB00
3400
ENDCHAR
STARTCHAR 00B6
ENCODING 8786
SWIDTH 1400 0
DWIDTH 14 0
BBX 7 12 3 -2
BITMAP
7A
8A
8A
8A
7A
0A
0A
0A
0A
0A
0A
02
ENDCHAR
STARTCHAR 2020
ENCODING 8787
SWIDTH 1400 0
DWIDTH 14 0
BBX 7 13 3 -1
BITMAP
10
10
10
10
FE
10
10
10
10
10
10
10
10
ENDCHAR
STARTCHAR 2021
ENCODING 8788
SWIDTH 1400 0
DWIDTH 14 0
BBX 7 13 3 -2
BITMAP
10
10
10
7C
10
FE
10
10
10
10
10
10
10
ENDCHAR
STARTCHAR 2195
ENCODING 8789
SWIDTH 1400 0
DWIDTH 14 0
BBX 4 9 5 0
BITMAP
60
D0
40
40
40
40
40
40
60
ENDCHAR
STARTCHAR 2197
ENCODING 8790
SWIDTH 1400 0
DWIDTH 14 0
BBX 7 8 3 0
BITMAP
06
06
08
10
20
40
40
80
ENDCHAR
STARTCHAR 2199
ENCODING 8791
SWIDTH 1400 0
DWIDTH 14 0
BBX 8 8 3 1
BITMAP
01
02
04
08
10
A0
C0
E0
ENDCHAR
STARTCHAR 2196
ENCODING 8792
SWIDTH 1400 0
DWIDTH 14 0
BBX 7 8 4 0
BITMAP
C0
C0
40
20
10
08
04
02
ENDCHAR
STARTCHAR 2198
ENCODING 8793
SWIDTH 1400 0
DWIDTH 14 0
BBX 8 9 3 0
BITMAP
80
40
20
30
10
08
05
03
07
ENDCHAR
STARTCHAR 266D
ENCODING 8794
SWIDTH 1400 0
DWIDTH 14 0
BBX 4 9 5 0
BITMAP
80
80
80
B0
D0
90
90
A0
C0
ENDCHAR
STARTCHAR 2669
ENCODING 8795
SWIDTH 1400 0
DWIDTH 14 0
BBX 3 11 5 -1
BITMAP
20
20
20
20
20
20
20
20
20
E0
C0
ENDCHAR
STARTCHAR 266A
ENCODING 8796
SWIDTH 1400 0
DWIDTH 14 0
BBX 7 11 3 -1
BITMAP
20
30
38
24
22
22
24
20
20
E0
C0
ENDCHAR
STARTCHAR 266C
ENCODING 8797
SWIDTH 1400 0
DWIDTH 14 0
BBX 9 10 2 -1
BITMAP
3F80
2080
3F80
2080
2080
2080
2080
2080
E380
C300
ENDCHAR
STARTCHAR 327F
ENCODING 8798
SWIDTH 1400 0
DWIDTH 14 0
BBX 10 11 2 -1
BITMAP
1E00
2100
5280
9440
9400
FDC0
1440
9240
5180
2180
1E00
ENDCHAR
STARTCHAR 321C
ENCODING 8799
SWIDTH 1400 0
DWIDTH 14 0
BBX 11 11 1 -1
BITMAP
2080
5FC0
4640
8B20
B0E0
FFE0
8420
8420
4440
4440
2080
ENDCHAR
STARTCHAR 2116
ENCODING 8800
SWIDTH 1400 0
DWIDTH 14 0
BBX 12 10 1 0
BITMAP
8800
8800
C800
C9C0
AB60
AA20
AA20
9A20
8B60
89D0
ENDCHAR
STARTCHAR 33C7
ENCODING 8801
SWIDTH 1400 0
DWIDTH 14 0
BBX 12 10 1 0
BITMAP
7000
4800
8800
81C0
8360
8220
8A20
8A20
4B60
71D0
ENDCHAR
STARTCHAR 2122
ENCODING 8802
SWIDTH 1400 0
DWIDTH 14 0
BBX 11 10 1 0
BITMAP
FA20
2220
2220
2360
2360
2360
23A0
23A0
22A0
22A0
ENDCHAR
STARTCHAR 33C2
ENCODING 8803
SWIDTH 1400 0
DWIDTH 14 0
BBX 12 7 1 0
BITMAP
6340
92A0
92A0
72A0
92A0
92A0
7AB0
ENDCHAR
STARTCHAR 33D8
ENCODING 8804
SWIDTH 1400 0
DWIDTH 14 0
BBX 12 9 1 -2
BITMAP
B360
DAA0
8AA0
8AA0
8AA0
DAA0
F2B0
8000
8000
ENDCHAR
STARTCHAR 2121
ENCODING 8805
SWIDTH 1400 0
DWIDTH 14 0
BBX 10 10 2 0
BITMAP
F840
2040
2040
2E40
3140
3140
3F40
3140
3140
2E40
ENDCHAR
STARTCHAR FF01
ENCODING 8993
SWIDTH 1400 0
DWIDTH 14 0
BBX 2 11 6 -1
BITMAP
40
40
40
40
40
40
40
40
40
80
80
ENDCHAR
STARTCHAR FF02
ENCODING 8994
SWIDTH 1400 0
DWIDTH 14 0
BBX 4 3 5 8
BITMAP
40
50
A0
ENDCHAR
STARTCHAR FF03
ENCODING 8995
SWIDTH 1400 0
DWIDTH 14 0
BBX 10 11 2 -1
BITMAP
0100
1100
1100
7FC0
1200
2200
2200
FF80
2200
2400
2400
ENDCHAR
STARTCHAR FF04
ENCODING 8996
SWIDTH 1400 0
DWIDTH 14 0
BBX 10 12 2 -1
BITMAP
0200
0E00
7380
5240
5200
3E00
1380
1240
9240
52C0
3F00
1200
ENDCHAR
STARTCHAR FF05
ENCODING 8997
SWIDTH 1400 0
DWIDTH 14 0
BBX 12 11 1 -1
BITMAP
7820
8440
8480
8500
4A00
35E0
0A10
1210
2210
4120
00C0
ENDCHAR
STARTCHAR FF06
ENCODING 8998
SWIDTH 1400 0
DWIDTH 14 0
BBX 8 10 3 0
BITMAP
18
24
24
24
18
68
49
86
46
39
ENDCHAR
STARTCHAR FF07
ENCODING 8999
SWIDTH 1400 0
DWIDTH 14 0
BBX 2 3 6 8
BITMAP
40
40
80
ENDCHAR
STARTCHAR FF08
ENCODING 9000
SWIDTH 1400 0
DWIDTH 14 0
BBX 4 13 5 -2
BITMAP
10
20
40
40
80
80
80
80
80
40
40
20
10
ENDCHAR
STARTCHAR FF09
ENCODING 9001
SWIDTH 1400 0
DWIDTH 14 0
BBX 4 13 5 -2
BITMAP
80
40
20
20
10
10
10
10
10
20
20
40
80
ENDCHAR
STARTCHAR FF0A
ENCODING 9002
SWIDTH 1400 0
DWIDTH 14 0
BBX 8 7 3 1
BITMAP
24
2C
18
FF
18
24
24
ENDCHAR
STARTCHAR FF0B
ENCODING 9003
SWIDTH 1400 0
DWIDTH 14 0
BBX 11 11 1 -1
BITMAP
0400
0400
0400
0400
0400
FFE0
0400
0400
0400
0400
0400
ENDCHAR
STARTCHAR FF0C
ENCODING 9004
SWIDTH 1400 0
DWIDTH 14 0
BBX 2 4 6 -2
BITMAP
C0
C0
40
80
ENDCHAR
STARTCHAR FF0D
ENCODING 9005
SWIDTH 1400 0
DWIDTH 14 0
BBX 11 1 2 4
BITMAP
FFE0
ENDCHAR
STARTCHAR FF0E
ENCODING 9006
SWIDTH 1400 0
DWIDTH 14 0
BBX 2 2 6 -1
BITMAP
C0
C0
ENDCHAR
STARTCHAR FF0F
ENCODING 9007
SWIDTH 1400 0
DWIDTH 14 0
BBX 5 11 5 -1
BITMAP
08
10
10
10
20
20
40
40
80
80
80
ENDCHAR
STARTCHAR FF10
ENCODING 9008
SWIDTH 1400 0
DWIDTH 14 0
BBX 8 10 3 0
BITMAP
3C
42
C3
81
81
81
81
C3
42
3C
ENDCHAR
STARTCHAR FF11
ENCODING 9009
SWIDTH 1400 0
DWIDTH 14 0
BBX 4 10 4 0
BITMAP
10
30
50
90
10
10
10
10
10
10
ENDCHAR
STARTCHAR FF12
ENCODING 9010
SWIDTH 1400 0
DWIDTH 14 0
BBX 7 10 3 0
BITMAP
3C
C6
82
02
04
18
20
40
80
FE
ENDCHAR
STARTCHAR FF13
ENCODING 9011
SWIDTH 1400 0
DWIDTH 14 0
BBX 7 10 3 0
BITMAP
3C
42
02
06
38
06
02
82
42
3C
ENDCHAR
STARTCHAR FF14
ENCODING 9012
SWIDTH 1400 0
DWIDTH 14 0
BBX 8 10 2 0
BITMAP
06
0A
0A
12
22
42
42
FF
02
02
ENDCHAR
STARTCHAR FF15
ENCODING 9013
SWIDTH 1400 0
DWIDTH 14 0
BBX 7 10 4 0
BITMAP
FC
80
80
80
FC
02
02
82
C4
78
ENDCHAR
STARTCHAR FF16
ENCODING 9014
SWIDTH 1400 0
DWIDTH 14 0
BBX 8 10 3 0
BITMAP
3C
44
82
80
BE
C3
81
81
43
3C
ENDCHAR
STARTCHAR FF17
ENCODING 9015
SWIDTH 1400 0
DWIDTH 14 0
BBX 7 10 4 0
BITMAP
FE
04
04
08
08
10
20
20
40
40
ENDCHAR
STARTCHAR FF18
ENCODING 9016
SWIDTH 1400 0
DWIDTH 14 0
BBX 7 10 3 0
BITMAP
3C
42
42
42
3C
42
42
82
42
3C
ENDCHAR
STARTCHAR FF19
ENCODING 9017
SWIDTH 1400 0
DWIDTH 14 0
BBX 7 11 4 -1
BITMAP
78
44
82
82
82
46
7A
02
84
C4
38
ENDCHAR
STARTCHAR FF1A
ENCODING 9018
SWIDTH 1400 0
DWIDTH 14 0
BBX 1 9 7 0
BITMAP
80
80
00
00
00
00
00
80
80
ENDCHAR
STARTCHAR FF1B
ENCODING 9019
SWIDTH 1400 0
DWIDTH 14 0
BBX 2 9 6 0
BITMAP
40
40
00
00
00
00
00
C0
40
ENDCHAR
STARTCHAR FF1C
ENCODING 9020
SWIDTH 1400 0
DWIDTH 14 0
BBX 10 11 2 -1
BITMAP
00C0
0300
0C00
1000
6000
8000
6000
1800
0400
0300
00C0
ENDCHAR
STARTCHAR FF1D
ENCODING 9021
SWIDTH 1400 0
DWIDTH 14 0
BBX 10 4 2 3
BITMAP
FFC0
0000
0000
FFC0
ENDCHAR
STARTCHAR FF1E
ENCODING 9022
SWIDTH 1400 0
DWIDTH 14 0
BBX 9 10 3 0
BITMAP
8000
6000
1800
0600
0180
0080
0300
0C00
3000
C000
ENDCHAR
STARTCHAR FF1F
ENCODING 9023
SWIDTH 1400 0
DWIDTH 14 0
BBX 8 12 3 -1
BITMAP
7C
82
81
81
83
4E
10
10
10
10
00
10
ENDCHAR
STARTCHAR FF20
ENCODING 9024
SWIDTH 1400 0
DWIDTH 14 0
BBX 11 11 1 -1
BITMAP
1F00
20C0
4040
8F20
9120
9120
9120
9920
4EC0
2000
1F00
ENDCHAR
STARTCHAR FF21
ENCODING 9025
SWIDTH 1400 0
DWIDTH 14 0
BBX 8 10 3 0
BITMAP
18
18
28
24
44
42
42
7E
81
81
ENDCHAR
STARTCHAR FF22
ENCODING 9026
SWIDTH 1400 0
DWIDTH 14 0
BBX 8 11 3 0
BITMAP
FE
81
81
81
82
FE
81
81
81
81
FE
ENDCHAR
STARTCHAR FF23
ENCODING 9027
SWIDTH 1400 0
DWIDTH 14 0
BBX 9 10 3 0
BITMAP
3E00
6300
4100
8080
8000
8000
8080
4100
6100
1E00
ENDCHAR
STARTCHAR FF24
ENCODING 9028
SWIDTH 1400 0
DWIDTH 14 0
BBX 9 10 3 0
BITMAP
FE00
8300
8180
8080
8080
8080
8080
8080
8100
FE00
ENDCHAR
STARTCHAR FF25
ENCODING 9029
SWIDTH 1400 0
DWIDTH 14 0
BBX 7 10 4 0
BITMAP
FE
80
80
80
FE
80
80
80
80
FE
ENDCHAR
STARTCHAR FF26
ENCODING 9030
SWIDTH 1400 0
DWIDTH 14 0
BBX 7 10 4 0
BITMAP
FE
80
80
80
FE
80
80
80
80
80
ENDCHAR
STARTCHAR FF27
ENCODING 9031
SWIDTH 1400 0
DWIDTH 14 0
BBX 8 12 3 -1
BITMAP
1C
63
41
80
80
8F
81
81
81
42
62
3C
ENDCHAR
STARTCHAR FF28
ENCODING 9032
SWIDTH 1400 0
DWIDTH 14 0
BBX 8 11 3 0
BITMAP
80
81
81
81
81
FF
81
81
81
81
81
ENDCHAR
STARTCHAR FF29
ENCODING 9033
SWIDTH 1400 0
DWIDTH 14 0
BBX 1 11 7 -1
BITMAP
80
80
80
80
80
80
80
80
80
80
80
ENDCHAR
STARTCHAR FF2A
ENCODING 9034
SWIDTH 1400 0
DWIDTH 14 0
BBX 7 10 3 0
BITMAP
02
02
02
02
02
82
82
82
44
38
ENDCHAR
STARTCHAR FF2B
ENCODING 9035
SWIDTH 1400 0
DWIDTH 14 0
BBX 8 11 4 -1
BITMAP
82
84
98
A0
C0
A0
90
88
84
82
01
ENDCHAR
STARTCHAR FF2C
ENCODING 9036
SWIDTH 1400 0
DWIDTH 14 0
BBX 8 10 4 0
BITMAP
80
80
80
80
80
80
80
80
80
FF
ENDCHAR
STARTCHAR FF2D
ENCODING 9037
SWIDTH 1400 0
DWIDTH 14 0
BBX 10 10 2 0
BITMAP
80C0
C0C0
C140
A140
A240
9240
9240
9440
8C40
8840
ENDCHAR
STARTCHAR FF2E
ENCODING 9038
SWIDTH 1400 0
DWIDTH 14 0
BBX 8 11 3 0
BITMAP
81
C1
C1
A1
91
91
89
89
85
83
81
ENDCHAR
STARTCHAR FF2F
ENCODING 9039
SWIDTH 1400 0
DWIDTH 14 0
BBX 8 11 3 -1
BITMAP
3C
46
42
81
81
81
81
81
42
42
3C
ENDCHAR
STARTCHAR FF30
ENCODING 9040
SWIDTH 1400 0
DWIDTH 14 0
BBX 9 10 3 0
BITMAP
FF00
8180
8080
8080
8180
FF00
8000
8000
8000
8000
ENDCHAR
STARTCHAR FF31
ENCODING 9041
SWIDTH 1400 0
DWIDTH 14 0
BBX 9 13 2 -2
BITMAP
3E00
6300
C100
8080
8080
8080
8080
8080
C100
6300
3C00
4400
0380
ENDCHAR
STARTCHAR FF32
ENCODING 9042
SWIDTH 1400 0
DWIDTH 14 0
BBX 8 11 3 -1
BITMAP
FE
81
81
81
83
FE
82
82
82
81
81
ENDCHAR
STARTCHAR FF33
ENCODING 9043
SWIDTH 1400 0
DWIDTH 14 0
BBX 8 11 3 -1
BITMAP
7C
C2
82
80
40
3C
03
81
81
43
3C
ENDCHAR
STARTCHAR FF34
ENCODING 9044
SWIDTH 1400 0
DWIDTH 14 0
BBX 9 11 3 -1
BITMAP
FF80
0800
0800
0800
0800
0800
0800
0800
0800
0800
0800
ENDCHAR
STARTCHAR FF35
ENCODING 9045
SWIDTH 1400 0
DWIDTH 14 0
BBX 8 11 3 0
BITMAP
01
81
81
81
81
81
81
81
81
42
3C
ENDCHAR
STARTCHAR FF36
ENCODING 9046
SWIDTH 1400 0
DWIDTH 14 0
BBX 8 11 3 0
BITMAP
81
81
82
42
42
44
24
24
28
18
18
ENDCHAR
STARTCHAR FF37
ENCODING 9047
SWIDTH 1400 0
DWIDTH 14 0
BBX 12 11 1 0
BITMAP
8010
8610
8620
4620
4A20
4920
4940
2940
2940
30C0
1080
ENDCHAR
STARTCHAR FF38
ENCODING 9048
SWIDTH 1400 0
DWIDTH 14 0
BBX 8 11 3 -1
BITMAP
81
42
24
14
18
18
24
24
42
81
80
ENDCHAR
STARTCHAR FF39
ENCODING 9049
SWIDTH 1400 0
DWIDTH 14 0
BBX 9 11 2 0
BITMAP
8080
4100
4100
2200
1400
1C00
0800
0800
0800
0800
0800
ENDCHAR
STARTCHAR FF3A
ENCODING 9050
SWIDTH 1400 0
DWIDTH 14 0
BBX 8 10 3 0
BITMAP
FE
02
04
08
10
10
20
40
80
FF
ENDCHAR
STARTCHAR FF3B
ENCODING 9051
SWIDTH 1400 0
DWIDTH 14 0
BBX 5 13 5 -2
BITMAP
F8
80
80
80
80
80
80
80
80
80
80
80
78
ENDCHAR
STARTCHAR FFE6
ENCODING 9052
SWIDTH 1400 0
DWIDTH 14 0
BBX 12 10 1 0
BITMAP
4620
4620
4620
FFF0
4940
2940
FFF0
2940
3140
1080
ENDCHAR
STARTCHAR FF3D
ENCODING 9053
SWIDTH 1400 0
DWIDTH 14 0
BBX 5 13 4 -2
BITMAP
F8
08
08
08
08
08
08
08
08
08
08
08
F8
ENDCHAR
STARTCHAR FF3E
ENCODING 9054
SWIDTH 1400 0
DWIDTH 14 0
BBX 4 2 5 8
BITMAP
60
90
ENDCHAR
STARTCHAR FF3F
ENCODING 9055
SWIDTH 1400 0
DWIDTH 14 0
BBX 12 1 1 -2
BITMAP
FFF0
ENDCHAR
STARTCHAR FF40
ENCODING 9056
SWIDTH 1400 0
DWIDTH 14 0
BBX 2 3 6 7
BITMAP
80
40
40
ENDCHAR
STARTCHAR FF41
ENCODING 9057
SWIDTH 1400 0
DWIDTH 14 0
BBX 6 7 4 0
BITMAP
78
44
04
FC
84
8C
7C
ENDCHAR
STARTCHAR FF42
ENCODING 9058
SWIDTH 1400 0
DWIDTH 14 0
BBX 6 9 4 0
BITMAP
80
80
B8
CC
84
84
84
CC
B8
ENDCHAR
STARTCHAR FF43
ENCODING 9059
SWIDTH 1400 0
DWIDTH 14 0
BBX 6 7 4 0
BITMAP
38
44
80
80
80
44
38
ENDCHAR
STARTCHAR FF44
ENCODING 9060
SWIDTH 1400 0
DWIDTH 14 0
BBX 6 9 4 0
BITMAP
04
04
74
CC
84
84
84
CC
74
ENDCHAR
STARTCHAR FF45
ENCODING 9061
SWIDTH 1400 0
DWIDTH 14 0
BBX 6 7 4 0
BITMAP
78
C4
84
FC
84
8C
78
ENDCHAR
STARTCHAR FF46
ENCODING 9062
SWIDTH 1400 0
DWIDTH 14 0
BBX 6 9 4 0
BITMAP
3C
20
20
F8
20
20
20
20
20
ENDCHAR
STARTCHAR FF47
ENCODING 9063
SWIDTH 1400 0
DWIDTH 14 0
BBX 6 9 4 -2
BITMAP
74
CC
84
84
84
CC
7C
84
78
ENDCHAR
STARTCHAR FF48
ENCODING 9064
SWIDTH 1400 0
DWIDTH 14 0
BBX 6 10 4 -1
BITMAP
80
80
B8
C4
84
84
84
84
84
80
ENDCHAR
STARTCHAR FF49
ENCODING 9065
SWIDTH 1400 0
DWIDTH 14 0
BBX 1 10 6 0
BITMAP
80
00
80
80
80
80
80
80
80
80
ENDCHAR
STARTCHAR FF4A
ENCODING 9066
SWIDTH 1400 0
DWIDTH 14 0
BBX 4 12 4 -2
BITMAP
10
00
10
10
10
10
10
10
10
10
10
E0
ENDCHAR
STARTCHAR FF4B
ENCODING 9067
SWIDTH 1400 0
DWIDTH 14 0
BBX 5 9 5 0
BITMAP
80
80
90
A0
C0
C0
A0
90
88
ENDCHAR
STARTCHAR FF4C
ENCODING 9068
SWIDTH 1400 0
DWIDTH 14 0
BBX 1 9 7 0
BITMAP
80
80
80
80
80
80
80
80
80
ENDCHAR
STARTCHAR FF4D
ENCODING 9069
SWIDTH 1400 0
DWIDTH 14 0
BBX 8 8 3 0
BITMAP
22
DD
89
89
89
89
89
89
ENDCHAR
STARTCHAR FF4E
ENCODING 9070
SWIDTH 1400 0
DWIDTH 14 0
BBX 5 7 4 0
BITMAP
F0
88
88
88
88
88
88
ENDCHAR
STARTCHAR FF4F
ENCODING 9071
SWIDTH 1400 0
DWIDTH 14 0
BBX 6 8 4 0
BITMAP
78
48
84
84
84
84
48
78
ENDCHAR
STARTCHAR FF50
ENCODING 9072
SWIDTH 1400 0
DWIDTH 14 0
BBX 6 10 4 -2
BITMAP
80
F8
C8
84
84
84
84
C8
B0
80
ENDCHAR
STARTCHAR FF51
ENCODING 9073
SWIDTH 1400 0
DWIDTH 14 0
BBX 6 9 4 -2
BITMAP
7C
84
84
84
84
C4
7C
04
04
ENDCHAR
STARTCHAR FF52
ENCODING 9074
SWIDTH 1400 0
DWIDTH 14 0
BBX 5 7 5 0
BITMAP
F8
88
80
80
80
80
80
ENDCHAR
STARTCHAR FF53
ENCODING 9075
SWIDTH 1400 0
DWIDTH 14 0
BBX 6 8 4 0
BITMAP
70
88
80
60
18
84
44
78
ENDCHAR
STARTCHAR FF54
ENCODING 9076
SWIDTH 1400 0
DWIDTH 14 0
BBX 5 9 5 0
BITMAP
40
40
F0
40
40
40
40
48
30
ENDCHAR
STARTCHAR FF55
ENCODING 9077
SWIDTH 1400 0
DWIDTH 14 0
BBX 6 8 4 0
BITMAP
84
84
84
84
84
84
8C
74
ENDCHAR
STARTCHAR FF56
ENCODING 9078
SWIDTH 1400 0
DWIDTH 14 0
BBX 6 7 4 0
BITMAP
84
84
48
48
50
30
30
ENDCHAR
STARTCHAR FF57
ENCODING 9079
SWIDTH 1400 0
DWIDTH 14 0
BBX 10 7 2 0
BITMAP
8C40
8C80
5480
5480
5300
3300
2100
ENDCHAR
STARTCHAR FF58
ENCODING 9080
SWIDTH 1400 0
DWIDTH 14 0
BBX 6 7 4 0
BITMAP
84
48
30
30
30
48
84
ENDCHAR
STARTCHAR FF59
ENCODING 9081
SWIDTH 1400 0
DWIDTH 14 0
BBX 6 10 4 -2
BITMAP
84
84
88
48
50
30
30
20
20
C0
ENDCHAR
STARTCHAR FF5A
ENCODING 9082
SWIDTH 1400 0
DWIDTH 14 0
BBX 6 8 4 0
BITMAP
FC
08
10
10
20
40
80
FC
ENDCHAR
STARTCHAR FF5B
ENCODING 9083
SWIDTH 1400 0
DWIDTH 14 0
BBX 4 13 6 -2
BITMAP
60
40
40
40
40
40
80
40
40
40
40
40
70
ENDCHAR
STARTCHAR FF5C
ENCODING 9084
SWIDTH 1400 0
DWIDTH 14 0
BBX 1 12 6 -2
BITMAP
80
80
80
80
80
80
80
80
80
80
80
80
ENDCHAR
STARTCHAR FF5D
ENCODING 9085
SWIDTH 1400 0
DWIDTH 14 0
BBX 4 13 4 -2
BITMAP
E0
20
20
20
20
20
10
20
20
20
20
20
E0
ENDCHAR
STARTCHAR FFE3
ENCODING 9086
SWIDTH 1400 0
DWIDTH 14 0
BBX 7 1 4 4
BITMAP
FE
ENDCHAR
STARTCHAR 3131
ENCODING 9249
SWIDTH 1400 0
DWIDTH 14 0
BBX 8 7 3 0
BITMAP
FF
01
01
01
01
01
01
ENDCHAR
STARTCHAR 3132
ENCODING 9250
SWIDTH 1400 0
DWIDTH 14 0
BBX 10 7 1 0
BITMAP
FBC0
0840
0840
0840
0840
0840
0840
ENDCHAR
STARTCHAR 3133
ENCODING 9251
SWIDTH 1400 0
DWIDTH 14 0
BBX 10 7 1 0
BITMAP
F900
0900
0900
0900
0A80
0A40
0C40
ENDCHAR
STARTCHAR 3134
ENCODING 9252
SWIDTH 1400 0
DWIDTH 14 0
BBX 8 7 3 0
BITMAP
80
80
80
80
80
80
FF
ENDCHAR
STARTCHAR 3135
ENCODING 9253
SWIDTH 1400 0
DWIDTH 14 0
BBX 10 7 2 0
BITMAP
87C0
8100
8100
8100
8280
8280
E440
ENDCHAR
STARTCHAR 3136
ENCODING 9254
SWIDTH 1400 0
DWIDTH 14 0
BBX 10 8 2 -1
BITMAP
8780
8FC0
8000
8380
8440
8440
E440
0380
ENDCHAR
STARTCHAR 3137
ENCODING 9255
SWIDTH 1400 0
DWIDTH 14 0
BBX 8 7 3 0
BITMAP
FF
80
80
80
80
80
FF
ENDCHAR
STARTCHAR 3138
ENCODING 9256
SWIDTH 1400 0
DWIDTH 14 0
BBX 10 7 2 0
BITMAP
FF80
8400
8400
8400
8400
8400
F7C0
ENDCHAR
STARTCHAR 3139
ENCODING 9257
SWIDTH 1400 0
DWIDTH 14 0
BBX 8 7 3 0
BITMAP
FF
01
01
FF
80
80
FF
ENDCHAR
STARTCHAR 313A
ENCODING 9258
SWIDTH 1400 0
DWIDTH 14 0
BBX 10 8 1 -1
BITMAP
FFC0
0840
0840
7840
4040
4040
4440
3800
ENDCHAR
STARTCHAR 313B
ENCODING 9259
SWIDTH 1400 0
DWIDTH 14 0
BBX 11 8 1 -1
BITMAP
FBE0
0A20
0A20
7A20
4220
4220
4FE0
3000
ENDCHAR
STARTCHAR 313C
ENCODING 9260
SWIDTH 1400 0
DWIDTH 14 0
BBX 11 8 1 -1
BITMAP
FA20
0A20
0A20
7BE0
4220
4220
4FE0
3000
ENDCHAR
STARTCHAR 313D
ENCODING 9261
SWIDTH 1400 0
DWIDTH 14 0
BBX 10 8 2 -1
BITMAP
F100
1100
1100
F100
8280
8240
9440
6000
ENDCHAR
STARTCHAR 313E
ENCODING 9262
SWIDTH 1400 0
DWIDTH 14 0
BBX 11 8 1 -1
BITMAP
FBC0
0A00
0A00
7BC0
4200
4200
47E0
3800
ENDCHAR
STARTCHAR 313F
ENCODING 9263
SWIDTH 1400 0
DWIDTH 14 0
BBX 11 8 2 -1
BITMAP
F7C0
1240
1240
F240
8240
8280
97E0
6000
ENDCHAR
STARTCHAR 3140
ENCODING 9264
SWIDTH 1400 0
DWIDTH 14 0
BBX 10 8 2 -1
BITMAP
F380
1FC0
1000
F380
8440
8440
9440
6380
ENDCHAR
STARTCHAR 3141
ENCODING 9265
SWIDTH 1400 0
DWIDTH 14 0
BBX 8 7 3 0
BITMAP
FF
81
81
81
81
81
FF
ENDCHAR
STARTCHAR 3142
ENCODING 9266
SWIDTH 1400 0
DWIDTH 14 0
BBX 8 7 3 0
BITMAP
81
81
81
FF
81
81
FF
ENDCHAR
STARTCHAR 3143
ENCODING 9267
SWIDTH 1400 0
DWIDTH 14 0
BBX 9 7 2 0
BITMAP
9480
9480
9480
F780
9480
9480
F780
ENDCHAR
STARTCHAR 3144
ENCODING 9268
SWIDTH 1400 0
DWIDTH 14 0
BBX 10 7 2 0
BITMAP
9100
9100
9100
F100
9280
9240
F440
ENDCHAR
STARTCHAR 3145
ENCODING 9269
SWIDTH 1400 0
DWIDTH 14 0
BBX 9 7 2 0
BITMAP
0800
0800
0800
1400
1400
2300
C080
ENDCHAR
STARTCHAR 3146
ENCODING 9270
SWIDTH 1400 0
DWIDTH 14 0
BBX 11 8 1 -1
BITMAP
1080
1080
1080
1080
2880
2940
4620
8200
ENDCHAR
STARTCHAR 3147
ENCODING 9271
SWIDTH 1400 0
DWIDTH 14 0
BBX 8 7 3 0
BITMAP
3C
C3
81
81
81
C3
3C
ENDCHAR
STARTCHAR 3148
ENCODING 9272
SWIDTH 1400 0
DWIDTH 14 0
BBX 8 7 3 0
BITMAP
FF
10
10
18
24
44
83
ENDCHAR
STARTCHAR 3149
ENCODING 9273
SWIDTH 1400 0
DWIDTH 14 0
BBX 10 7 2 0
BITMAP
FFC0
2100
2100
6100
5280
4A80
8440
ENDCHAR
STARTCHAR 314A
ENCODING 9274
SWIDTH 1400 0
DWIDTH 14 0
BBX 8 7 3 0
BITMAP
7C
00
FF
10
18
24
C2
ENDCHAR
STARTCHAR 314B
ENCODING 9275
SWIDTH 1400 0
DWIDTH 14 0
BBX 9 6 2 1
BITMAP
FF80
0080
0080
FE80
0080
0080
ENDCHAR
STARTCHAR 314C
ENCODING 9276
SWIDTH 1400 0
DWIDTH 14 0
BBX 8 7 3 0
BITMAP
FF
80
80
FF
80
80
FF
ENDCHAR
STARTCHAR 314D
ENCODING 9277
SWIDTH 1400 0
DWIDTH 14 0
BBX 9 7 2 0
BITMAP
7F80
0000
2000
2200
2200
2200
FF80
ENDCHAR
STARTCHAR 314E
ENCODING 9278
SWIDTH 1400 0
DWIDTH 14 0
BBX 9 9 2 -1
BITMAP
3E00
0000
FF80
0000
1E00
2100
2100
2100
1E00
ENDCHAR
STARTCHAR 314F
ENCODING 9279
SWIDTH 1400 0
DWIDTH 14 0
BBX 4 12 5 -2
BITMAP
80
80
80
80
80
80
F0
80
80
80
80
80
ENDCHAR
STARTCHAR 3150
ENCODING 9280
SWIDTH 1400 0
DWIDTH 14 0
BBX 4 12 5 -2
BITMAP
10
90
90
90
90
90
F0
90
90
90
90
90
ENDCHAR
STARTCHAR 3151
ENCODING 9281
SWIDTH 1400 0
DWIDTH 14 0
BBX 4 13 6 -3
BITMAP
80
80
80
80
F0
80
80
80
F0
80
80
80
80
ENDCHAR
STARTCHAR 3152
ENCODING 9282
SWIDTH 1400 0
DWIDTH 14 0
BBX 4 12 5 -2
BITMAP
10
90
90
90
F0
90
90
F0
90
90
90
90
ENDCHAR
STARTCHAR 3153
ENCODING 9283
SWIDTH 1400 0
DWIDTH 14 0
BBX 5 12 4 -2
BITMAP
08
08
08
08
08
F8
08
08
08
08
08
08
ENDCHAR
STARTCHAR 3154
ENCODING 9284
SWIDTH 1400 0
DWIDTH 14 0
BBX 6 12 3 -2
BITMAP
14
14
14
14
14
F4
14
14
14
14
14
04
ENDCHAR
STARTCHAR 3155
ENCODING 9285
SWIDTH 1400 0
DWIDTH 14 0
BBX 5 12 4 -2
BITMAP
08
08
08
08
F8
08
08
08
F8
08
08
08
ENDCHAR
STARTCHAR 3156
ENCODING 9286
SWIDTH 1400 0
DWIDTH 14 0
BBX 6 13 3 -3
BITMAP
04
14
14
14
F4
14
14
14
F4
14
14
14
04
ENDCHAR
STARTCHAR 3157
ENCODING 9287
SWIDTH 1400 0
DWIDTH 14 0
BBX 11 7 1 0
BITMAP
0400
0400
0400
0400
0400
0400
FFE0
ENDCHAR
STARTCHAR 3158
ENCODING 9288
SWIDTH 1400 0
DWIDTH 14 0
BBX 11 13 2 -3
BITMAP
0100
0100
0100
1100
1100
1100
11E0
1100
FF00
C100
0100
0100
0100
ENDCHAR
STARTCHAR 3159
ENCODING 9289
SWIDTH 1400 0
DWIDTH 14 0
BBX 10 12 1 -2
BITMAP
0040
0140
0140
1140
1140
1140
11C0
1140
FF40
0140
0140
0040
ENDCHAR
STARTCHAR 315A
ENCODING 9290
SWIDTH 1400 0
DWIDTH 14 0
BBX 8 13 3 -3
BITMAP
01
01
01
21
21
21
21
21
FF
01
01
01
01
ENDCHAR
STARTCHAR 315B
ENCODING 9291
SWIDTH 1400 0
DWIDTH 14 0
BBX 11 6 1 1
BITMAP
1100
1100
1100
1100
1100
FFE0
ENDCHAR
STARTCHAR 315C
ENCODING 9292
SWIDTH 1400 0
DWIDTH 14 0
BBX 11 10 1 -2
BITMAP
FFE0
0400
0400
0400
0400
0400
0400
0400
0400
0400
ENDCHAR
STARTCHAR 315D
ENCODING 9293
SWIDTH 1400 0
DWIDTH 14 0
BBX 10 12 1 -2
BITMAP
0040
0040
0040
0040
FF40
0840
0BC0
0840
0840
0840
0840
0040
ENDCHAR
STARTCHAR 315E
ENCODING 9294
SWIDTH 1400 0
DWIDTH 14 0
BBX 10 12 1 -2
BITMAP
0140
0140
0140
0140
FF40
1140
1740
1140
1140
1140
1140
0140
ENDCHAR
STARTCHAR 315F
ENCODING 9295
SWIDTH 1400 0
DWIDTH 14 0
BBX 9 12 2 -2
BITMAP
0080
0080
0080
0180
FF80
0880
0880
0880
0880
0880
0880
0080
ENDCHAR
STARTCHAR 3160
ENCODING 9296
SWIDTH 1400 0
DWIDTH 14 0
BBX 10 10 2 -2
BITMAP
FFC0
1200
1200
1200
1200
1200
1200
1200
1200
1200
ENDCHAR
STARTCHAR 3161
ENCODING 9297
SWIDTH 1400 0
DWIDTH 14 0
BBX 11 1 1 3
BITMAP
FFE0
ENDCHAR
STARTCHAR 3162
ENCODING 9298
SWIDTH 1400 0
DWIDTH 14 0
BBX 9 12 2 -2
BITMAP
0080
0080
0080
0080
0080
0080
0380
FC80
0080
0080
0080
0080
ENDCHAR
STARTCHAR 3163
ENCODING 9299
SWIDTH 1400 0
DWIDTH 14 0
BBX 1 12 6 -2
BITMAP
80
80
80
80
80
80
80
80
80
80
80
80
ENDCHAR
STARTCHAR 3164
ENCODING 9300
SWIDTH 1400 0
DWIDTH 14 0
BBX 0 0 0 0
BITMAP
ENDCHAR
STARTCHAR 3165
ENCODING 9301
SWIDTH 1400 0
DWIDTH 14 0
BBX 10 7 2 0
BITMAP
8400
8400
8400
8400
8400
8400
E7C0
ENDCHAR
STARTCHAR 3166
ENCODING 9302
SWIDTH 1400 0
DWIDTH 14 0
BBX 10 7 2 0
BITMAP
87C0
8400
8400
8400
8400
9400
E7C0
ENDCHAR
STARTCHAR 3167
ENCODING 9303
SWIDTH 1400 0
DWIDTH 14 0
BBX 10 7 2 0
BITMAP
8100
8100
8100
8300
8280
8240
F400
ENDCHAR
STARTCHAR 3168
ENCODING 9304
SWIDTH 1400 0
DWIDTH 14 0
BBX 10 7 2 0
BITMAP
8000
8300
8300
8500
8480
9480
E7C0
ENDCHAR
STARTCHAR 3169
ENCODING 9305
SWIDTH 1400 0
DWIDTH 14 0
BBX 11 7 2 0
BITMAP
FC80
2480
2480
E480
8540
8540
F420
ENDCHAR
STARTCHAR 316A
ENCODING 9306
SWIDTH 1400 0
DWIDTH 14 0
BBX 10 7 2 0
BITMAP
F780
1400
1400
F400
8400
8C00
F7C0
ENDCHAR
STARTCHAR 316B
ENCODING 9307
SWIDTH 1400 0
DWIDTH 14 0
BBX 11 7 2 0
BITMAP
E280
3280
3280
FE80
9340
9340
FE20
ENDCHAR
STARTCHAR 316C
ENCODING 9308
SWIDTH 1400 0
DWIDTH 14 0
BBX 10 7 2 0
BITMAP
F100
1100
1300
F280
8480
8440
F7C0
ENDCHAR
STARTCHAR 316D
ENCODING 9309
SWIDTH 1400 0
DWIDTH 14 0
BBX 10 7 2 0
BITMAP
F7C0
1000
1380
F440
8440
8440
FB80
ENDCHAR
STARTCHAR 316E
ENCODING 9310
SWIDTH 1400 0
DWIDTH 14 0
BBX 10 7 2 0
BITMAP
F240
9240
9240
93C0
9240
9240
F3C0
ENDCHAR
STARTCHAR 316F
ENCODING 9311
SWIDTH 1400 0
DWIDTH 14 0
BBX 10 7 2 0
BITMAP
F100
9100
9100
9100
9280
9240
F400
ENDCHAR
STARTCHAR 3170
ENCODING 9312
SWIDTH 1400 0
DWIDTH 14 0
BBX 10 7 2 0
BITMAP
F100
9100
9300
9280
9480
9440
F7C0
ENDCHAR
STARTCHAR 3171
ENCODING 9313
SWIDTH 1400 0
DWIDTH 14 0
BBX 6 10 4 -2
BITMAP
FC
84
84
84
FC
78
84
84
84
78
ENDCHAR
STARTCHAR 3172
ENCODING 9314
SWIDTH 1400 0
DWIDTH 14 0
BBX 10 7 2 0
BITMAP
97C0
9040
9040
F040
9040
9040
F040
ENDCHAR
STARTCHAR 3173
ENCODING 9315
SWIDTH 1400 0
DWIDTH 14 0
BBX 10 7 2 0
BITMAP
9780
9400
9400
F400
9400
9400
F7C0
ENDCHAR
STARTCHAR 3174
ENCODING 9316
SWIDTH 1400 0
DWIDTH 14 0
BBX 10 7 2 0
BITMAP
A5C0
A440
A440
E440
AA40
AA40
E140
ENDCHAR
STARTCHAR 3175
ENCODING 9317
SWIDTH 1400 0
DWIDTH 14 0
BBX 10 7 2 0
BITMAP
A9C0
A900
A900
E900
B500
B500
E3C0
ENDCHAR
STARTCHAR 3176
ENCODING 9318
SWIDTH 1400 0
DWIDTH 14 0
BBX 10 7 2 0
BITMAP
97C0
9100
9100
F100
9280
9440
F440
ENDCHAR
STARTCHAR 3177
ENCODING 9319
SWIDTH 1400 0
DWIDTH 14 0
BBX 11 7 2 0
BITMAP
93E0
9200
9200
F3C0
9200
9200
F3E0
ENDCHAR
STARTCHAR 3178
ENCODING 9320
SWIDTH 1400 0
DWIDTH 14 0
BBX 6 11 4 -2
BITMAP
84
84
FC
84
84
FC
00
78
84
84
78
ENDCHAR
STARTCHAR 3179
ENCODING 9321
SWIDTH 1400 0
DWIDTH 14 0
BBX 8 11 3 -2
BITMAP
A9
A9
EF
A9
A9
EF
00
3C
42
42
3C
ENDCHAR
STARTCHAR 317A
ENCODING 9322
SWIDTH 1400 0
DWIDTH 14 0
BBX 10 7 2 0
BITMAP
27C0
2040
2040
6040
5040
8840
8040
ENDCHAR
STARTCHAR 317B
ENCODING 9323
SWIDTH 1400 0
DWIDTH 14 0
BBX 10 7 2 0
BITMAP
2400
2400
2400
2400
5400
4C00
87C0
ENDCHAR
STARTCHAR 317C
ENCODING 9324
SWIDTH 1400 0
DWIDTH 14 0
BBX 10 7 2 0
BITMAP
27C0
2400
2400
6400
5400
8C00
87C0
ENDCHAR
STARTCHAR 317D
ENCODING 9325
SWIDTH 1400 0
DWIDTH 14 0
BBX 10 7 2 0
BITMAP
2040
2440
2440
27C0
5440
4C40
87C0
ENDCHAR
STARTCHAR 317E
ENCODING 9326
SWIDTH 1400 0
DWIDTH 14 0
BBX 10 7 2 0
BITMAP
27C0
2100
2100
6100
5280
8440
8440
ENDCHAR
STARTCHAR 317F
ENCODING 9327
SWIDTH 1400 0
DWIDTH 14 0
BBX 7 6 3 0
BITMAP
18
28
64
44
82
FE
ENDCHAR
STARTCHAR 3180
ENCODING 9328
SWIDTH 1400 0
DWIDTH 14 0
BBX 10 7 2 0
BITMAP
6380
9440
9440
9440
9440
9440
6380
ENDCHAR
STARTCHAR 3181
ENCODING 9329
SWIDTH 1400 0
DWIDTH 14 0
BBX 8 9 3 -1
BITMAP
10
10
7C
C2
81
81
81
42
3C
ENDCHAR
STARTCHAR 3182
ENCODING 9330
SWIDTH 1400 0
DWIDTH 14 0
BBX 11 7 2 0
BITMAP
2100
2100
D100
9100
9280
9240
6420
ENDCHAR
STARTCHAR 3183
ENCODING 9331
SWIDTH 1400 0
DWIDTH 14 0
BBX 10 7 2 0
BITMAP
2000
2100
D300
9280
9480
9480
67C0
ENDCHAR
STARTCHAR 3184
ENCODING 9332
SWIDTH 1400 0
DWIDTH 14 0
BBX 8 11 3 -2
BITMAP
FF
00
04
44
24
FF
3C
42
42
42
3C
ENDCHAR
STARTCHAR 3185
ENCODING 9333
SWIDTH 1400 0
DWIDTH 14 0
BBX 11 9 1 -1
BITMAP
71E0
0000
FFE0
0000
31C0
4A20
4A20
4A20
31C0
ENDCHAR
STARTCHAR 3186
ENCODING 9334
SWIDTH 1400 0
DWIDTH 14 0
BBX 10 9 2 -1
BITMAP
FFC0
0000
0000
1E00
2300
2100
2100
2300
1E00
ENDCHAR
STARTCHAR 3187
ENCODING 9335
SWIDTH 1400 0
DWIDTH 14 0
BBX 10 12 2 -2
BITMAP
0100
0100
0100
2900
29C0
2900
2900
2900
FFC0
8100
0100
0100
ENDCHAR
STARTCHAR 3188
ENCODING 9336
SWIDTH 1400 0
DWIDTH 14 0
BBX 10 13 1 -3
BITMAP
0040
0140
0140
2540
25C0
2540
2540
25C0
FF40
0140
0140
0140
0040
ENDCHAR
STARTCHAR 3189
ENCODING 9337
SWIDTH 1400 0
DWIDTH 14 0
BBX 8 12 2 -2
BITMAP
01
01
01
29
29
29
29
29
FF
01
01
01
ENDCHAR
STARTCHAR 318A
ENCODING 9338
SWIDTH 1400 0
DWIDTH 14 0
BBX 9 12 2 -2
BITMAP
0080
0080
0080
0080
FE80
2880
2B80
2880
2B80
2880
2880
2880
ENDCHAR
STARTCHAR 318B
ENCODING 9339
SWIDTH 1400 0
DWIDTH 14 0
BBX 10 12 1 -2
BITMAP
0040
0140
0140
0140
0140
F940
2F40
2940
2F40
2940
2940
2940
ENDCHAR
STARTCHAR 318C
ENCODING 9340
SWIDTH 1400 0
DWIDTH 14 0
BBX 9 12 2 -2
BITMAP
0080
0080
0080
0080
0180
FF80
2480
2480
2480
2480
2480
2480
ENDCHAR
STARTCHAR 318D
ENCODING 9341
SWIDTH 1400 0
DWIDTH 14 0
BBX 2 2 6 3
BITMAP
C0
C0
ENDCHAR
STARTCHAR 318E
ENCODING 9342
SWIDTH 1400 0
DWIDTH 14 0
BBX 6 12 4 -2
BITMAP
04
04
04
04
04
C4
C4
04
04
04
04
04
ENDCHAR
STARTCHAR 2170
ENCODING 9505
SWIDTH 1400 0
DWIDTH 14 0
BBX 1 10 6 0
BITMAP
80
00
00
80
80
80
80
80
80
80
ENDCHAR
STARTCHAR 2171
ENCODING 9506
SWIDTH 1400 0
DWIDTH 14 0
BBX 5 10 4 0
BITMAP
88
00
00
48
48
48
48
48
48
48
ENDCHAR
STARTCHAR 2172
ENCODING 9507
SWIDTH 1400 0
DWIDTH 14 0
BBX 7 10 3 0
BITMAP
92
00
00
52
52
52
52
52
52
52
ENDCHAR
STARTCHAR 2173
ENCODING 9508
SWIDTH 1400 0
DWIDTH 14 0
BBX 6 10 4 0
BITMAP
80
00
00
A4
A4
A4
98
98
88
80
ENDCHAR
STARTCHAR 2174
ENCODING 9509
SWIDTH 1400 0
DWIDTH 14 0
BBX 4 6 5 1
BITMAP
10
90
A0
A0
60
40
ENDCHAR
STARTCHAR 2175
ENCODING 9510
SWIDTH 1400 0
DWIDTH 14 0
BBX 7 10 3 0
BITMAP
02
00
00
8A
92
92
52
62
22
22
ENDCHAR
STARTCHAR 2176
ENCODING 9511
SWIDTH 1400 0
DWIDTH 14 0
BBX 9 10 2 0
BITMAP
0280
0000
0000
0280
9280
5280
6280
2280
2280
2280
ENDCHAR
STARTCHAR 2177
ENCODING 9512
SWIDTH 1400 0
DWIDTH 14 0
BBX 10 10 2 0
BITMAP
0580
0000
0000
9540
A540
A540
A540
6540
4540
4540
ENDCHAR
STARTCHAR 2178
ENCODING 9513
SWIDTH 1400 0
DWIDTH 14 0
BBX 6 10 4 0
BITMAP
80
00
00
A0
A4
98
88
98
94
A4
ENDCHAR
STARTCHAR 2179
ENCODING 9514
SWIDTH 1400 0
DWIDTH 14 0
BBX 4 7 5 0
BITMAP
10
A0
60
40
60
A0
10
ENDCHAR
STARTCHAR 2160
ENCODING 9520
SWIDTH 1400 0
DWIDTH 14 0
BBX 1 10 6 0
BITMAP
80
80
80
80
80
80
80
80
80
80
ENDCHAR
STARTCHAR 2161
ENCODING 9521
SWIDTH 1400 0
DWIDTH 14 0
BBX 5 10 4 0
BITMAP
88
88
88
88
88
88
88
88
88
88
ENDCHAR
STARTCHAR 2162
ENCODING 9522
SWIDTH 1400 0
DWIDTH 14 0
BBX 8 10 3 0
BITMAP
91
91
91
91
91
91
91
91
91
91
ENDCHAR
STARTCHAR 2163
ENCODING 9523
SWIDTH 1400 0
DWIDTH 14 0
BBX 8 10 3 0
BITMAP
A1
A2
92
92
92
94
8C
8C
84
80
ENDCHAR
STARTCHAR 2164
ENCODING 9524
SWIDTH 1400 0
DWIDTH 14 0
BBX 6 9 4 1
BITMAP
84
88
88
48
50
50
30
30
20
ENDCHAR
STARTCHAR 2165
ENCODING 9525
SWIDTH 1400 0
DWIDTH 14 0
BBX 7 10 3 0
BITMAP
8A
8A
92
92
52
52
52
22
22
22
ENDCHAR
STARTCHAR 2166
ENCODING 9526
SWIDTH 1400 0
DWIDTH 14 0
BBX 9 10 2 0
BITMAP
8A80
8A80
9280
9280
5280
5280
6280
2280
2280
2280
ENDCHAR
STARTCHAR 2167
ENCODING 9527
SWIDTH 1400 0
DWIDTH 14 0
BBX 10 10 2 0
BITMAP
1540
9540
9540
A540
A540
A540
6540
6540
4540
0540
ENDCHAR
STARTCHAR 2168
ENCODING 9528
SWIDTH 1400 0
DWIDTH 14 0
BBX 7 10 3 0
BITMAP
80
92
94
8C
8C
88
8C
94
92
92
ENDCHAR
STARTCHAR 2169
ENCODING 9529
SWIDTH 1400 0
DWIDTH 14 0
BBX 5 10 4 0
BITMAP
88
48
50
30
20
20
30
50
48
08
ENDCHAR
STARTCHAR 0391
ENCODING 9537
SWIDTH 1400 0
DWIDTH 14 0
BBX 7 9 4 0
BITMAP
04
1C
14
24
44
46
7E
82
02
ENDCHAR
STARTCHAR 0392
ENCODING 9538
SWIDTH 1400 0
DWIDTH 14 0
BBX 8 10 3 0
BITMAP
1E
21
21
22
3E
44
42
42
82
FC
ENDCHAR
STARTCHAR 0393
ENCODING 9539
SWIDTH 1400 0
DWIDTH 14 0
BBX 8 10 3 0
BITMAP
1F
20
20
20
40
40
40
80
80
80
ENDCHAR
STARTCHAR 0394
ENCODING 9540
SWIDTH 1400 0
DWIDTH 14 0
BBX 7 10 3 0
BITMAP
02
06
0E
12
22
22
42
82
82
FE
ENDCHAR
STARTCHAR 0395
ENCODING 9541
SWIDTH 1400 0
DWIDTH 14 0
BBX 8 10 3 0
BITMAP
1F
20
20
40
7C
40
40
80
80
FC
ENDCHAR
STARTCHAR 0396
ENCODING 9542
SWIDTH 1400 0
DWIDTH 14 0
BBX 8 10 3 0
BITMAP
3F
02
04
04
08
10
20
40
80
FE
ENDCHAR
STARTCHAR 0397
ENCODING 9543
SWIDTH 1400 0
DWIDTH 14 0
BBX 9 10 2 -1
BITMAP
0080
2080
2080
2100
3F00
4100
4100
4200
8200
8200
ENDCHAR
STARTCHAR 0398
ENCODING 9544
SWIDTH 1400 0
DWIDTH 14 0
BBX 8 10 3 0
BITMAP
3C
62
41
81
81
BE
82
82
84
68
ENDCHAR
STARTCHAR 0399
ENCODING 9545
SWIDTH 1400 0
DWIDTH 14 0
BBX 2 9 6 1
BITMAP
40
40
40
40
80
80
80
80
80
ENDCHAR
STARTCHAR 039A
ENCODING 9546
SWIDTH 1400 0
DWIDTH 14 0
BBX 7 10 4 0
BITMAP
42
44
48
90
A0
D0
90
88
88
04
ENDCHAR
STARTCHAR 039B
ENCODING 9547
SWIDTH 1400 0
DWIDTH 14 0
BBX 7 10 3 0
BITMAP
08
08
18
24
24
44
44
44
82
82
ENDCHAR
STARTCHAR 039C
ENCODING 9548
SWIDTH 1400 0
DWIDTH 14 0
BBX 9 10 2 0
BITMAP
2080
2080
6180
6280
5280
5480
5500
9900
8900
8100
ENDCHAR
STARTCHAR 039D
ENCODING 9549
SWIDTH 1400 0
DWIDTH 14 0
BBX 8 10 3 0
BITMAP
21
22
62
52
52
52
8A
8C
84
84
ENDCHAR
STARTCHAR 039E
ENCODING 9550
SWIDTH 1400 0
DWIDTH 14 0
BBX 8 10 3 0
BITMAP
3F
00
00
00
3C
00
00
00
00
FC
ENDCHAR
STARTCHAR 039F
ENCODING 9551
SWIDTH 1400 0
DWIDTH 14 0
BBX 8 10 3 0
BITMAP
1C
62
42
81
81
82
82
82
84
78
ENDCHAR
STARTCHAR 03A0
ENCODING 9552
SWIDTH 1400 0
DWIDTH 14 0
BBX 8 10 3 0
BITMAP
7F
42
42
42
82
82
82
84
84
84
ENDCHAR
STARTCHAR 03A1
ENCODING 9553
SWIDTH 1400 0
DWIDTH 14 0
BBX 7 11 3 -1
BITMAP
3C
22
22
42
42
7C
40
40
80
80
80
ENDCHAR
STARTCHAR 03A3
ENCODING 9554
SWIDTH 1400 0
DWIDTH 14 0
BBX 8 10 3 0
BITMAP
3F
20
10
10
08
08
10
20
40
FE
ENDCHAR
STARTCHAR 03A4
ENCODING 9555
SWIDTH 1400 0
DWIDTH 14 0
BBX 6 10 4 0
BITMAP
FC
20
20
20
20
20
40
40
40
40
ENDCHAR
STARTCHAR 03A5
ENCODING 9556
SWIDTH 1400 0
DWIDTH 14 0
BBX 6 10 4 0
BITMAP
80
84
88
48
50
20
20
20
40
40
ENDCHAR
STARTCHAR 03A6
ENCODING 9557
SWIDTH 1400 0
DWIDTH 14 0
BBX 8 9 3 0
BITMAP
3E
6B
89
91
91
91
D3
7C
10
ENDCHAR
STARTCHAR 03A7
ENCODING 9558
SWIDTH 1400 0
DWIDTH 14 0
BBX 7 10 3 0
BITMAP
22
24
24
18
10
28
28
48
84
84
ENDCHAR
STARTCHAR 03A8
ENCODING 9559
SWIDTH 1400 0
DWIDTH 14 0
BBX 8 10 3 0
BITMAP
89
91
91
91
92
92
7C
20
20
20
ENDCHAR
STARTCHAR 03A9
ENCODING 9560
SWIDTH 1400 0
DWIDTH 14 0
BBX 9 10 2 0
BITMAP
0E00
3100
2080
4080
4080
4080
4100
2200
2400
E700
ENDCHAR
STARTCHAR 03B1
ENCODING 9569
SWIDTH 1400 0
DWIDTH 14 0
BBX 6 8 4 0
BITMAP
34
4C
88
88
88
88
98
60
ENDCHAR
STARTCHAR 03B2
ENCODING 9570
SWIDTH 1400 0
DWIDTH 14 0
BBX 6 12 4 -2
BITMAP
1C
64
44
48
70
88
84
84
48
B8
80
80
ENDCHAR
STARTCHAR 03B3
ENCODING 9571
SWIDTH 1400 0
DWIDTH 14 0
BBX 6 10 4 -2
BITMAP
84
C8
48
50
50
50
60
60
60
40
ENDCHAR
STARTCHAR 03B4
ENCODING 9572
SWIDTH 1400 0
DWIDTH 14 0
BBX 6 11 4 0
BITMAP
7C
20
10
30
48
88
88
88
88
90
60
ENDCHAR
STARTCHAR 03B5
ENCODING 9573
SWIDTH 1400 0
DWIDTH 14 0
BBX 6 8 4 0
BITMAP
38
44
44
30
C0
80
88
70
ENDCHAR
STARTCHAR 03B6
ENCODING 9574
SWIDTH 1400 0
DWIDTH 14 0
BBX 6 13 4 -2
BITMAP
7C
08
08
10
20
40
80
80
80
40
30
08
30
ENDCHAR
STARTCHAR 03B7
ENCODING 9575
SWIDTH 1400 0
DWIDTH 14 0
BBX 5 9 4 -1
BITMAP
D8
68
48
88
88
88
88
88
10
ENDCHAR
STARTCHAR 03B8
ENCODING 9576
SWIDTH 1400 0
DWIDTH 14 0
BBX 6 11 4 0
BITMAP
38
44
44
84
84
FC
88
88
88
90
70
ENDCHAR
STARTCHAR 03B9
ENCODING 9577
SWIDTH 1400 0
DWIDTH 14 0
BBX 2 8 6 0
BITMAP
40
80
80
80
80
80
80
C0
ENDCHAR
STARTCHAR 03BA
ENCODING 9578
SWIDTH 1400 0
DWIDTH 14 0
BBX 6 8 4 0
BITMAP
44
58
60
60
50
90
90
88
ENDCHAR
STARTCHAR 03BB
ENCODING 9579
SWIDTH 1400 0
DWIDTH 14 0
BBX 7 10 4 0
BITMAP
30
18
18
18
28
28
48
4C
8C
86
ENDCHAR
STARTCHAR 03BC
ENCODING 9580
SWIDTH 1400 0
DWIDTH 14 0
BBX 6 10 4 -2
BITMAP
44
44
48
48
88
88
98
EC
80
80
ENDCHAR
STARTCHAR 03BD
ENCODING 9581
SWIDTH 1400 0
DWIDTH 14 0
BBX 5 8 5 0
BITMAP
88
90
90
A0
A0
A0
C0
C0
ENDCHAR
STARTCHAR 03BE
ENCODING 9582
SWIDTH 1400 0
DWIDTH 14 0
BBX 6 13 4 -2
BITMAP
7C
20
40
40
20
30
C0
80
80
E0
10
10
70
ENDCHAR
STARTCHAR 03BF
ENCODING 9583
SWIDTH 1400 0
DWIDTH 14 0
BBX 6 8 4 0
BITMAP
30
48
88
84
88
88
88
70
ENDCHAR
STARTCHAR 03C0
ENCODING 9584
SWIDTH 1400 0
DWIDTH 14 0
BBX 6 8 4 0
BITMAP
FC
48
88
88
88
88
90
80
ENDCHAR
STARTCHAR 03C1
ENCODING 9585
SWIDTH 1400 0
DWIDTH 14 0
BBX 6 10 4 -2
BITMAP
10
2C
44
44
44
84
C8
B0
80
80
ENDCHAR
STARTCHAR 03C3
ENCODING 9586
SWIDTH 1400 0
DWIDTH 14 0
BBX 7 8 4 0
BITMAP
3E
48
88
84
88
88
88
70
ENDCHAR
STARTCHAR 03C4
ENCODING 9587
SWIDTH 1400 0
DWIDTH 14 0
BBX 4 8 5 0
BITMAP
F0
40
40
40
40
40
40
60
ENDCHAR
STARTCHAR 03C5
ENCODING 9588
SWIDTH 1400 0
DWIDTH 14 0
BBX 5 8 4 0
BITMAP
40
48
88
88
88
88
90
70
ENDCHAR
STARTCHAR 03C6
ENCODING 9589
SWIDTH 1400 0
DWIDTH 14 0
BBX 7 10 4 -2
BITMAP
24
5A
92
92
92
92
A4
78
20
20
ENDCHAR
STARTCHAR 03C7
ENCODING 9590
SWIDTH 1400 0
DWIDTH 14 0
BBX 6 10 4 -2
BITMAP
C4
48
30
30
20
20
50
50
90
88
ENDCHAR
STARTCHAR 03C8
ENCODING 9591
SWIDTH 1400 0
DWIDTH 14 0
BBX 8 9 3 -1
BITMAP
09
49
92
92
92
92
92
7C
20
ENDCHAR
STARTCHAR 03C9
ENCODING 9592
SWIDTH 1400 0
DWIDTH 14 0
BBX 7 8 3 0
BITMAP
14
62
42
82
92
92
B2
6C
ENDCHAR
STARTCHAR 2500
ENCODING 9761
SWIDTH 1400 0
DWIDTH 14 0
BBX 13 1 0 4
BITMAP
FFF8
ENDCHAR
STARTCHAR 2502
ENCODING 9762
SWIDTH 1400 0
DWIDTH 14 0
BBX 1 14 6 -3
BITMAP
80
80
80
80
80
80
80
80
80
80
80
80
80
80
ENDCHAR
STARTCHAR 250C
ENCODING 9763
SWIDTH 1400 0
DWIDTH 14 0
BBX 7 8 6 -3
BITMAP
FE
80
80
80
80
80
80
80
ENDCHAR
STARTCHAR 2510
ENCODING 9764
SWIDTH 1400 0
DWIDTH 14 0
BBX 8 8 0 -3
BITMAP
FF
01
01
01
01
01
01
01
ENDCHAR
STARTCHAR 2518
ENCODING 9765
SWIDTH 1400 0
DWIDTH 14 0
BBX 8 7 0 4
BITMAP
01
01
01
01
01
01
FF
ENDCHAR
STARTCHAR 2514
ENCODING 9766
SWIDTH 1400 0
DWIDTH 14 0
BBX 7 7 6 4
BITMAP
80
80
80
80
80
80
FE
ENDCHAR
STARTCHAR 251C
ENCODING 9767
SWIDTH 1400 0
DWIDTH 14 0
BBX 7 14 6 -3
BITMAP
80
80
80
80
80
80
FE
80
80
80
80
80
80
80
ENDCHAR
STARTCHAR 252C
ENCODING 9768
SWIDTH 1400 0
DWIDTH 14 0
BBX 13 8 0 -3
BITMAP
FFF8
0200
0200
0200
0200
0200
0200
0200
ENDCHAR
STARTCHAR 2524
ENCODING 9769
SWIDTH 1400 0
DWIDTH 14 0
BBX 8 14 0 -3
BITMAP
01
01
01
01
01
01
FF
01
01
01
01
01
01
01
ENDCHAR
STARTCHAR 2534
ENCODING 9770
SWIDTH 1400 0
DWIDTH 14 0
BBX 13 7 0 4
BITMAP
0200
0200
0200
0200
0200
0200
FFF8
ENDCHAR
STARTCHAR 253C
ENCODING 9771
SWIDTH 1400 0
DWIDTH 14 0
BBX 13 14 0 -3
BITMAP
0200
0200
0200
0200
0200
0200
FFF8
0200
0200
0200
0200
0200
0200
0200
ENDCHAR
STARTCHAR 2501
ENCODING 9772
SWIDTH 1400 0
DWIDTH 14 0
BBX 13 1 0 4
BITMAP
FFF8
ENDCHAR
STARTCHAR 2503
ENCODING 9773
SWIDTH 1400 0
DWIDTH 14 0
BBX 1 14 6 -3
BITMAP
80
80
80
80
80
80
80
80
80
80
80
80
80
80
ENDCHAR
STARTCHAR 250F
ENCODING 9774
SWIDTH 1400 0
DWIDTH 14 0
BBX 7 8 6 -3
BITMAP
FE
80
80
80
80
80
80
80
ENDCHAR
STARTCHAR 2513
ENCODING 9775
SWIDTH 1400 0
DWIDTH 14 0
BBX 7 8 0 -3
BITMAP
FE
02
02
02
02
02
02
02
ENDCHAR
STARTCHAR 251B
ENCODING 9776
SWIDTH 1400 0
DWIDTH 14 0
BBX 7 7 0 4
BITMAP
02
02
02
02
02
02
FE
ENDCHAR
STARTCHAR 2517
ENCODING 9777
SWIDTH 1400 0
DWIDTH 14 0
BBX 7 7 6 4
BITMAP
80
80
80
80
80
80
FE
ENDCHAR
STARTCHAR 2523
ENCODING 9778
SWIDTH 1400 0
DWIDTH 14 0
BBX 7 14 6 -3
BITMAP
80
80
80
80
80
80
FE
80
80
80
80
80
80
80
ENDCHAR
STARTCHAR 2533
ENCODING 9779
SWIDTH 1400 0
DWIDTH 14 0
BBX 13 8 0 -3
BITMAP
FFF8
0200
0200
0200
0200
0200
0200
0200
ENDCHAR
STARTCHAR 252B
ENCODING 9780
SWIDTH 1400 0
DWIDTH 14 0
BBX 7 14 0 -3
BITMAP
02
02
02
02
02
02
FE
02
02
02
02
02
02
02
ENDCHAR
STARTCHAR 253B
ENCODING 9781
SWIDTH 1400 0
DWIDTH 14 0
BBX 13 7 0 4
BITMAP
0200
0200
0200
0200
0200
0200
FFF8
ENDCHAR
STARTCHAR 254B
ENCODING 9782
SWIDTH 1400 0
DWIDTH 14 0
BBX 13 14 0 -3
BITMAP
0200
0200
0200
0200
0200
0200
FFF8
0200
0200
0200
0200
0200
0200
0200
ENDCHAR
STARTCHAR 2520
ENCODING 9783
SWIDTH 1400 0
DWIDTH 14 0
BBX 7 14 6 -3
BITMAP
80
80
80
80
80
80
FE
80
80
80
80
80
80
80
ENDCHAR
STARTCHAR 252F
ENCODING 9784
SWIDTH 1400 0
DWIDTH 14 0
BBX 13 8 0 -3
BITMAP
FFF8
0200
0200
0200
0200
0200
0200
0200
ENDCHAR
STARTCHAR 2528
ENCODING 9785
SWIDTH 1400 0
DWIDTH 14 0
BBX 7 14 0 -3
BITMAP
02
02
02
02
02
02
FE
02
02
02
02
02
02
02
ENDCHAR
STARTCHAR 2537
ENCODING 9786
SWIDTH 1400 0
DWIDTH 14 0
BBX 13 7 0 4
BITMAP
0200
0200
0200
0200
0200
0200
FFF8
ENDCHAR
STARTCHAR 253F
ENCODING 9787
SWIDTH 1400 0
DWIDTH 14 0
BBX 13 14 0 -3
BITMAP
0200
0200
0200
0200
0200
0200
FFF8
0200
0200
0200
0200
0200
0200
0200
ENDCHAR
STARTCHAR 251D
ENCODING 9788
SWIDTH 1400 0
DWIDTH 14 0
BBX 7 14 6 -3
BITMAP
80
80
80
80
80
80
FE
80
80
80
80
80
80
80
ENDCHAR
STARTCHAR 2530
ENCODING 9789
SWIDTH 1400 0
DWIDTH 14 0
BBX 13 8 0 -3
BITMAP
FFF8
0200
0200
0200
0200
0200
0200
0200
ENDCHAR
STARTCHAR 2525
ENCODING 9790
SWIDTH 1400 0
DWIDTH 14 0
BBX 7 14 0 -3
BITMAP
02
02
02
02
02
02
FE
02
02
02
02
02
02
02
ENDCHAR
STARTCHAR 2538
ENCODING 9791
SWIDTH 1400 0
DWIDTH 14 0
BBX 13 7 0 4
BITMAP
0200
0200
0200
0200
0200
0200
FFF8
ENDCHAR
STARTCHAR 2542
ENCODING 9792
SWIDTH 1400 0
DWIDTH 14 0
BBX 13 14 0 -3
BITMAP
0200
0200
0200
0200
0200
0200
FFF8
0200
0200
0200
0200
0200
0200
0200
ENDCHAR
STARTCHAR 2512
ENCODING 9793
SWIDTH 1400 0
DWIDTH 14 0
BBX 7 8 0 -3
BITMAP
FE
02
02
02
02
02
02
02
ENDCHAR
STARTCHAR 2511
ENCODING 9794
SWIDTH 1400 0
DWIDTH 14 0
BBX 7 8 0 -3
BITMAP
FE
02
02
02
02
02
02
02
ENDCHAR
STARTCHAR 251A
ENCODING 9795
SWIDTH 1400 0
DWIDTH 14 0
BBX 7 7 0 4
BITMAP
02
02
02
02
02
02
FE
ENDCHAR
STARTCHAR 2519
ENCODING 9796
SWIDTH 1400 0
DWIDTH 14 0
BBX 7 7 0 4
BITMAP
02
02
02
02
02
02
FE
ENDCHAR
STARTCHAR 2516
ENCODING 9797
SWIDTH 1400 0
DWIDTH 14 0
BBX 7 7 6 4
BITMAP
80
80
80
80
80
80
FE
ENDCHAR
STARTCHAR 2515
ENCODING 9798
SWIDTH 1400 0
DWIDTH 14 0
BBX 7 7 6 4
BITMAP
80
80
80
80
80
80
FE
ENDCHAR
STARTCHAR 250E
ENCODING 9799
SWIDTH 1400 0
DWIDTH 14 0
BBX 7 8 6 -3
BITMAP
FE
80
80
80
80
80
80
80
ENDCHAR
STARTCHAR 250D
ENCODING 9800
SWIDTH 1400 0
DWIDTH 14 0
BBX 7 8 6 -3
BITMAP
FE
80
80
80
80
80
80
80
ENDCHAR
STARTCHAR 251E
ENCODING 9801
SWIDTH 1400 0
DWIDTH 14 0
BBX 7 14 6 -3
BITMAP
80
80
80
80
80
80
FE
80
80
80
80
80
80
80
ENDCHAR
STARTCHAR 251F
ENCODING 9802
SWIDTH 1400 0
DWIDTH 14 0
BBX 7 14 6 -3
BITMAP
80
80
80
80
80
80
FE
80
80
80
80
80
80
80
ENDCHAR
STARTCHAR 2521
ENCODING 9803
SWIDTH 1400 0
DWIDTH 14 0
BBX 7 14 6 -3
BITMAP
80
80
80
80
80
80
FE
80
80
80
80
80
80
80
ENDCHAR
STARTCHAR 2522
ENCODING 9804
SWIDTH 1400 0
DWIDTH 14 0
BBX 7 14 6 -3
BITMAP
80
80
80
80
80
80
FE
80
80
80
80
80
80
80
ENDCHAR
STARTCHAR 2526
ENCODING 9805
SWIDTH 1400 0
DWIDTH 14 0
BBX 7 14 0 -3
BITMAP
02
02
02
02
02
02
FE
02
02
02
02
02
02
02
ENDCHAR
STARTCHAR 2527
ENCODING 9806
SWIDTH 1400 0
DWIDTH 14 0
BBX 7 14 0 -3
BITMAP
02
02
02
02
02
02
FE
02
02
02
02
02
02
02
ENDCHAR
STARTCHAR 2529
ENCODING 9807
SWIDTH 1400 0
DWIDTH 14 0
BBX 7 14 0 -3
BITMAP
02
02
02
02
02
02
FE
02
02
02
02
02
02
02
ENDCHAR
STARTCHAR 252A
ENCODING 9808
SWIDTH 1400 0
DWIDTH 14 0
BBX 7 14 0 -3
BITMAP
02
02
02
02
02
02
FE
02
02
02
02
02
02
02
ENDCHAR
STARTCHAR 252D
ENCODING 9809
SWIDTH 1400 0
DWIDTH 14 0
BBX 13 8 0 -3
BITMAP
FFF8
0200
0200
0200
0200
0200
0200
0200
ENDCHAR
STARTCHAR 252E
ENCODING 9810
SWIDTH 1400 0
DWIDTH 14 0
BBX 13 8 0 -3
BITMAP
FFF8
0200
0200
0200
0200
0200
0200
0200
ENDCHAR
STARTCHAR 2531
ENCODING 9811
SWIDTH 1400 0
DWIDTH 14 0
BBX 13 8 0 -3
BITMAP
FFF8
0200
0200
0200
0200
0200
0200
0200
ENDCHAR
STARTCHAR 2532
ENCODING 9812
SWIDTH 1400 0
DWIDTH 14 0
BBX 13 8 0 -3
BITMAP
FFF8
0200
0200
0200
0200
0200
0200
0200
ENDCHAR
STARTCHAR 2535
ENCODING 9813
SWIDTH 1400 0
DWIDTH 14 0
BBX 13 7 0 4
BITMAP
0200
0200
0200
0200
0200
0200
FFF8
ENDCHAR
STARTCHAR 2536
ENCODING 9814
SWIDTH 1400 0
DWIDTH 14 0
BBX 13 7 0 4
BITMAP
0200
0200
0200
0200
0200
0200
FFF8
ENDCHAR
STARTCHAR 2539
ENCODING 9815
SWIDTH 1400 0
DWIDTH 14 0
BBX 13 7 0 4
BITMAP
0200
0200
0200
0200
0200
0200
FFF8
ENDCHAR
STARTCHAR 253A
ENCODING 9816
SWIDTH 1400 0
DWIDTH 14 0
BBX 13 7 0 4
BITMAP
0200
0200
0200
0200
0200
0200
FFF8
ENDCHAR
STARTCHAR 253D
ENCODING 9817
SWIDTH 1400 0
DWIDTH 14 0
BBX 13 14 0 -3
BITMAP
0200
0200
0200
0200
0200
0200
FFF8
0200
0200
0200
0200
0200
0200
0200
ENDCHAR
STARTCHAR 253E
ENCODING 9818
SWIDTH 1400 0
DWIDTH 14 0
BBX 13 14 0 -3
BITMAP
0200
0200
0200
0200
0200
0200
FFF8
0200
0200
0200
0200
0200
0200
0200
ENDCHAR
STARTCHAR 2540
ENCODING 9819
SWIDTH 1400 0
DWIDTH 14 0
BBX 13 14 0 -3
BITMAP
0200
0200
0200
0200
0200
0200
FFF8
0200
0200
0200
0200
0200
0200
0200
ENDCHAR
STARTCHAR 2541
ENCODING 9820
SWIDTH 1400 0
DWIDTH 14 0
BBX 13 14 0 -3
BITMAP
0200
0200
0200
0200
0200
0200
FFF8
0200
0200
0200
0200
0200
0200
0200
ENDCHAR
STARTCHAR 2543
ENCODING 9821
SWIDTH 1400 0
DWIDTH 14 0
BBX 13 14 0 -3
BITMAP
0200
0200
0200
0200
0200
0200
FFF8
0200
0200
0200
0200
0200
0200
0200
ENDCHAR
STARTCHAR 2544
ENCODING 9822
SWIDTH 1400 0
DWIDTH 14 0
BBX 13 14 0 -3
BITMAP
0200
0200
0200
0200
0200
0200
FFF8
0200
0200
0200
0200
0200
0200
0200
ENDCHAR
STARTCHAR 2545
ENCODING 9823
SWIDTH 1400 0
DWIDTH 14 0
BBX 13 14 0 -3
BITMAP
0200
0200
0200
0200
0200
0200
FFF8
0200
0200
0200
0200
0200
0200
0200
ENDCHAR
STARTCHAR 2546
ENCODING 9824
SWIDTH 1400 0
DWIDTH 14 0
BBX 13 14 0 -3
BITMAP
0200
0200
0200
0200
0200
0200
FFF8
0200
0200
0200
0200
0200
0200
0200
ENDCHAR
STARTCHAR 2547
ENCODING 9825
SWIDTH 1400 0
DWIDTH 14 0
BBX 13 14 0 -3
BITMAP
0200
0200
0200
0200
0200
0200
FFF8
0200
0200
0200
0200
0200
0200
0200
ENDCHAR
STARTCHAR 2548
ENCODING 9826
SWIDTH 1400 0
DWIDTH 14 0
BBX 13 14 0 -3
BITMAP
0200
0200
0200
0200
0200
0200
FFF8
0200
0200
0200
0200
0200
0200
0200
ENDCHAR
STARTCHAR 2549
ENCODING 9827
SWIDTH 1400 0
DWIDTH 14 0
BBX 13 14 0 -3
BITMAP
0200
0200
0200
0200
0200
0200
FFF8
0200
0200
0200
0200
0200
0200
0200
ENDCHAR
STARTCHAR 254A
ENCODING 9828
SWIDTH 1400 0
DWIDTH 14 0
BBX 13 14 0 -3
BITMAP
0200
0200
0200
0200
0200
0200
FFF8
0200
0200
0200
0200
0200
0200
0200
ENDCHAR
STARTCHAR 3395
ENCODING 10017
SWIDTH 1400 0
DWIDTH 14 0
BBX 12 11 1 -1
BITMAP
0060
12A0
22A0
2520
2520
4540
4940
4990
4B10
B8E0
8000
ENDCHAR
STARTCHAR 3396
ENCODING 10018
SWIDTH 1400 0
DWIDTH 14 0
BBX 10 10 2 0
BITMAP
01C0
0140
F940
AA40
AA40
AA80
AB00
AA00
AE40
A9C0
ENDCHAR
STARTCHAR 3397
ENCODING 10019
SWIDTH 1400 0
DWIDTH 14 0
BBX 10 10 2 0
BITMAP
09C0
0A40
7A40
8A40
8C40
0C80
8D00
8A00
9E40
79C0
ENDCHAR
STARTCHAR 2113
ENCODING 10020
SWIDTH 1400 0
DWIDTH 14 0
BBX 5 10 4 0
BITMAP
38
28
68
48
50
50
60
40
C8
30
ENDCHAR
STARTCHAR 3398
ENCODING 10021
SWIDTH 1400 0
DWIDTH 14 0
BBX 10 10 2 0
BITMAP
8180
8280
8A80
9480
A480
C500
C500
A640
9C40
8380
ENDCHAR
STARTCHAR 33C4
ENCODING 10022
SWIDTH 1400 0
DWIDTH 14 0
BBX 10 9 2 0
BITMAP
7380
4A40
8C40
8400
8400
8400
8C40
4A40
7380
ENDCHAR
STARTCHAR 33A3
ENCODING 10023
SWIDTH 1400 0
DWIDTH 14 0
BBX 11 10 1 0
BITMAP
0020
0020
D6E0
B580
B580
B580
B580
B580
B580
B580
ENDCHAR
STARTCHAR 33A4
ENCODING 10024
SWIDTH 1400 0
DWIDTH 14 0
BBX 12 10 1 0
BITMAP
0030
0020
6790
9680
9680
8680
8680
9680
9680
6680
ENDCHAR
STARTCHAR 33A5
ENCODING 10025
SWIDTH 1400 0
DWIDTH 14 0
BBX 12 10 1 0
BITMAP
0010
0020
B310
CC80
8880
8880
8880
8880
8880
8880
ENDCHAR
STARTCHAR 33A6
ENCODING 10026
SWIDTH 1400 0
DWIDTH 14 0
BBX 12 10 1 0
BITMAP
8010
8020
9790
A580
A580
C580
C580
A580
A580
9580
ENDCHAR
STARTCHAR 3399
ENCODING 10027
SWIDTH 1400 0
DWIDTH 14 0
BBX 11 11 1 0
BITMAP
1800
2000
2000
FBE0
22A0
22A0
22A0
22A0
22A0
22A0
22A0
ENDCHAR
STARTCHAR 339A
ENCODING 10028
SWIDTH 1400 0
DWIDTH 14 0
BBX 11 8 1 0
BITMAP
FB60
8AA0
8AA0
8AA0
8AA0
8AA0
8AA0
8AA0
ENDCHAR
STARTCHAR 339B
ENCODING 10029
SWIDTH 1400 0
DWIDTH 14 0
BBX 12 9 1 -1
BITMAP
05F0
2550
2550
2950
4950
4950
4950
B950
8000
ENDCHAR
STARTCHAR 339C
ENCODING 10030
SWIDTH 1400 0
DWIDTH 14 0
BBX 10 8 2 0
BITMAP
FFC0
AD40
AD40
AD40
AD40
AD40
AD40
AD40
ENDCHAR
STARTCHAR 339D
ENCODING 10031
SWIDTH 1400 0
DWIDTH 14 0
BBX 10 8 2 0
BITMAP
66C0
9540
9540
8540
9540
9540
9540
6540
ENDCHAR
STARTCHAR 339E
ENCODING 10032
SWIDTH 1400 0
DWIDTH 14 0
BBX 10 11 2 -1
BITMAP
8000
8000
9E80
A940
C940
C940
C940
A940
A940
9940
8000
ENDCHAR
STARTCHAR 339F
ENCODING 10033
SWIDTH 1400 0
DWIDTH 14 0
BBX 12 11 1 0
BITMAP
0020
0020
0020
E7B0
B580
B580
B580
B580
B580
B580
B100
ENDCHAR
STARTCHAR 33A0
ENCODING 10034
SWIDTH 1400 0
DWIDTH 14 0
BBX 12 11 1 0
BITMAP
0030
0010
0020
67F0
9540
9540
8540
8540
9540
9540
6540
ENDCHAR
STARTCHAR 33A1
ENCODING 10035
SWIDTH 1400 0
DWIDTH 14 0
BBX 12 11 1 0
BITMAP
0020
0020
0020
B330
CC80
8880
8880
8880
8880
8880
8880
ENDCHAR
STARTCHAR 33A2
ENCODING 10036
SWIDTH 1400 0
DWIDTH 14 0
BBX 12 11 1 0
BITMAP
0030
8010
8020
97F0
A540
A540
C540
C540
A540
A540
9540
ENDCHAR
STARTCHAR 33CA
ENCODING 10037
SWIDTH 1400 0
DWIDTH 14 0
BBX 10 11 2 -1
BITMAP
8000
8000
8380
F240
8840
89C0
8E40
8C40
8C40
8BC0
0800
ENDCHAR
STARTCHAR 338D
ENCODING 10038
SWIDTH 1400 0
DWIDTH 14 0
BBX 12 9 1 -1
BITMAP
2420
27E0
2A20
49E0
4A00
4BE0
5210
A1E0
8000
ENDCHAR
STARTCHAR 338E
ENCODING 10039
SWIDTH 1400 0
DWIDTH 14 0
BBX 11 8 1 0
BITMAP
A9E0
FA20
AA20
A9C0
A980
AA60
AA20
A9E0
ENDCHAR
STARTCHAR 338F
ENCODING 10040
SWIDTH 1400 0
DWIDTH 14 0
BBX 10 11 2 -1
BITMAP
8000
8000
9040
A780
C440
C380
C400
A7C0
A440
9780
8000
ENDCHAR
STARTCHAR 33CF
ENCODING 10041
SWIDTH 1400 0
DWIDTH 14 0
BBX 10 10 2 0
BITMAP
8200
8200
8200
97C0
A200
C200
C200
A200
9240
9180
ENDCHAR
STARTCHAR 3388
ENCODING 10042
SWIDTH 1400 0
DWIDTH 14 0
BBX 12 11 1 -1
BITMAP
0010
0010
6310
9490
9090
8390
8490
9890
9890
6590
0200
ENDCHAR
STARTCHAR 3389
ENCODING 10043
SWIDTH 1400 0
DWIDTH 14 0
BBX 10 10 2 0
BITMAP
8040
8040
BB40
D4C0
E4C0
A1C0
E2C0
E4C0
A4C0
BBC0
ENDCHAR
STARTCHAR 33C8
ENCODING 10044
SWIDTH 1400 0
DWIDTH 14 0
BBX 12 11 1 0
BITMAP
0BC0
0A20
0A20
7A20
CA40
8BC0
8A20
8A10
8A10
8A10
73E0
ENDCHAR
STARTCHAR 33A7
ENCODING 10045
SWIDTH 1400 0
DWIDTH 14 0
BBX 12 11 1 -1
BITMAP
FC20
9440
9480
9500
0200
0400
09C0
1120
21C0
4130
00E0
ENDCHAR
STARTCHAR 33A8
ENCODING 10046
SWIDTH 1400 0
DWIDTH 14 0
BBX 11 11 1 -1
BITMAP
FC20
9440
9480
9520
0220
0440
0B20
1480
2300
44C0
0380
ENDCHAR
STARTCHAR 33B0
ENCODING 10047
SWIDTH 1400 0
DWIDTH 14 0
BBX 10 10 2 -2
BITMAP
F380
D440
8C00
8B00
88C0
8C40
DC40
F3C0
8000
8000
ENDCHAR
STARTCHAR 33B1
ENCODING 10048
SWIDTH 1400 0
DWIDTH 14 0
BBX 11 8 1 0
BITMAP
B9C0
CA20
8A00
8980
8860
8A20
8A20
89E0
ENDCHAR
STARTCHAR 33B2
ENCODING 10049
SWIDTH 1400 0
DWIDTH 14 0
BBX 12 9 1 -1
BITMAP
24E0
2520
4500
4880
4860
4810
4910
B8E0
8000
ENDCHAR
STARTCHAR 33B3
ENCODING 10050
SWIDTH 1400 0
DWIDTH 14 0
BBX 11 8 1 0
BITMAP
F9C0
A920
AA00
A980
A860
A820
A920
A9E0
ENDCHAR
STARTCHAR 33B4
ENCODING 10051
SWIDTH 1400 0
DWIDTH 14 0
BBX 10 12 2 -2
BITMAP
0400
0440
0440
F440
8A80
8A80
8A80
8A80
D980
F100
8000
8000
ENDCHAR
STARTCHAR 33B5
ENCODING 10052
SWIDTH 1400 0
DWIDTH 14 0
BBX 10 10 2 0
BITMAP
0400
0440
FC40
8C40
8A80
8A80
8A80
8A80
8980
8900
ENDCHAR
STARTCHAR 33B6
ENCODING 10053
SWIDTH 1400 0
DWIDTH 14 0
BBX 12 11 1 -1
BITMAP
0210
0220
2520
2520
2520
4940
4940
48C0
50C0
A8C0
8000
ENDCHAR
STARTCHAR 33B7
ENCODING 10054
SWIDTH 1400 0
DWIDTH 14 0
BBX 11 10 1 0
BITMAP
0200
0220
EE20
9520
9540
9540
9540
9540
94C0
9480
ENDCHAR
STARTCHAR 33B8
ENCODING 10055
SWIDTH 1400 0
DWIDTH 14 0
BBX 11 11 1 0
BITMAP
8000
8200
8220
8A20
8920
9140
A140
A140
9140
88C0
8480
ENDCHAR
STARTCHAR 33B9
ENCODING 10056
SWIDTH 1400 0
DWIDTH 14 0
BBX 11 11 1 0
BITMAP
0200
CE20
CE20
CE20
D520
D520
D540
B540
B540
B4C0
A4C0
ENDCHAR
STARTCHAR 3380
ENCODING 10057
SWIDTH 1400 0
DWIDTH 14 0
BBX 10 13 2 -2
BITMAP
0100
0180
0280
0280
F280
8A80
8A40
8BC0
8C40
DC40
B400
8000
8000
ENDCHAR
STARTCHAR 3381
ENCODING 10058
SWIDTH 1400 0
DWIDTH 14 0
BBX 10 10 2 0
BITMAP
0100
0280
F280
9280
9280
9280
93C0
9440
9440
9400
ENDCHAR
STARTCHAR 3382
ENCODING 10059
SWIDTH 1400 0
DWIDTH 14 0
BBX 12 11 1 -1
BITMAP
00C0
00C0
22C0
2540
2520
4520
45E0
4920
4A20
BA10
8000
ENDCHAR
STARTCHAR 3383
ENCODING 10060
SWIDTH 1400 0
DWIDTH 14 0
BBX 11 11 1 0
BITMAP
0080
00C0
0140
F940
A940
A940
A920
A9E0
AA20
AA20
AA00
ENDCHAR
STARTCHAR 3384
ENCODING 10061
SWIDTH 1400 0
DWIDTH 14 0
BBX 10 11 2 0
BITMAP
0100
8100
8280
9280
A280
C280
C280
C3C0
A440
A440
9400
ENDCHAR
STARTCHAR 33BA
ENCODING 10062
SWIDTH 1400 0
DWIDTH 14 0
BBX 10 12 2 -2
BITMAP
0D40
0D40
07C0
E7C0
96C0
96C0
96C0
9640
9640
E440
8000
8000
ENDCHAR
STARTCHAR 33BB
ENCODING 10063
SWIDTH 1400 0
DWIDTH 14 0
BBX 10 10 2 0
BITMAP
0D40
0D40
FF40
97C0
96C0
96C0
96C0
96C0
9640
9440
ENDCHAR
STARTCHAR 33BC
ENCODING 10064
SWIDTH 1400 0
DWIDTH 14 0
BBX 11 11 1 -1
BITMAP
0660
0660
02E0
4AE0
4AA0
4AA0
4AA0
8B60
5320
AB00
8000
ENDCHAR
STARTCHAR 33BD
ENCODING 10065
SWIDTH 1400 0
DWIDTH 14 0
BBX 10 10 2 0
BITMAP
0D40
0D40
D740
F740
D740
D740
D6C0
D640
D640
D440
ENDCHAR
STARTCHAR 33BE
ENCODING 10066
SWIDTH 1400 0
DWIDTH 14 0
BBX 10 10 2 0
BITMAP
9240
9240
9B40
AB40
CB40
CB40
CF80
A780
A580
9480
ENDCHAR
STARTCHAR 33BF
ENCODING 10067
SWIDTH 1400 0
DWIDTH 14 0
BBX 11 10 1 0
BITMAP
CCE0
CCE0
CEE0
CEE0
CEE0
CEE0
B7C0
95C0
95C0
95C0
ENDCHAR
STARTCHAR 3390
ENCODING 10068
SWIDTH 1400 0
DWIDTH 14 0
BBX 11 11 1 0
BITMAP
8400
8400
8400
87E0
8440
FC40
8480
8480
8500
8600
87E0
ENDCHAR
STARTCHAR 3391
ENCODING 10069
SWIDTH 1400 0
DWIDTH 14 0
BBX 12 11 1 0
BITMAP
8900
8900
8900
99F0
A920
CF20
C940
C940
A980
A980
99E0
ENDCHAR
STARTCHAR 3392
ENCODING 10070
SWIDTH 1400 0
DWIDTH 14 0
BBX 12 11 1 0
BITMAP
8500
8D00
9D00
9D60
DD20
DF20
DD40
DD40
ED40
ED80
AD70
ENDCHAR
STARTCHAR 3393
ENCODING 10071
SWIDTH 1400 0
DWIDTH 14 0
BBX 12 12 1 -1
BITMAP
6500
5500
9500
8570
8520
8720
B520
9540
9540
9540
5570
2000
ENDCHAR
STARTCHAR 3394
ENCODING 10072
SWIDTH 1400 0
DWIDTH 14 0
BBX 12 11 1 0
BITMAP
FD00
2500
2500
2570
2520
2720
2540
2540
2540
2580
2560
ENDCHAR
STARTCHAR 2126
ENCODING 10073
SWIDTH 1400 0
DWIDTH 14 0
BBX 9 10 2 0
BITMAP
1E00
2100
4080
4080
4080
4100
2300
1400
1400
F780
ENDCHAR
STARTCHAR 33C0
ENCODING 10074
SWIDTH 1400 0
DWIDTH 14 0
BBX 12 12 1 -1
BITMAP
01C0
8220
8630
8C10
9410
A410
A420
A220
A140
9140
8F70
8000
ENDCHAR
STARTCHAR 33C1
ENCODING 10075
SWIDTH 1400 0
DWIDTH 14 0
BBX 12 11 1 0
BITMAP
0180
CA40
DC20
DC20
DC20
DC20
DA20
BA40
9940
9940
9F70
ENDCHAR
STARTCHAR 338A
ENCODING 10076
SWIDTH 1400 0
DWIDTH 14 0
BBX 11 13 1 -2
BITMAP
03E0
0200
0200
0200
FBE0
8600
8600
8600
8600
CA00
BA00
8000
8000
ENDCHAR
STARTCHAR 338B
ENCODING 10077
SWIDTH 1400 0
DWIDTH 14 0
BBX 11 11 1 0
BITMAP
03E0
0200
0200
BE00
C7E0
8600
8600
8600
8600
8600
8600
ENDCHAR
STARTCHAR 338C
ENCODING 10078
SWIDTH 1400 0
DWIDTH 14 0
BBX 12 12 1 -1
BITMAP
01F0
0100
0100
2500
25F0
2500
4900
4900
4900
4900
B900
8000
ENDCHAR
STARTCHAR 33D6
ENCODING 10079
SWIDTH 1400 0
DWIDTH 14 0
BBX 10 10 2 0
BITMAP
0040
0040
F340
D4C0
D4C0
D4C0
D4C0
D4C0
D4C0
D340
ENDCHAR
STARTCHAR 33C5
ENCODING 10080
SWIDTH 1400 0
DWIDTH 14 0
BBX 10 10 2 0
BITMAP
0040
0040
7040
CFC0
8C40
8440
8440
8C40
4E40
73C0
ENDCHAR
STARTCHAR 33AD
ENCODING 10081
SWIDTH 1400 0
DWIDTH 14 0
BBX 10 11 2 -1
BITMAP
0040
0040
B840
E5C0
8540
8D40
B540
A540
A540
9DC0
0040
ENDCHAR
STARTCHAR 33AE
ENCODING 10082
SWIDTH 1400 0
DWIDTH 14 0
BBX 11 12 1 -2
BITMAP
0080
0080
CB80
9A80
AA80
95E0
0080
0360
0480
1860
2020
0060
ENDCHAR
STARTCHAR 33AF
ENCODING 10083
SWIDTH 1400 0
DWIDTH 14 0
BBX 12 11 1 -1
BITMAP
0100
8300
CD00
9D00
AD20
9B50
01B0
02C0
0C80
1040
20C0
ENDCHAR
STARTCHAR 33DB
ENCODING 10084
SWIDTH 1400 0
DWIDTH 14 0
BBX 10 8 2 0
BITMAP
72C0
9300
8200
4200
3200
8A00
8A00
7200
ENDCHAR
STARTCHAR 33A9
ENCODING 10085
SWIDTH 1400 0
DWIDTH 14 0
BBX 10 11 2 0
BITMAP
F000
9800
8800
8980
8A40
9040
E1C0
8640
8440
8440
03C0
ENDCHAR
STARTCHAR 33AA
ENCODING 10086
SWIDTH 1400 0
DWIDTH 14 0
BBX 10 10 2 0
BITMAP
9E00
9200
B2C0
D240
D240
9CC0
D140
D140
D140
B1C0
ENDCHAR
STARTCHAR 33AB
ENCODING 10087
SWIDTH 1400 0
DWIDTH 14 0
BBX 12 11 1 -1
BITMAP
8F00
9D00
9D30
DDD0
DD10
DF30
DC50
EC50
EC50
AC70
0400
ENDCHAR
STARTCHAR 33AC
ENCODING 10088
SWIDTH 1400 0
DWIDTH 14 0
BBX 12 11 1 -1
BITMAP
7700
9500
95E0
8510
8510
B730
94D0
9490
9490
94F0
7000
ENDCHAR
STARTCHAR 33DD
ENCODING 10089
SWIDTH 1400 0
DWIDTH 14 0
BBX 12 11 1 0
BITMAP
0100
D500
F500
75E0
7530
7910
7910
7910
7910
7920
59C0
ENDCHAR
STARTCHAR 33D0
ENCODING 10090
SWIDTH 1400 0
DWIDTH 14 0
BBX 10 11 2 0
BITMAP
8000
8000
8000
9FC0
9240
9240
9240
9240
9240
9240
9240
ENDCHAR
STARTCHAR 33D3
ENCODING 10091
SWIDTH 1400 0
DWIDTH 14 0
BBX 8 11 3 -1
BITMAP
80
80
81
92
8A
84
84
8A
92
91
80
ENDCHAR
STARTCHAR 33C3
ENCODING 10092
SWIDTH 1400 0
DWIDTH 14 0
BBX 10 12 2 -1
BITMAP
F000
8800
8800
8B40
94C0
FC40
8C40
8C40
8C40
8BC0
F040
0040
ENDCHAR
STARTCHAR 33C9
ENCODING 10093
SWIDTH 1400 0
DWIDTH 14 0
BBX 11 13 1 -2
BITMAP
7800
4C00
8400
8000
8120
8120
9D40
8540
84C0
44C0
7C80
0080
0100
ENDCHAR
STARTCHAR 33DC
ENCODING 10094
SWIDTH 1400 0
DWIDTH 14 0
BBX 11 11 1 0
BITMAP
3800
4400
8400
4100
4120
3120
0D20
04C0
04C0
44C0
3840
ENDCHAR
STARTCHAR 33C6
ENCODING 10095
SWIDTH 1400 0
DWIDTH 14 0
BBX 12 12 1 -2
BITMAP
E000
A800
8800
B000
B400
5400
26F0
26A0
4660
45E0
4110
00E0
ENDCHAR
STARTCHAR 00C6
ENCODING 10273
SWIDTH 1400 0
DWIDTH 14 0
BBX 11 9 1 0
BITMAP
0FE0
0C00
1400
2400
27E0
3C00
4400
8400
87E0
ENDCHAR
STARTCHAR 00D0
ENCODING 10274
SWIDTH 1400 0
DWIDTH 14 0
BBX 9 9 2 0
BITMAP
3E00
2100
2080
2080
F880
2080
2080
2100
3E00
ENDCHAR
STARTCHAR 00AA
ENCODING 10275
SWIDTH 1400 0
DWIDTH 14 0
BBX 6 9 4 0
BITMAP
78
88
08
78
88
88
FC
00
FC
ENDCHAR
STARTCHAR 0126
ENCODING 10276
SWIDTH 1400 0
DWIDTH 14 0
BBX 10 9 2 0
BITMAP
2100
FFC0
2100
2100
3F00
2100
2100
2100
2100
ENDCHAR
STARTCHAR 0132
ENCODING 10278
SWIDTH 1400 0
DWIDTH 14 0
BBX 7 9 3 0
BITMAP
82
82
82
82
82
82
A2
A2
9C
ENDCHAR
STARTCHAR 013F
ENCODING 10280
SWIDTH 1400 0
DWIDTH 14 0
BBX 6 9 4 0
BITMAP
80
80
80
90
90
80
80
80
FC
ENDCHAR
STARTCHAR 0141
ENCODING 10281
SWIDTH 1400 0
DWIDTH 14 0
BBX 8 9 3 0
BITMAP
20
28
30
30
20
60
A0
20
3F
ENDCHAR
STARTCHAR 00D8
ENCODING 10282
SWIDTH 1400 0
DWIDTH 14 0
BBX 9 10 2 -1
BITMAP
3F00
2100
4300
4480
4880
5100
6100
2100
5E00
8000
ENDCHAR
STARTCHAR 0152
ENCODING 10283
SWIDTH 1400 0
DWIDTH 14 0
BBX 11 9 1 0
BITMAP
7FE0
4400
8400
8400
87E0
8400
8400
4400
3FE0
ENDCHAR
STARTCHAR 00BA
ENCODING 10284
SWIDTH 1400 0
DWIDTH 14 0
BBX 6 9 4 0
BITMAP
78
CC
84
84
84
8C
78
00
FC
ENDCHAR
STARTCHAR 00DE
ENCODING 10285
SWIDTH 1400 0
DWIDTH 14 0
BBX 6 9 4 0
BITMAP
80
80
F8
84
84
84
F8
80
80
ENDCHAR
STARTCHAR 0166
ENCODING 10286
SWIDTH 1400 0
DWIDTH 14 0
BBX 7 9 3 0
BITMAP
FE
10
10
10
10
7C
10
10
10
ENDCHAR
STARTCHAR 014A
ENCODING 10287
SWIDTH 1400 0
DWIDTH 14 0
BBX 6 10 4 0
BITMAP
90
EC
84
84
84
84
84
84
84
8C
ENDCHAR
STARTCHAR 3260
ENCODING 10289
SWIDTH 1400 0
DWIDTH 14 0
BBX 12 12 1 -2
BITMAP
1F80
30C0
4020
FFB0
8090
8090
8090
8090
C130
4020
30C0
1F80
ENDCHAR
STARTCHAR 3261
ENCODING 10290
SWIDTH 1400 0
DWIDTH 14 0
BBX 12 12 1 -2
BITMAP
1F80
30C0
4020
D030
9010
9010
9010
9010
DFF0
4020
30C0
1F80
ENDCHAR
STARTCHAR 3262
ENCODING 10291
SWIDTH 1400 0
DWIDTH 14 0
BBX 12 12 1 -2
BITMAP
1F80
30C0
4020
DFF0
9010
9010
9010
9010
DFF0
4020
30C0
1F80
ENDCHAR
STARTCHAR 3263
ENCODING 10292
SWIDTH 1400 0
DWIDTH 14 0
BBX 12 12 1 -2
BITMAP
1F80
30C0
4020
DFB0
8090
9F90
9010
9010
DFB0
4020
30C0
1F80
ENDCHAR
STARTCHAR 3264
ENCODING 10293
SWIDTH 1400 0
DWIDTH 14 0
BBX 12 12 1 -2
BITMAP
1F80
30C0
4020
DFB0
9090
9090
9090
9090
DFB0
4020
30C0
1F80
ENDCHAR
STARTCHAR 3265
ENCODING 10294
SWIDTH 1400 0
DWIDTH 14 0
BBX 12 12 1 -2
BITMAP
1F80
30C0
4020
D0B0
9090
9F90
9090
9090
DFB0
4020
30C0
1F80
ENDCHAR
STARTCHAR 3266
ENCODING 10295
SWIDTH 1400 0
DWIDTH 14 0
BBX 12 12 1 -2
BITMAP
1F80
30C0
4020
C430
8410
8A10
8A10
9110
C0B0
4020
30C0
1F80
ENDCHAR
STARTCHAR 3267
ENCODING 10296
SWIDTH 1400 0
DWIDTH 14 0
BBX 12 12 1 -2
BITMAP
1F80
30C0
4F20
D9B0
9090
9090
9090
9910
CF30
4020
30C0
1F80
ENDCHAR
STARTCHAR 3268
ENCODING 10297
SWIDTH 1400 0
DWIDTH 14 0
BBX 12 12 1 -2
BITMAP
1F80
30C0
4020
FFF0
8410
8610
8A10
9910
E0F0
4020
30C0
1F80
ENDCHAR
STARTCHAR 3269
ENCODING 10298
SWIDTH 1400 0
DWIDTH 14 0
BBX 12 12 1 -2
BITMAP
1F80
30C0
4F20
C030
BFD0
8410
8610
8910
F0F0
4020
30C0
1F80
ENDCHAR
STARTCHAR 326A
ENCODING 10299
SWIDTH 1400 0
DWIDTH 14 0
BBX 12 12 1 -2
BITMAP
1F80
30C0
4020
FFB0
8090
8090
9E90
8110
C130
4020
30C0
1F80
ENDCHAR
STARTCHAR 326B
ENCODING 10300
SWIDTH 1400 0
DWIDTH 14 0
BBX 12 12 1 -2
BITMAP
1F80
30C0
4020
DFB0
9010
9F90
9010
9010
DFF0
4020
30C0
1F80
ENDCHAR
STARTCHAR 326C
ENCODING 10301
SWIDTH 1400 0
DWIDTH 14 0
BBX 12 12 1 -2
BITMAP
1F80
30C0
4020
DFB0
8010
8910
8910
8910
FFF0
4020
30C0
1F80
ENDCHAR
STARTCHAR 326D
ENCODING 10302
SWIDTH 1400 0
DWIDTH 14 0
BBX 12 12 1 -2
BITMAP
1F80
30C0
4F20
C030
BF90
8F10
9090
9090
D0B0
4F20
30C0
1F80
ENDCHAR
STARTCHAR 326E
ENCODING 10303
SWIDTH 1400 0
DWIDTH 14 0
BBX 12 12 1 -2
BITMAP
1F80
30C0
4120
FD30
8510
8510
89D0
9110
E130
4120
31C0
1F80
ENDCHAR
STARTCHAR 326F
ENCODING 10304
SWIDTH 1400 0
DWIDTH 14 0
BBX 12 12 1 -2
BITMAP
1F80
31C0
4120
E130
A110
A1D0
A110
A710
D930
4120
30C0
1F80
ENDCHAR
STARTCHAR 3270
ENCODING 10305
SWIDTH 1400 0
DWIDTH 14 0
BBX 12 12 1 -2
BITMAP
1F80
30C0
4120
FD30
A110
A110
A1D0
A110
FD30
4120
31C0
1F80
ENDCHAR
STARTCHAR 3271
ENCODING 10306
SWIDTH 1400 0
DWIDTH 14 0
BBX 12 12 1 -2
BITMAP
1F80
30C0
4120
FD30
8510
BD10
A1D0
A110
FF30
4120
31C0
1F80
ENDCHAR
STARTCHAR 3272
ENCODING 10307
SWIDTH 1400 0
DWIDTH 14 0
BBX 12 12 1 -2
BITMAP
1F80
31C0
4120
FD30
A510
A5D0
A510
BD10
C130
4120
30C0
1F80
ENDCHAR
STARTCHAR 3273
ENCODING 10308
SWIDTH 1400 0
DWIDTH 14 0
BBX 12 12 1 -2
BITMAP
1F80
30C0
4120
E530
A510
BD10
A5D0
A510
FD30
4120
31C0
1F80
ENDCHAR
STARTCHAR 3274
ENCODING 10309
SWIDTH 1400 0
DWIDTH 14 0
BBX 12 12 1 -2
BITMAP
1F80
30C0
4120
C930
8910
8910
95D0
A310
C130
4120
31C0
1F80
ENDCHAR
STARTCHAR 3275
ENCODING 10310
SWIDTH 1400 0
DWIDTH 14 0
BBX 12 12 1 -2
BITMAP
1F80
30C0
4120
D930
A510
A510
A5D0
A510
D930
4120
31C0
1F80
ENDCHAR
STARTCHAR 3276
ENCODING 10311
SWIDTH 1400 0
DWIDTH 14 0
BBX 12 12 1 -2
BITMAP
1F80
30C0
4120
FF30
8910
8910
95D0
9510
E330
4120
31C0
1F80
ENDCHAR
STARTCHAR 3277
ENCODING 10312
SWIDTH 1400 0
DWIDTH 14 0
BBX 12 12 1 -2
BITMAP
1F80
30C0
5D20
C130
BF10
8910
89D0
9510
E530
4320
31C0
1F80
ENDCHAR
STARTCHAR 3278
ENCODING 10313
SWIDTH 1400 0
DWIDTH 14 0
BBX 12 12 1 -2
BITMAP
1F80
30C0
4120
FD30
8510
8D10
95D0
8910
C930
5120
31C0
1F80
ENDCHAR
STARTCHAR 3279
ENCODING 10314
SWIDTH 1400 0
DWIDTH 14 0
BBX 12 12 1 -2
BITMAP
1F80
30C0
4120
FD30
A110
BD10
A1D0
A110
FD30
4120
31C0
1F80
ENDCHAR
STARTCHAR 327A
ENCODING 10315
SWIDTH 1400 0
DWIDTH 14 0
BBX 12 12 1 -2
BITMAP
1F80
30C0
4120
FF30
8110
9510
95D0
9510
FD30
4120
31C0
1F80
ENDCHAR
STARTCHAR 327B
ENCODING 10316
SWIDTH 1400 0
DWIDTH 14 0
BBX 12 12 1 -2
BITMAP
1F80
30C0
5D20
C130
BF10
9D10
A5D0
A510
DD30
4120
31C0
1F80
ENDCHAR
STARTCHAR 24D0
ENCODING 10317
SWIDTH 1400 0
DWIDTH 14 0
BBX 12 12 1 -2
BITMAP
1F80
30C0
4020
C630
8910
8110
8F10
8910
CF30
4020
30C0
1F80
ENDCHAR
STARTCHAR 24D1
ENCODING 10318
SWIDTH 1400 0
DWIDTH 14 0
BBX 12 12 1 -2
BITMAP
1F80
30C0
5020
D030
9610
9910
9110
9110
D130
5E20
30C0
1F80
ENDCHAR
STARTCHAR 24D2
ENCODING 10319
SWIDTH 1400 0
DWIDTH 14 0
BBX 12 12 1 -2
BITMAP
1F80
30C0
4020
CE30
9110
9110
9110
9110
CE30
4020
30C0
1F80
ENDCHAR
STARTCHAR 24D3
ENCODING 10320
SWIDTH 1400 0
DWIDTH 14 0
BBX 12 12 1 -2
BITMAP
1F80
30C0
4120
C130
8F10
9110
9110
9110
D130
4F20
30C0
1F80
ENDCHAR
STARTCHAR 24D4
ENCODING 10321
SWIDTH 1400 0
DWIDTH 14 0
BBX 12 12 1 -2
BITMAP
1F80
30C0
4020
CE30
9110
9F10
9010
9110
CE30
4020
30C0
1F80
ENDCHAR
STARTCHAR 24D5
ENCODING 10322
SWIDTH 1400 0
DWIDTH 14 0
BBX 12 12 1 -2
BITMAP
1F80
30C0
4620
C430
8E10
8410
8410
8410
C430
4420
30C0
1F80
ENDCHAR
STARTCHAR 24D6
ENCODING 10323
SWIDTH 1400 0
DWIDTH 14 0
BBX 12 12 1 -2
BITMAP
1F80
30C0
4F20
D130
9110
9110
9110
8F10
D130
4E20
30C0
1F80
ENDCHAR
STARTCHAR 24D7
ENCODING 10324
SWIDTH 1400 0
DWIDTH 14 0
BBX 12 12 1 -2
BITMAP
1F80
38C0
4820
C830
8F10
8910
8910
8910
C930
4920
30C0
1F80
ENDCHAR
STARTCHAR 24D8
ENCODING 10325
SWIDTH 1400 0
DWIDTH 14 0
BBX 12 12 1 -2
BITMAP
1F80
30C0
4420
C030
8410
8410
8410
8410
C430
4420
30C0
1F80
ENDCHAR
STARTCHAR 24D9
ENCODING 10326
SWIDTH 1400 0
DWIDTH 14 0
BBX 12 12 1 -2
BITMAP
1F80
34C0
4020
C430
8410
8410
8410
8410
C430
4420
3CC0
1F80
ENDCHAR
STARTCHAR 24DA
ENCODING 10327
SWIDTH 1400 0
DWIDTH 14 0
BBX 12 12 1 -2
BITMAP
1F80
38C0
4820
C830
8910
8A10
8E10
8A10
C930
4820
30C0
1F80
ENDCHAR
STARTCHAR 24DB
ENCODING 10328
SWIDTH 1400 0
DWIDTH 14 0
BBX 12 12 1 -2
BITMAP
1F80
30C0
4420
C430
8410
8410
8410
8410
C430
4420
30C0
1F80
ENDCHAR
STARTCHAR 24DC
ENCODING 10329
SWIDTH 1400 0
DWIDTH 14 0
BBX 12 12 1 -2
BITMAP
1F80
30C0
4020
FFF0
A450
A450
A450
A450
E470
4020
30C0
1F80
ENDCHAR
STARTCHAR 24DD
ENCODING 10330
SWIDTH 1400 0
DWIDTH 14 0
BBX 12 12 1 -2
BITMAP
1F80
30C0
4020
C730
8910
8910
8910
8910
C930
4020
30C0
1F80
ENDCHAR
STARTCHAR 24DE
ENCODING 10331
SWIDTH 1400 0
DWIDTH 14 0
BBX 12 12 1 -2
BITMAP
1F80
30C0
4020
CE30
9110
9110
9110
9110
CE30
4020
30C0
1F80
ENDCHAR
STARTCHAR 24DF
ENCODING 10332
SWIDTH 1400 0
DWIDTH 14 0
BBX 12 12 1 -2
BITMAP
1F80
30C0
5E20
D130
9110
9110
9110
9E10
D030
5020
30C0
1F80
ENDCHAR
STARTCHAR 24E0
ENCODING 10333
SWIDTH 1400 0
DWIDTH 14 0
BBX 12 12 1 -2
BITMAP
1F80
30C0
4EA0
D9B0
9090
9090
9190
8E90
C0B0
40A0
30C0
1F80
ENDCHAR
STARTCHAR 24E1
ENCODING 10334
SWIDTH 1400 0
DWIDTH 14 0
BBX 12 12 1 -2
BITMAP
1F80
30C0
4020
CA30
8C10
8810
8810
8810
C830
4020
30C0
1F80
ENDCHAR
STARTCHAR 24E2
ENCODING 10335
SWIDTH 1400 0
DWIDTH 14 0
BBX 12 12 1 -2
BITMAP
1F80
30C0
4E20
C930
8810
8610
8110
8910
C630
4020
30C0
1F80
ENDCHAR
STARTCHAR 24E3
ENCODING 10336
SWIDTH 1400 0
DWIDTH 14 0
BBX 12 12 1 -2
BITMAP
1F80
34C0
4420
CE30
8410
8410
8410
8410
C630
4020
30C0
1F80
ENDCHAR
STARTCHAR 24E4
ENCODING 10337
SWIDTH 1400 0
DWIDTH 14 0
BBX 12 12 1 -2
BITMAP
1F80
30C0
4020
C930
8910
8910
8910
8910
CF30
4020
30C0
1F80
ENDCHAR
STARTCHAR 24E5
ENCODING 10338
SWIDTH 1400 0
DWIDTH 14 0
BBX 12 12 1 -2
BITMAP
1F80
30C0
4020
C130
8910
8A10
8A10
8610
C430
4020
30C0
1F80
ENDCHAR
STARTCHAR 24E6
ENCODING 10339
SWIDTH 1400 0
DWIDTH 14 0
BBX 12 12 1 -2
BITMAP
1F80
30C0
4020
E430
A690
9690
9A90
9B10
C930
4120
30C0
1F80
ENDCHAR
STARTCHAR 24E7
ENCODING 10340
SWIDTH 1400 0
DWIDTH 14 0
BBX 12 12 1 -2
BITMAP
1F80
30C0
4020
C930
8A10
8410
8610
8A10
C130
4020
30C0
1F80
ENDCHAR
STARTCHAR 24E8
ENCODING 10341
SWIDTH 1400 0
DWIDTH 14 0
BBX 12 12 1 -2
BITMAP
1F80
30C0
4120
C930
8A10
8A10
8610
8410
C430
4C20
30C0
1F80
ENDCHAR
STARTCHAR 24E9
ENCODING 10342
SWIDTH 1400 0
DWIDTH 14 0
BBX 12 12 1 -2
BITMAP
1F80
30C0
4020
DF30
8210
8410
8410
8810
CF30
4020
30C0
1F80
ENDCHAR
STARTCHAR 2460
ENCODING 10343
SWIDTH 1400 0
DWIDTH 14 0
BBX 12 12 1 -2
BITMAP
1F80
30C0
4220
C230
8E10
8210
8210
8210
C230
4220
32C0
1F80
ENDCHAR
STARTCHAR 2461
ENCODING 10344
SWIDTH 1400 0
DWIDTH 14 0
BBX 12 12 1 -2
BITMAP
1F80
30C0
4E20
D130
9110
8110
8610
8810
D030
5F20
30C0
1F80
ENDCHAR
STARTCHAR 2462
ENCODING 10345
SWIDTH 1400 0
DWIDTH 14 0
BBX 12 12 1 -2
BITMAP
1F80
30C0
4E20
D130
9110
8610
8110
9110
D130
4E20
30C0
1F80
ENDCHAR
STARTCHAR 2463
ENCODING 10346
SWIDTH 1400 0
DWIDTH 14 0
BBX 12 12 1 -2
BITMAP
1F80
30C0
4220
C630
8A10
9210
9210
9F10
C230
4220
30C0
1F80
ENDCHAR
STARTCHAR 2464
ENCODING 10347
SWIDTH 1400 0
DWIDTH 14 0
BBX 12 12 1 -2
BITMAP
1F80
30C0
4F20
D030
9E10
9110
8110
9110
D130
4E20
30C0
1F80
ENDCHAR
STARTCHAR 2465
ENCODING 10348
SWIDTH 1400 0
DWIDTH 14 0
BBX 12 12 1 -2
BITMAP
1F80
30C0
4E20
C930
9110
9610
9910
9110
D130
4E20
30C0
1F80
ENDCHAR
STARTCHAR 2466
ENCODING 10349
SWIDTH 1400 0
DWIDTH 14 0
BBX 12 12 1 -2
BITMAP
1F80
30C0
5FA0
C130
8210
8210
8410
8410
C430
4020
30C0
1F80
ENDCHAR
STARTCHAR 2467
ENCODING 10350
SWIDTH 1400 0
DWIDTH 14 0
BBX 12 12 1 -2
BITMAP
1F80
30C0
4620
C930
8910
8610
9910
9110
D130
4E20
30C0
1F80
ENDCHAR
STARTCHAR 2468
ENCODING 10351
SWIDTH 1400 0
DWIDTH 14 0
BBX 12 12 1 -2
BITMAP
1F80
30C0
4620
C930
8910
8910
8710
9110
D230
4E20
30C0
1F80
ENDCHAR
STARTCHAR 2469
ENCODING 10352
SWIDTH 1400 0
DWIDTH 14 0
BBX 12 12 1 -2
BITMAP
1F80
30C0
41A0
D270
F250
9250
9250
9250
D1B0
5020
30C0
1F80
ENDCHAR
STARTCHAR 246A
ENCODING 10353
SWIDTH 1400 0
DWIDTH 14 0
BBX 12 12 1 -2
BITMAP
1F80
30C0
4020
D0B0
F390
9090
9090
9090
D0B0
50A0
30C0
1F80
ENDCHAR
STARTCHAR 246B
ENCODING 10354
SWIDTH 1400 0
DWIDTH 14 0
BBX 12 12 1 -2
BITMAP
1F80
30C0
41A0
D270
F250
9090
9110
9210
D3F0
5020
30C0
1F80
ENDCHAR
STARTCHAR 246C
ENCODING 10355
SWIDTH 1400 0
DWIDTH 14 0
BBX 12 12 1 -2
BITMAP
1F80
30C0
41A0
D270
F290
9190
9050
9250
D3B0
5020
30C0
1F80
ENDCHAR
STARTCHAR 246D
ENCODING 10356
SWIDTH 1400 0
DWIDTH 14 0
BBX 12 12 1 -2
BITMAP
1F80
30C0
4020
D0B0
F190
9290
9290
97D0
D0B0
50A0
30C0
1F80
ENDCHAR
STARTCHAR 246E
ENCODING 10357
SWIDTH 1400 0
DWIDTH 14 0
BBX 12 12 1 -2
BITMAP
1F80
30C0
43E0
D230
F390
9250
9050
9250
D3B0
5020
30C0
1F80
ENDCHAR
STARTCHAR 00BD
ENCODING 10358
SWIDTH 1400 0
DWIDTH 14 0
BBX 10 10 2 0
BITMAP
2000
2200
E400
2400
29C0
2A40
3040
1080
2300
23C0
ENDCHAR
STARTCHAR 2153
ENCODING 10359
SWIDTH 1400 0
DWIDTH 14 0
BBX 10 9 2 0
BITMAP
2200
E400
2400
2980
2A40
3080
1080
2240
2380
ENDCHAR
STARTCHAR 2154
ENCODING 10360
SWIDTH 1400 0
DWIDTH 14 0
BBX 10 9 2 0
BITMAP
F000
9200
2400
4780
8A40
F880
1080
1240
0380
ENDCHAR
STARTCHAR 00BC
ENCODING 10361
SWIDTH 1400 0
DWIDTH 14 0
BBX 9 10 2 0
BITMAP
2000
2200
E400
2480
2980
2A80
3280
1480
2380
2080
ENDCHAR
STARTCHAR 00BE
ENCODING 10362
SWIDTH 1400 0
DWIDTH 14 0
BBX 9 10 2 0
BITMAP
2000
D200
1200
2480
1580
9A80
6A80
1480
1380
0080
ENDCHAR
STARTCHAR 215B
ENCODING 10363
SWIDTH 1400 0
DWIDTH 14 0
BBX 10 9 2 0
BITMAP
2200
E400
2400
2980
2A40
3380
1280
2240
2380
ENDCHAR
STARTCHAR 215C
ENCODING 10364
SWIDTH 1400 0
DWIDTH 14 0
BBX 10 9 2 0
BITMAP
E200
9200
6400
1580
9A40
6B80
1280
1240
2380
ENDCHAR
STARTCHAR 215D
ENCODING 10365
SWIDTH 1400 0
DWIDTH 14 0
BBX 10 9 2 0
BITMAP
E200
8200
F400
1580
9A40
6B80
1280
1240
2380
ENDCHAR
STARTCHAR 215E
ENCODING 10366
SWIDTH 1400 0
DWIDTH 14 0
BBX 9 9 3 0
BITMAP
E400
4800
4800
9300
9480
A700
2500
4480
4700
ENDCHAR
STARTCHAR 00E6
ENCODING 10529
SWIDTH 1400 0
DWIDTH 14 0
BBX 10 7 2 0
BITMAP
7780
8880
0880
7FC0
8800
9800
7780
ENDCHAR
STARTCHAR 0111
ENCODING 10530
SWIDTH 1400 0
DWIDTH 14 0
BBX 6 9 4 0
BITMAP
08
3C
68
98
88
88
88
88
78
ENDCHAR
STARTCHAR 00F0
ENCODING 10531
SWIDTH 1400 0
DWIDTH 14 0
BBX 5 10 4 0
BITMAP
10
60
60
10
30
C8
88
88
88
70
ENDCHAR
STARTCHAR 0127
ENCODING 10532
SWIDTH 1400 0
DWIDTH 14 0
BBX 7 9 3 0
BITMAP
20
F8
20
3E
22
22
22
22
22
ENDCHAR
STARTCHAR 0131
ENCODING 10533
SWIDTH 1400 0
DWIDTH 14 0
BBX 1 6 6 0
BITMAP
80
80
80
80
80
80
ENDCHAR
STARTCHAR 0133
ENCODING 10534
SWIDTH 1400 0
DWIDTH 14 0
BBX 4 11 5 -2
BITMAP
90
00
90
90
90
90
90
90
90
10
20
ENDCHAR
STARTCHAR 0138
ENCODING 10535
SWIDTH 1400 0
DWIDTH 14 0
BBX 5 7 4 0
BITMAP
88
90
A0
E0
90
90
88
ENDCHAR
STARTCHAR 0140
ENCODING 10536
SWIDTH 1400 0
DWIDTH 14 0
BBX 4 9 5 0
BITMAP
80
80
80
80
90
80
80
80
80
ENDCHAR
STARTCHAR 0142
ENCODING 10537
SWIDTH 1400 0
DWIDTH 14 0
BBX 4 9 4 0
BITMAP
20
20
30
30
20
60
A0
20
20
ENDCHAR
STARTCHAR 00F8
ENCODING 10538
SWIDTH 1400 0
DWIDTH 14 0
BBX 8 8 3 -1
BITMAP
3F
45
49
51
61
42
B6
08
ENDCHAR
STARTCHAR 0153
ENCODING 10539
SWIDTH 1400 0
DWIDTH 14 0
BBX 10 7 2 0
BITMAP
7380
CC40
8840
87C0
8800
8440
7B80
ENDCHAR
STARTCHAR 00DF
ENCODING 10540
SWIDTH 1400 0
DWIDTH 14 0
BBX 6 10 4 0
BITMAP
30
48
88
88
B0
88
84
84
84
B8
ENDCHAR
STARTCHAR 00FE
ENCODING 10541
SWIDTH 1400 0
DWIDTH 14 0
BBX 6 10 4 -1
BITMAP
80
80
B8
CC
84
84
84
8C
F8
80
ENDCHAR
STARTCHAR 0167
ENCODING 10542
SWIDTH 1400 0
DWIDTH 14 0
BBX 3 9 5 -1
BITMAP
40
40
E0
40
E0
40
40
40
20
ENDCHAR
STARTCHAR 014B
ENCODING 10543
SWIDTH 1400 0
DWIDTH 14 0
BBX 5 9 4 -2
BITMAP
B0
C8
88
88
88
88
88
08
30
ENDCHAR
STARTCHAR 0149
ENCODING 10544
SWIDTH 1400 0
DWIDTH 14 0
BBX 7 8 3 0
BITMAP
40
AC
B2
22
22
22
22
22
ENDCHAR
STARTCHAR 3200
ENCODING 10545
SWIDTH 1400 0
DWIDTH 14 0
BBX 11 11 1 -1
BITMAP
2080
4040
4040
BFA0
80A0
80A0
80A0
80A0
8140
4040
2080
ENDCHAR
STARTCHAR 3201
ENCODING 10546
SWIDTH 1400 0
DWIDTH 14 0
BBX 11 11 1 -1
BITMAP
2080
4040
4040
9020
9020
9020
9020
9020
9FC0
4040
2080
ENDCHAR
STARTCHAR 3202
ENCODING 10547
SWIDTH 1400 0
DWIDTH 14 0
BBX 11 11 1 -1
BITMAP
2080
4040
4040
9FA0
9020
9020
9020
9020
9FC0
4040
2080
ENDCHAR
STARTCHAR 3203
ENCODING 10548
SWIDTH 1400 0
DWIDTH 14 0
BBX 11 11 1 -1
BITMAP
2000
4040
4040
9FA0
80A0
9FA0
9020
9020
9FC0
4040
2080
ENDCHAR
STARTCHAR 3204
ENCODING 10549
SWIDTH 1400 0
DWIDTH 14 0
BBX 11 11 1 -1
BITMAP
2080
4040
4040
9FA0
90A0
90A0
90A0
9FA0
8040
4040
2080
ENDCHAR
STARTCHAR 3205
ENCODING 10550
SWIDTH 1400 0
DWIDTH 14 0
BBX 11 11 1 -1
BITMAP
2080
4040
4040
90A0
90A0
9FA0
90A0
90A0
9FC0
4040
2080
ENDCHAR
STARTCHAR 3206
ENCODING 10551
SWIDTH 1400 0
DWIDTH 14 0
BBX 11 11 1 -1
BITMAP
2080
4040
4040
8420
8420
8420
8A20
9120
A0C0
4040
2080
ENDCHAR
STARTCHAR 3207
ENCODING 10552
SWIDTH 1400 0
DWIDTH 14 0
BBX 11 11 1 -1
BITMAP
2080
4040
4F40
99A0
90A0
90A0
90A0
9920
8F40
4040
2080
ENDCHAR
STARTCHAR 3208
ENCODING 10553
SWIDTH 1400 0
DWIDTH 14 0
BBX 11 11 1 -1
BITMAP
2080
4040
4040
BFA0
8420
8C20
8A20
9120
A0C0
4040
2080
ENDCHAR
STARTCHAR 3209
ENCODING 10554
SWIDTH 1400 0
DWIDTH 14 0
BBX 11 11 1 -1
BITMAP
2080
4040
4F40
8020
BFE0
8420
8620
8920
B0C0
4040
2080
ENDCHAR
STARTCHAR 320A
ENCODING 10555
SWIDTH 1400 0
DWIDTH 14 0
BBX 11 11 1 -1
BITMAP
2080
4040
4040
BFA0
80A0
82A0
9CA0
80A0
8140
4040
2080
ENDCHAR
STARTCHAR 320B
ENCODING 10556
SWIDTH 1400 0
DWIDTH 14 0
BBX 11 11 1 -1
BITMAP
2080
4040
4040
9FE0
9020
9FA0
9020
9020
9FC0
4040
2080
ENDCHAR
STARTCHAR 320C
ENCODING 10557
SWIDTH 1400 0
DWIDTH 14 0
BBX 11 11 1 -1
BITMAP
2080
4040
4040
9FA0
8020
8920
8920
8920
BFC0
4040
2080
ENDCHAR
STARTCHAR 320D
ENCODING 10558
SWIDTH 1400 0
DWIDTH 14 0
BBX 11 11 1 -1
BITMAP
2080
4040
4F40
8020
BFA0
8F20
9120
9120
8F40
4040
2080
ENDCHAR
STARTCHAR 320E
ENCODING 10559
SWIDTH 1400 0
DWIDTH 14 0
BBX 12 11 1 -1
BITMAP
2000
4000
4120
BD20
8510
8510
89D0
9110
A110
4120
2140
ENDCHAR
STARTCHAR 320F
ENCODING 10560
SWIDTH 1400 0
DWIDTH 14 0
BBX 12 11 1 -1
BITMAP
2000
4120
4120
A110
A110
A1D0
A110
A710
9920
4140
2000
ENDCHAR
STARTCHAR 3210
ENCODING 10561
SWIDTH 1400 0
DWIDTH 14 0
BBX 12 11 1 -1
BITMAP
2000
4000
4120
BD20
A110
A110
A1D0
A310
BD10
4120
2140
ENDCHAR
STARTCHAR 3211
ENCODING 10562
SWIDTH 1400 0
DWIDTH 14 0
BBX 12 11 1 -1
BITMAP
2040
4020
4120
BD10
8510
BD10
A1D0
A110
BD20
4120
4140
ENDCHAR
STARTCHAR 3212
ENCODING 10563
SWIDTH 1400 0
DWIDTH 14 0
BBX 12 11 1 -1
BITMAP
2000
4000
4120
BD20
A510
A510
A5D0
BD10
8110
4120
2140
ENDCHAR
STARTCHAR 3213
ENCODING 10564
SWIDTH 1400 0
DWIDTH 14 0
BBX 12 11 1 -1
BITMAP
2000
4000
4120
A520
A510
BD10
A5D0
A510
BD10
4120
2140
ENDCHAR
STARTCHAR 3214
ENCODING 10565
SWIDTH 1400 0
DWIDTH 14 0
BBX 12 11 1 -1
BITMAP
2000
4000
4120
8920
8910
8910
95D0
9510
A310
4120
2140
ENDCHAR
STARTCHAR 3215
ENCODING 10566
SWIDTH 1400 0
DWIDTH 14 0
BBX 12 11 1 -1
BITMAP
2000
4000
4120
9920
A510
A510
A5D0
A510
9910
4120
2140
ENDCHAR
STARTCHAR 3216
ENCODING 10567
SWIDTH 1400 0
DWIDTH 14 0
BBX 12 11 1 -1
BITMAP
2000
4000
4120
BF20
8910
8910
99D0
9510
A310
4120
2140
ENDCHAR
STARTCHAR 3217
ENCODING 10568
SWIDTH 1400 0
DWIDTH 14 0
BBX 12 11 1 -1
BITMAP
2000
4000
5D20
8120
BF10
8910
89D0
9510
A310
4120
2140
ENDCHAR
STARTCHAR 3218
ENCODING 10569
SWIDTH 1400 0
DWIDTH 14 0
BBX 11 11 1 -1
BITMAP
2000
4000
4140
BD40
8520
BD20
85E0
8920
9120
4140
2180
ENDCHAR
STARTCHAR 3219
ENCODING 10570
SWIDTH 1400 0
DWIDTH 14 0
BBX 11 11 1 -1
BITMAP
2000
4000
4140
BD40
A120
BD20
A1E0
A120
BD20
4140
2180
ENDCHAR
STARTCHAR 321A
ENCODING 10571
SWIDTH 1400 0
DWIDTH 14 0
BBX 11 11 1 -1
BITMAP
2000
4000
4140
BF40
8120
9520
95E0
9520
BD20
4140
2180
ENDCHAR
STARTCHAR 321B
ENCODING 10572
SWIDTH 1400 0
DWIDTH 14 0
BBX 11 11 1 -1
BITMAP
2000
4000
5D40
8140
BF20
9D20
A5E0
A520
9D20
4140
2180
ENDCHAR
STARTCHAR 249C
ENCODING 10573
SWIDTH 1400 0
DWIDTH 14 0
BBX 11 11 1 -1
BITMAP
2080
4040
4040
8620
8920
8120
8F20
8920
8F40
4040
2080
ENDCHAR
STARTCHAR 249D
ENCODING 10574
SWIDTH 1400 0
DWIDTH 14 0
BBX 11 11 1 -1
BITMAP
2080
4040
4840
8820
8F20
88A0
88A0
88A0
88C0
4F40
2080
ENDCHAR
STARTCHAR 249E
ENCODING 10575
SWIDTH 1400 0
DWIDTH 14 0
BBX 11 11 1 -1
BITMAP
2080
4040
4040
8E20
9120
9120
9120
9120
8E40
4040
2080
ENDCHAR
STARTCHAR 249F
ENCODING 10576
SWIDTH 1400 0
DWIDTH 14 0
BBX 11 11 1 -1
BITMAP
2080
4040
4140
8120
8F20
9120
9120
9120
9140
4F40
2080
ENDCHAR
STARTCHAR 24A0
ENCODING 10577
SWIDTH 1400 0
DWIDTH 14 0
BBX 11 11 1 -1
BITMAP
2080
4040
4040
8E20
9120
9F20
9020
9120
8E40
4040
2080
ENDCHAR
STARTCHAR 24A1
ENCODING 10578
SWIDTH 1400 0
DWIDTH 14 0
BBX 11 11 1 -1
BITMAP
2080
4040
4640
8420
8E20
8420
8420
8420
8440
4440
2080
ENDCHAR
STARTCHAR 24A2
ENCODING 10579
SWIDTH 1400 0
DWIDTH 14 0
BBX 11 11 1 -1
BITMAP
2080
4040
4F40
9120
9120
9120
9120
8F20
9140
4E40
2080
ENDCHAR
STARTCHAR 24A3
ENCODING 10580
SWIDTH 1400 0
DWIDTH 14 0
BBX 11 11 1 -1
BITMAP
2080
4840
4840
8820
8F20
8920
8920
8920
8940
4940
2080
ENDCHAR
STARTCHAR 24A4
ENCODING 10581
SWIDTH 1400 0
DWIDTH 14 0
BBX 11 11 1 -1
BITMAP
2080
4040
4440
8020
8420
8420
8420
8420
8440
4440
2080
ENDCHAR
STARTCHAR 24A5
ENCODING 10582
SWIDTH 1400 0
DWIDTH 14 0
BBX 11 11 1 -1
BITMAP
2080
4440
4040
8420
8420
8420
8420
8420
8440
4440
2C80
ENDCHAR
STARTCHAR 24A6
ENCODING 10583
SWIDTH 1400 0
DWIDTH 14 0
BBX 11 11 1 -1
BITMAP
2080
4840
4840
8820
8920
8A20
8E20
8A20
8940
4840
2080
ENDCHAR
STARTCHAR 24A7
ENCODING 10584
SWIDTH 1400 0
DWIDTH 14 0
BBX 11 11 1 -1
BITMAP
2080
4040
4440
8420
8420
8420
8420
8420
8440
4440
2080
ENDCHAR
STARTCHAR 24A8
ENCODING 10585
SWIDTH 1400 0
DWIDTH 14 0
BBX 11 11 1 -1
BITMAP
2080
4040
4040
BFE0
A460
A460
A460
A460
A440
4040
2080
ENDCHAR
STARTCHAR 24A9
ENCODING 10586
SWIDTH 1400 0
DWIDTH 14 0
BBX 11 11 1 -1
BITMAP
2080
4040
4040
8720
8920
8920
8920
8920
8940
4040
2080
ENDCHAR
STARTCHAR 24AA
ENCODING 10587
SWIDTH 1400 0
DWIDTH 14 0
BBX 11 11 1 -1
BITMAP
2080
4040
4040
8E20
9120
9120
9120
9120
8E40
4040
2080
ENDCHAR
STARTCHAR 24AB
ENCODING 10588
SWIDTH 1400 0
DWIDTH 14 0
BBX 11 11 1 -1
BITMAP
2080
4040
4F40
88A0
88A0
88A0
88A0
8F20
8840
4840
2080
ENDCHAR
STARTCHAR 24AC
ENCODING 10589
SWIDTH 1400 0
DWIDTH 14 0
BBX 11 11 1 -1
BITMAP
2080
4040
4F40
9120
9120
9120
9120
8F20
8140
4140
2080
ENDCHAR
STARTCHAR 24AD
ENCODING 10590
SWIDTH 1400 0
DWIDTH 14 0
BBX 11 11 1 -1
BITMAP
2080
4040
4040
8B20
8C20
8820
8820
8820
8840
4040
2080
ENDCHAR
STARTCHAR 24AE
ENCODING 10591
SWIDTH 1400 0
DWIDTH 14 0
BBX 11 11 1 -1
BITMAP
2080
4040
4E40
8920
8820
8620
8120
8920
8640
4040
2080
ENDCHAR
STARTCHAR 24AF
ENCODING 10592
SWIDTH 1400 0
DWIDTH 14 0
BBX 11 11 1 -1
BITMAP
2080
4440
4440
8E20
8420
8420
8420
8420
8640
4040
2080
ENDCHAR
STARTCHAR 24B0
ENCODING 10593
SWIDTH 1400 0
DWIDTH 14 0
BBX 11 11 1 -1
BITMAP
2080
4040
4040
8920
8920
8920
8920
8920
8F40
4040
2080
ENDCHAR
STARTCHAR 24B1
ENCODING 10594
SWIDTH 1400 0
DWIDTH 14 0
BBX 11 11 1 -1
BITMAP
2080
4040
4040
8120
8920
8A20
8A20
8620
8440
4040
2080
ENDCHAR
STARTCHAR 24B2
ENCODING 10595
SWIDTH 1400 0
DWIDTH 14 0
BBX 11 11 1 -1
BITMAP
2080
4040
4040
A420
A6A0
96A0
9AA0
9B20
8940
4940
2080
ENDCHAR
STARTCHAR 24B3
ENCODING 10596
SWIDTH 1400 0
DWIDTH 14 0
BBX 11 11 1 -1
BITMAP
2080
4040
4040
8920
8A20
8420
8620
8A20
8140
4040
2080
ENDCHAR
STARTCHAR 24B4
ENCODING 10597
SWIDTH 1400 0
DWIDTH 14 0
BBX 11 11 1 -1
BITMAP
2080
4040
4140
8920
8A20
8A20
8620
8420
8440
4440
2080
ENDCHAR
STARTCHAR 24B5
ENCODING 10598
SWIDTH 1400 0
DWIDTH 14 0
BBX 11 11 1 -1
BITMAP
2080
4040
4040
9F20
8220
8420
8420
8820
8F40
4040
2080
ENDCHAR
STARTCHAR 2474
ENCODING 10599
SWIDTH 1400 0
DWIDTH 14 0
BBX 11 11 1 -1
BITMAP
2080
4240
4240
8E20
8220
8220
8220
8220
8240
4240
2080
ENDCHAR
STARTCHAR 2475
ENCODING 10600
SWIDTH 1400 0
DWIDTH 14 0
BBX 11 11 1 -1
BITMAP
2080
4E40
5140
9120
8120
8220
8420
8820
9040
5F40
2080
ENDCHAR
STARTCHAR 2476
ENCODING 10601
SWIDTH 1400 0
DWIDTH 14 0
BBX 11 11 1 -1
BITMAP
2080
4040
4640
8920
8920
8620
8120
90A0
98C0
4F40
2080
ENDCHAR
STARTCHAR 2477
ENCODING 10602
SWIDTH 1400 0
DWIDTH 14 0
BBX 11 11 1 -1
BITMAP
2080
4040
4240
8620
8A20
9220
9220
9F20
8240
4240
2080
ENDCHAR
STARTCHAR 2478
ENCODING 10603
SWIDTH 1400 0
DWIDTH 14 0
BBX 11 11 1 -1
BITMAP
2080
4040
4F40
9020
9E20
9120
8120
9120
9140
4E40
2080
ENDCHAR
STARTCHAR 2479
ENCODING 10604
SWIDTH 1400 0
DWIDTH 14 0
BBX 11 11 1 -1
BITMAP
2080
4040
4E40
8920
9120
9620
9920
9120
9140
4E40
2080
ENDCHAR
STARTCHAR 247A
ENCODING 10605
SWIDTH 1400 0
DWIDTH 14 0
BBX 11 11 1 -1
BITMAP
2080
4040
5FC0
8120
8220
8220
8420
8420
8440
4040
2080
ENDCHAR
STARTCHAR 247B
ENCODING 10606
SWIDTH 1400 0
DWIDTH 14 0
BBX 11 11 1 -1
BITMAP
2080
4040
4640
8920
8920
8620
9920
9120
9140
4E40
2080
ENDCHAR
STARTCHAR 247C
ENCODING 10607
SWIDTH 1400 0
DWIDTH 14 0
BBX 11 11 1 -1
BITMAP
2080
4040
4740
88A0
88A0
88A0
87A0
88A0
8940
4740
2080
ENDCHAR
STARTCHAR 247D
ENCODING 10608
SWIDTH 1400 0
DWIDTH 14 0
BBX 11 11 1 -1
BITMAP
2080
41C0
52C0
B260
9260
9260
9260
9260
9240
53C0
3080
ENDCHAR
STARTCHAR 247E
ENCODING 10609
SWIDTH 1400 0
DWIDTH 14 0
BBX 11 11 1 -1
BITMAP
2080
4040
50C0
B1A0
90A0
90A0
90A0
90A0
90C0
50C0
3080
ENDCHAR
STARTCHAR 247F
ENCODING 10610
SWIDTH 1400 0
DWIDTH 14 0
BBX 11 11 1 -1
BITMAP
2080
4040
53C0
B0A0
90A0
9120
9220
9220
9440
5440
3780
ENDCHAR
STARTCHAR 2480
ENCODING 10611
SWIDTH 1400 0
DWIDTH 14 0
BBX 11 11 1 -1
BITMAP
2080
4140
52C0
B0A0
90A0
9320
90A0
90A0
92C0
52C0
3180
ENDCHAR
STARTCHAR 2481
ENCODING 10612
SWIDTH 1400 0
DWIDTH 14 0
BBX 11 11 1 -1
BITMAP
2080
41C0
51C0
B2A0
92A0
92A0
94A0
97E0
90C0
50C0
3080
ENDCHAR
STARTCHAR 2482
ENCODING 10613
SWIDTH 1400 0
DWIDTH 14 0
BBX 11 11 1 -1
BITMAP
2080
43C0
5240
B220
9220
93A0
90A0
90A0
92C0
52C0
3180
ENDCHAR
STARTCHAR 00B9
ENCODING 10614
SWIDTH 1400 0
DWIDTH 14 0
BBX 3 6 5 4
BITMAP
20
E0
20
20
20
20
ENDCHAR
STARTCHAR 00B2
ENCODING 10615
SWIDTH 1400 0
DWIDTH 14 0
BBX 4 7 5 4
BITMAP
60
90
10
20
40
80
F0
ENDCHAR
STARTCHAR 00B3
ENCODING 10616
SWIDTH 1400 0
DWIDTH 14 0
BBX 4 7 5 4
BITMAP
E0
A0
20
60
10
90
E0
ENDCHAR
STARTCHAR 2074
ENCODING 10617
SWIDTH 1400 0
DWIDTH 14 0
BBX 5 6 4 5
BITMAP
10
30
50
90
F8
10
ENDCHAR
STARTCHAR 207F
ENCODING 10618
SWIDTH 1400 0
DWIDTH 14 0
BBX 4 4 5 6
BITMAP
F0
90
90
90
ENDCHAR
STARTCHAR 2081
ENCODING 10619
SWIDTH 1400 0
DWIDTH 14 0
BBX 3 6 5 -2
BITMAP
20
E0
20
20
20
20
ENDCHAR
STARTCHAR 2082
ENCODING 10620
SWIDTH 1400 0
DWIDTH 14 0
BBX 4 6 5 -2
BITMAP
F0
90
10
60
80
F0
ENDCHAR
STARTCHAR 2083
ENCODING 10621
SWIDTH 1400 0
DWIDTH 14 0
BBX 4 7 5 -2
BITMAP
60
A0
20
60
10
90
60
ENDCHAR
STARTCHAR 2084
ENCODING 10622
SWIDTH 1400 0
DWIDTH 14 0
BBX 5 7 4 -2
BITMAP
10
30
50
50
F8
10
10
ENDCHAR
STARTCHAR 3041
ENCODING 10785
SWIDTH 1400 0
DWIDTH 14 0
BBX 7 7 3 -1
BITMAP
20
78
20
3E
F2
A2
54
ENDCHAR
STARTCHAR 3042
ENCODING 10786
SWIDTH 1400 0
DWIDTH 14 0
BBX 10 10 2 -1
BITMAP
1200
7C00
1200
1200
1D80
7440
9440
9840
9080
6900
ENDCHAR
STARTCHAR 3043
ENCODING 10787
SWIDTH 1400 0
DWIDTH 14 0
BBX 6 6 4 -1
BITMAP
80
88
84
84
90
60
ENDCHAR
STARTCHAR 3044
ENCODING 10788
SWIDTH 1400 0
DWIDTH 14 0
BBX 10 9 2 0
BITMAP
8000
8100
8100
8080
8080
8040
4840
5000
2000
ENDCHAR
STARTCHAR 3045
ENCODING 10789
SWIDTH 1400 0
DWIDTH 14 0
BBX 4 8 5 -1
BITMAP
40
20
60
90
10
10
20
20
ENDCHAR
STARTCHAR 3046
ENCODING 10790
SWIDTH 1400 0
DWIDTH 14 0
BBX 6 12 3 -2
BITMAP
20
18
00
38
C4
04
04
04
08
08
10
20
ENDCHAR
STARTCHAR 3047
ENCODING 10791
SWIDTH 1400 0
DWIDTH 14 0
BBX 5 8 4 -2
BITMAP
30
00
70
20
30
50
90
08
ENDCHAR
STARTCHAR 3048
ENCODING 10792
SWIDTH 1400 0
DWIDTH 14 0
BBX 8 11 3 -1
BITMAP
20
18
04
0C
F8
10
10
38
48
88
87
ENDCHAR
STARTCHAR 3049
ENCODING 10793
SWIDTH 1400 0
DWIDTH 14 0
BBX 7 8 3 -2
BITMAP
20
3A
60
3C
64
A4
A4
40
ENDCHAR
STARTCHAR 304A
ENCODING 10794
SWIDTH 1400 0
DWIDTH 14 0
BBX 10 11 2 -1
BITMAP
1000
1000
1480
7840
1000
1700
1880
6080
A080
A100
6600
ENDCHAR
STARTCHAR 304B
ENCODING 10795
SWIDTH 1400 0
DWIDTH 14 0
BBX 10 10 2 -1
BITMAP
1000
1000
1C80
E280
2240
2200
4200
4400
8400
1800
ENDCHAR
STARTCHAR 304C
ENCODING 10796
SWIDTH 1400 0
DWIDTH 14 0
BBX 10 11 2 -1
BITMAP
0040
1080
1000
1E80
E280
2240
2200
4200
4400
8400
1800
ENDCHAR
STARTCHAR 304D
ENCODING 10797
SWIDTH 1400 0
DWIDTH 14 0
BBX 7 11 3 -2
BITMAP
10
18
2A
0C
F8
04
7E
82
80
40
38
ENDCHAR
STARTCHAR 304E
ENCODING 10798
SWIDTH 1400 0
DWIDTH 14 0
BBX 9 12 3 -2
BITMAP
0080
1100
1800
2A00
0C00
F800
0400
7E00
8200
8000
4000
3800
ENDCHAR
STARTCHAR 304F
ENCODING 10799
SWIDTH 1400 0
DWIDTH 14 0
BBX 5 12 4 -2
BITMAP
08
10
20
20
40
80
40
40
20
10
10
08
ENDCHAR
STARTCHAR 3050
ENCODING 10800
SWIDTH 1400 0
DWIDTH 14 0
BBX 7 11 4 -2
BITMAP
10
22
24
40
80
40
40
20
10
10
08
ENDCHAR
STARTCHAR 3051
ENCODING 10801
SWIDTH 1400 0
DWIDTH 14 0
BBX 10 12 2 -2
BITMAP
0100
4100
8140
8F80
8100
8100
8100
8100
C100
4200
4400
0400
ENDCHAR
STARTCHAR 3052
ENCODING 10802
SWIDTH 1400 0
DWIDTH 14 0
BBX 11 13 2 -2
BITMAP
0040
01A0
4140
8140
8F80
8100
8100
8100
8100
C100
4200
4400
0400
ENDCHAR
STARTCHAR 3053
ENCODING 10803
SWIDTH 1400 0
DWIDTH 14 0
BBX 7 8 3 0
BITMAP
7C
00
00
00
00
00
80
7E
ENDCHAR
STARTCHAR 3054
ENCODING 10804
SWIDTH 1400 0
DWIDTH 14 0
BBX 10 8 3 0
BITMAP
7C80
0140
0080
0000
0000
0000
8000
7E00
ENDCHAR
STARTCHAR 3055
ENCODING 10805
SWIDTH 1400 0
DWIDTH 14 0
BBX 7 12 3 -2
BITMAP
10
10
0E
F8
08
04
3A
C6
80
80
64
18
ENDCHAR
STARTCHAR 3056
ENCODING 10806
SWIDTH 1400 0
DWIDTH 14 0
BBX 9 11 3 -1
BITMAP
1000
1000
0E80
7800
0400
0400
7E00
8000
8000
4000
3C00
ENDCHAR
STARTCHAR 3057
ENCODING 10807
SWIDTH 1400 0
DWIDTH 14 0
BBX 7 10 4 -1
BITMAP
80
80
80
80
80
80
80
82
84
78
ENDCHAR
STARTCHAR 3058
ENCODING 10808
SWIDTH 1400 0
DWIDTH 14 0
BBX 7 10 4 -1
BITMAP
84
88
80
80
80
80
80
82
84
78
ENDCHAR
STARTCHAR 3059
ENCODING 10809
SWIDTH 1400 0
DWIDTH 14 0
BBX 10 12 2 -2
BITMAP
0400
0400
FFC0
0400
1C00
2400
2400
2400
1C00
0800
0800
1000
ENDCHAR
STARTCHAR 305A
ENCODING 10810
SWIDTH 1400 0
DWIDTH 14 0
BBX 10 13 2 -2
BITMAP
0080
0440
0400
FFC0
0400
1C00
2400
2400
2400
1C00
0800
0800
1000
ENDCHAR
STARTCHAR 305B
ENCODING 10811
SWIDTH 1400 0
DWIDTH 14 0
BBX 12 10 1 -1
BITMAP
1080
1080
1080
FFF0
1100
1100
1000
1200
1000
0F80
ENDCHAR
STARTCHAR 305C
ENCODING 10812
SWIDTH 1400 0
DWIDTH 14 0
BBX 12 11 1 -1
BITMAP
0020
10D0
10A0
1080
FFF0
1100
1100
1000
1200
1000
0F80
ENDCHAR
STARTCHAR 305D
ENCODING 10813
SWIDTH 1400 0
DWIDTH 14 0
BBX 9 11 3 -1
BITMAP
0200
4400
2400
0980
7E00
8C00
1000
1000
1000
0800
0600
ENDCHAR
STARTCHAR 305E
ENCODING 10814
SWIDTH 1400 0
DWIDTH 14 0
BBX 9 11 3 -1
BITMAP
0200
4400
2500
0980
7E00
8C00
1000
1000
1000
0800
0600
ENDCHAR
STARTCHAR 305F
ENCODING 10815
SWIDTH 1400 0
DWIDTH 14 0
BBX 9 11 2 -1
BITMAP
1000
1000
1000
FC00
1780
2000
2000
2000
4000
4C00
4380
ENDCHAR
STARTCHAR 3060
ENCODING 10816
SWIDTH 1400 0
DWIDTH 14 0
BBX 10 11 2 -1
BITMAP
1000
1040
1080
FC00
1780
2000
2000
2000
4000
4C00
4380
ENDCHAR
STARTCHAR 3061
ENCODING 10817
SWIDTH 1400 0
DWIDTH 14 0
BBX 8 11 3 -1
BITMAP
20
20
FC
20
20
2E
31
41
01
02
3C
ENDCHAR
STARTCHAR 3062
ENCODING 10818
SWIDTH 1400 0
DWIDTH 14 0
BBX 9 11 3 -1
BITMAP
2000
2080
FD00
2000
2000
2E00
3100
4100
0100
0200
3C00
ENDCHAR
STARTCHAR 3063
ENCODING 10819
SWIDTH 1400 0
DWIDTH 14 0
BBX 6 6 4 -1
BITMAP
38
C4
04
04
08
30
ENDCHAR
STARTCHAR 3064
ENCODING 10820
SWIDTH 1400 0
DWIDTH 14 0
BBX 9 8 2 0
BITMAP
0E00
F180
0080
0080
0080
0080
0100
0E00
ENDCHAR
STARTCHAR 3065
ENCODING 10821
SWIDTH 1400 0
DWIDTH 14 0
BBX 11 10 2 0
BITMAP
0040
00A0
3F40
C080
0080
0080
0080
0080
0300
0C00
ENDCHAR
STARTCHAR 3066
ENCODING 10822
SWIDTH 1400 0
DWIDTH 14 0
BBX 9 10 2 -1
BITMAP
0780
FC00
0800
0800
0800
1000
1000
0800
0400
0700
ENDCHAR
STARTCHAR 3067
ENCODING 10823
SWIDTH 1400 0
DWIDTH 14 0
BBX 10 10 2 -1
BITMAP
0780
FC00
0840
0880
0840
1000
1000
0800
0C00
0300
ENDCHAR
STARTCHAR 3068
ENCODING 10824
SWIDTH 1400 0
DWIDTH 14 0
BBX 6 10 3 -1
BITMAP
20
20
24
18
20
40
80
80
40
3C
ENDCHAR
STARTCHAR 3069
ENCODING 10825
SWIDTH 1400 0
DWIDTH 14 0
BBX 9 10 3 -1
BITMAP
2180
2000
2400
1800
2000
4000
8000
8000
4000
3C00
ENDCHAR
STARTCHAR 306A
ENCODING 10826
SWIDTH 1400 0
DWIDTH 14 0
BBX 9 12 2 -2
BITMAP
1000
1000
F900
2080
2200
4200
4200
8200
0E00
1380
1400
0800
ENDCHAR
STARTCHAR 306B
ENCODING 10827
SWIDTH 1400 0
DWIDTH 14 0
BBX 9 10 2 -1
BITMAP
4000
4F80
8000
8000
8000
8000
8000
C800
C780
4000
ENDCHAR
STARTCHAR 306C
ENCODING 10828
SWIDTH 1400 0
DWIDTH 14 0
BBX 10 9 2 -1
BITMAP
0800
5F00
6880
4880
B080
9080
A780
C540
0200
ENDCHAR
STARTCHAR 306D
ENCODING 10829
SWIDTH 1400 0
DWIDTH 14 0
BBX 10 11 2 -1
BITMAP
2000
2000
3000
EF80
3080
2080
6080
A680
AD80
2540
2200
ENDCHAR
STARTCHAR 306E
ENCODING 10830
SWIDTH 1400 0
DWIDTH 14 0
BBX 10 8 2 0
BITMAP
3F00
4880
8840
8840
9040
9040
A080
6100
ENDCHAR
STARTCHAR 306F
ENCODING 10831
SWIDTH 1400 0
DWIDTH 14 0
BBX 10 11 2 -1
BITMAP
0200
4200
4200
9FC0
8100
8100
8100
8100
CF80
C940
4E00
ENDCHAR
STARTCHAR 3070
ENCODING 10832
SWIDTH 1400 0
DWIDTH 14 0
BBX 10 11 2 -1
BITMAP
0040
4100
4140
8FC0
8100
8100
8100
8100
CF80
C940
4E00
ENDCHAR
STARTCHAR 3071
ENCODING 10833
SWIDTH 1400 0
DWIDTH 14 0
BBX 11 12 2 -1
BITMAP
00E0
02A0
42E0
4200
9FC0
8100
8100
8100
8100
CF80
C940
4E00
ENDCHAR
STARTCHAR 3072
ENCODING 10834
SWIDTH 1400 0
DWIDTH 14 0
BBX 10 10 2 -1
BITMAP
3000
E100
4180
4140
8200
8200
8200
8200
4400
3800
ENDCHAR
STARTCHAR 3073
ENCODING 10835
SWIDTH 1400 0
DWIDTH 14 0
BBX 11 11 2 -1
BITMAP
0040
30A0
E140
4280
4240
8200
8200
8200
8200
4400
3800
ENDCHAR
STARTCHAR 3074
ENCODING 10836
SWIDTH 1400 0
DWIDTH 14 0
BBX 11 11 2 -1
BITMAP
00E0
30A0
E1E0
4180
4140
8200
8200
8200
8200
4400
3800
ENDCHAR
STARTCHAR 3075
ENCODING 10837
SWIDTH 1400 0
DWIDTH 14 0
BBX 10 10 2 -1
BITMAP
0800
0400
0000
0000
1000
0900
0480
2440
D400
0800
ENDCHAR
STARTCHAR 3076
ENCODING 10838
SWIDTH 1400 0
DWIDTH 14 0
BBX 10 10 2 -1
BITMAP
0800
0480
0140
0080
1000
0900
0480
2440
D400
0800
ENDCHAR
STARTCHAR 3077
ENCODING 10839
SWIDTH 1400 0
DWIDTH 14 0
BBX 10 10 2 -1
BITMAP
0800
05C0
0140
01C0
1000
0900
0480
2440
D400
0800
ENDCHAR
STARTCHAR 3078
ENCODING 10840
SWIDTH 1400 0
DWIDTH 14 0
BBX 10 6 2 1
BITMAP
1000
2800
4400
8300
0080
0040
ENDCHAR
STARTCHAR 3079
ENCODING 10841
SWIDTH 1400 0
DWIDTH 14 0
BBX 10 6 2 1
BITMAP
1100
2800
4400
8300
0080
0040
ENDCHAR
STARTCHAR 307A
ENCODING 10842
SWIDTH 1400 0
DWIDTH 14 0
BBX 10 7 2 1
BITMAP
0180
1180
2980
4400
8300
0080
0040
ENDCHAR
STARTCHAR 307B
ENCODING 10843
SWIDTH 1400 0
DWIDTH 14 0
BBX 9 10 2 -1
BITMAP
5F00
4200
8200
9F00
8200
8200
8200
DF00
D280
5C00
ENDCHAR
STARTCHAR 307C
ENCODING 10844
SWIDTH 1400 0
DWIDTH 14 0
BBX 11 10 2 -1
BITMAP
5F40
82A0
8240
9F80
8200
8200
8200
DF00
D280
5C00
ENDCHAR
STARTCHAR 307D
ENCODING 10845
SWIDTH 1400 0
DWIDTH 14 0
BBX 11 10 2 -1
BITMAP
5F00
82E0
82A0
9FC0
8200
8200
8200
DF00
D280
5C00
ENDCHAR
STARTCHAR 307E
ENCODING 10846
SWIDTH 1400 0
DWIDTH 14 0
BBX 7 11 3 -1
BITMAP
10
10
DE
30
10
FC
10
10
F0
9C
F2
ENDCHAR
STARTCHAR 307F
ENCODING 10847
SWIDTH 1400 0
DWIDTH 14 0
BBX 10 9 2 0
BITMAP
3C00
0800
0900
1100
3D00
6380
A240
C200
0400
ENDCHAR
STARTCHAR 3080
ENCODING 10848
SWIDTH 1400 0
DWIDTH 14 0
BBX 10 10 2 -1
BITMAP
1000
1C00
2080
2040
E000
9000
A080
6080
2080
1F00
ENDCHAR
STARTCHAR 3081
ENCODING 10849
SWIDTH 1400 0
DWIDTH 14 0
BBX 10 10 2 -1
BITMAP
0400
4400
4F00
7480
6C40
A840
9840
B840
6880
0300
ENDCHAR
STARTCHAR 3082
ENCODING 10850
SWIDTH 1400 0
DWIDTH 14 0
BBX 8 11 2 -1
BITMAP
10
10
10
3C
20
A2
79
21
21
11
1E
ENDCHAR
STARTCHAR 3083
ENCODING 10851
SWIDTH 1400 0
DWIDTH 14 0
BBX 7 6 3 -1
BITMAP
46
3A
E2
2C
20
10
ENDCHAR
STARTCHAR 3084
ENCODING 10852
SWIDTH 1400 0
DWIDTH 14 0
BBX 9 10 3 -1
BITMAP
1000
8800
8F00
7080
C080
2300
2400
2000
1000
1000
ENDCHAR
STARTCHAR 3085
ENCODING 10853
SWIDTH 1400 0
DWIDTH 14 0
BBX 7 6 3 0
BITMAP
08
8C
BA
CA
4A
8C
ENDCHAR
STARTCHAR 3086
ENCODING 10854
SWIDTH 1400 0
DWIDTH 14 0
BBX 10 10 1 0
BITMAP
4000
4200
4780
9A40
A240
C240
4240
4C80
4700
4000
ENDCHAR
STARTCHAR 3087
ENCODING 10855
SWIDTH 1400 0
DWIDTH 14 0
BBX 5 8 4 -1
BITMAP
20
20
38
20
20
E0
B8
C0
ENDCHAR
STARTCHAR 3088
ENCODING 10856
SWIDTH 1400 0
DWIDTH 14 0
BBX 7 11 3 -1
BITMAP
10
10
10
1C
10
10
10
10
EC
92
E0
ENDCHAR
STARTCHAR 3089
ENCODING 10857
SWIDTH 1400 0
DWIDTH 14 0
BBX 7 10 4 -1
BITMAP
20
80
80
80
9C
E2
82
02
06
38
ENDCHAR
STARTCHAR 308A
ENCODING 10858
SWIDTH 1400 0
DWIDTH 14 0
BBX 6 11 4 -1
BITMAP
48
88
88
84
84
C4
C8
08
08
08
10
ENDCHAR
STARTCHAR 308B
ENCODING 10859
SWIDTH 1400 0
DWIDTH 14 0
BBX 8 10 3 -1
BITMAP
78
08
10
20
7E
81
01
7A
4A
3C
ENDCHAR
STARTCHAR 308C
ENCODING 10860
SWIDTH 1400 0
DWIDTH 14 0
BBX 10 11 2 -1
BITMAP
2000
2000
2000
6700
3900
3100
6100
6100
A100
2140
2080
ENDCHAR
STARTCHAR 308D
ENCODING 10861
SWIDTH 1400 0
DWIDTH 14 0
BBX 8 10 3 -1
BITMAP
3C
08
10
20
3E
41
81
01
02
1C
ENDCHAR
STARTCHAR 308E
ENCODING 10862
SWIDTH 1400 0
DWIDTH 14 0
BBX 8 8 3 -2
BITMAP
20
20
76
3A
61
A1
A2
24
ENDCHAR
STARTCHAR 308F
ENCODING 10863
SWIDTH 1400 0
DWIDTH 14 0
BBX 9 11 2 -1
BITMAP
2000
2000
3000
E700
3880
2080
6080
A080
A080
2300
2000
ENDCHAR
STARTCHAR 3090
ENCODING 10864
SWIDTH 1400 0
DWIDTH 14 0
BBX 9 10 2 -1
BITMAP
3800
0800
0800
1E00
7100
5080
A080
AC80
CB00
0E00
ENDCHAR
STARTCHAR 3091
ENCODING 10865
SWIDTH 1400 0
DWIDTH 14 0
BBX 9 10 3 -1
BITMAP
3C00
0800
1000
3F00
5900
2900
1E00
6700
E880
1080
ENDCHAR
STARTCHAR 3092
ENCODING 10866
SWIDTH 1400 0
DWIDTH 14 0
BBX 8 11 3 -1
BITMAP
20
20
F8
40
70
8B
0C
38
48
40
3E
ENDCHAR
STARTCHAR 3093
ENCODING 10867
SWIDTH 1400 0
DWIDTH 14 0
BBX 10 11 2 -1
BITMAP
0800
0800
1000
1000
2000
2000
3C00
4440
4480
8480
8300
ENDCHAR
STARTCHAR 30A1
ENCODING 11041
SWIDTH 1400 0
DWIDTH 14 0
BBX 6 5 4 0
BITMAP
FC
24
28
20
40
ENDCHAR
STARTCHAR 30A2
ENCODING 11042
SWIDTH 1400 0
DWIDTH 14 0
BBX 9 9 2 -1
BITMAP
FF80
0880
0900
0A00
0800
1000
1000
2000
4000
ENDCHAR
STARTCHAR 30A3
ENCODING 11043
SWIDTH 1400 0
DWIDTH 14 0
BBX 5 6 3 -1
BITMAP
08
30
D0
10
10
10
ENDCHAR
STARTCHAR 30A4
ENCODING 11044
SWIDTH 1400 0
DWIDTH 14 0
BBX 7 10 3 -1
BITMAP
02
04
08
30
D0
10
10
10
10
10
ENDCHAR
STARTCHAR 30A5
ENCODING 11045
SWIDTH 1400 0
DWIDTH 14 0
BBX 6 7 4 -1
BITMAP
20
FC
84
88
08
10
10
ENDCHAR
STARTCHAR 30A6
ENCODING 11046
SWIDTH 1400 0
DWIDTH 14 0
BBX 8 11 3 -1
BITMAP
10
10
FF
81
81
81
02
02
04
08
10
ENDCHAR
STARTCHAR 30A7
ENCODING 11047
SWIDTH 1400 0
DWIDTH 14 0
BBX 7 5 3 -1
BITMAP
7E
10
10
10
FE
ENDCHAR
STARTCHAR 30A8
ENCODING 11048
SWIDTH 1400 0
DWIDTH 14 0
BBX 9 7 2 1
BITMAP
FF80
0800
0800
0800
0800
0800
FF80
ENDCHAR
STARTCHAR 30A9
ENCODING 11049
SWIDTH 1400 0
DWIDTH 14 0
BBX 7 7 3 -1
BITMAP
08
08
FE
18
28
C8
38
ENDCHAR
STARTCHAR 30AA
ENCODING 11050
SWIDTH 1400 0
DWIDTH 14 0
BBX 9 10 2 -1
BITMAP
0400
0400
FF80
0C00
1400
1400
2400
C400
0400
1C00
ENDCHAR
STARTCHAR 30AB
ENCODING 11051
SWIDTH 1400 0
DWIDTH 14 0
BBX 8 10 3 0
BITMAP
10
10
10
FF
11
11
21
21
42
8E
ENDCHAR
STARTCHAR 30AC
ENCODING 11052
SWIDTH 1400 0
DWIDTH 14 0
BBX 10 10 3 0
BITMAP
1080
1140
1080
FF00
1100
1100
2100
2100
4200
8E00
ENDCHAR
STARTCHAR 30AD
ENCODING 11053
SWIDTH 1400 0
DWIDTH 14 0
BBX 7 10 3 -1
BITMAP
10
10
FC
10
10
FE
10
08
08
08
ENDCHAR
STARTCHAR 30AE
ENCODING 11054
SWIDTH 1400 0
DWIDTH 14 0
BBX 9 11 3 -1
BITMAP
0080
1100
1000
FC00
1000
1000
FE00
1000
0800
0800
0800
ENDCHAR
STARTCHAR 30AF
ENCODING 11055
SWIDTH 1400 0
DWIDTH 14 0
BBX 8 11 2 -2
BITMAP
08
10
1F
21
42
82
04
08
10
20
C0
ENDCHAR
STARTCHAR 30B0
ENCODING 11056
SWIDTH 1400 0
DWIDTH 14 0
BBX 10 11 3 -1
BITMAP
0880
1040
1E80
2200
4200
8400
0400
0800
1000
2000
C000
ENDCHAR
STARTCHAR 30B1
ENCODING 11057
SWIDTH 1400 0
DWIDTH 14 0
BBX 10 11 2 -1
BITMAP
1000
1000
2000
3FC0
2400
4400
8400
0400
0800
1000
2000
ENDCHAR
STARTCHAR 30B2
ENCODING 11058
SWIDTH 1400 0
DWIDTH 14 0
BBX 11 11 2 -1
BITMAP
1040
10A0
2040
3FC0
2400
4400
8400
0400
0800
1000
2000
ENDCHAR
STARTCHAR 30B3
ENCODING 11059
SWIDTH 1400 0
DWIDTH 14 0
BBX 8 8 2 0
BITMAP
7F
01
01
01
01
01
FF
01
ENDCHAR
STARTCHAR 30B4
ENCODING 11060
SWIDTH 1400 0
DWIDTH 14 0
BBX 11 9 2 0
BITMAP
0060
7F00
0100
0100
0100
0100
0100
FF00
0100
ENDCHAR
STARTCHAR 30B5
ENCODING 11061
SWIDTH 1400 0
DWIDTH 14 0
BBX 11 11 1 -1
BITMAP
1100
1100
1100
FFE0
1100
1100
1100
0200
0200
0400
0800
ENDCHAR
STARTCHAR 30B6
ENCODING 11062
SWIDTH 1400 0
DWIDTH 14 0
BBX 11 11 1 -1
BITMAP
1120
1100
1100
FFE0
1100
1100
1100
0200
0200
0400
0800
ENDCHAR
STARTCHAR 30B7
ENCODING 11063
SWIDTH 1400 0
DWIDTH 14 0
BBX 9 9 3 0
BITMAP
6000
1000
0000
8080
4100
0200
0400
1800
6000
ENDCHAR
STARTCHAR 30B8
ENCODING 11064
SWIDTH 1400 0
DWIDTH 14 0
BBX 9 9 3 0
BITMAP
4100
2200
1000
8080
4100
0200
0400
1800
6000
ENDCHAR
STARTCHAR 30B9
ENCODING 11065
SWIDTH 1400 0
DWIDTH 14 0
BBX 9 9 2 -1
BITMAP
7F00
0200
0200
0400
0400
0A00
1100
6080
8000
ENDCHAR
STARTCHAR 30BA
ENCODING 11066
SWIDTH 1400 0
DWIDTH 14 0
BBX 11 10 2 -1
BITMAP
0020
7F40
0200
0200
0400
0400
0A00
1100
6080
8000
ENDCHAR
STARTCHAR 30BB
ENCODING 11067
SWIDTH 1400 0
DWIDTH 14 0
BBX 8 9 2 0
BITMAP
20
20
27
F9
22
24
20
20
1F
ENDCHAR
STARTCHAR 30BC
ENCODING 11068
SWIDTH 1400 0
DWIDTH 14 0
BBX 11 10 1 0
BITMAP
1020
1040
1080
1F80
F080
1100
1200
1000
1000
0F80
ENDCHAR
STARTCHAR 30BD
ENCODING 11069
SWIDTH 1400 0
DWIDTH 14 0
BBX 8 10 3 -1
BITMAP
01
82
42
42
04
04
08
08
10
60
ENDCHAR
STARTCHAR 30BE
ENCODING 11070
SWIDTH 1400 0
DWIDTH 14 0
BBX 10 11 3 -1
BITMAP
0040
0180
8200
4200
4200
0400
0400
0800
0800
1000
6000
ENDCHAR
STARTCHAR 30BF
ENCODING 11071
SWIDTH 1400 0
DWIDTH 14 0
BBX 7 10 3 -1
BITMAP
10
1E
22
42
94
0C
08
10
20
C0
ENDCHAR
STARTCHAR 30C0
ENCODING 11072
SWIDTH 1400 0
DWIDTH 14 0
BBX 9 10 3 -1
BITMAP
1000
1E80
2200
4200
9400
0C00
0800
1000
2000
C000
ENDCHAR
STARTCHAR 30C1
ENCODING 11073
SWIDTH 1400 0
DWIDTH 14 0
BBX 10 11 2 -2
BITMAP
0300
7C00
0400
0400
FFC0
0400
0800
0800
1000
1000
2000
ENDCHAR
STARTCHAR 30C2
ENCODING 11074
SWIDTH 1400 0
DWIDTH 14 0
BBX 11 11 2 -2
BITMAP
0300
7C20
0440
0400
FFC0
0400
0400
0800
0800
1000
2000
ENDCHAR
STARTCHAR 30C3
ENCODING 11075
SWIDTH 1400 0
DWIDTH 14 0
BBX 6 6 4 -1
BITMAP
A4
84
08
08
10
20
ENDCHAR
STARTCHAR 30C4
ENCODING 11076
SWIDTH 1400 0
DWIDTH 14 0
BBX 8 10 3 -1
BITMAP
01
11
91
02
02
04
04
08
10
20
ENDCHAR
STARTCHAR 30C5
ENCODING 11077
SWIDTH 1400 0
DWIDTH 14 0
BBX 10 12 3 -1
BITMAP
0080
0040
0080
1100
9100
0200
0200
0200
0400
0800
1000
2000
ENDCHAR
STARTCHAR 30C6
ENCODING 11078
SWIDTH 1400 0
DWIDTH 14 0
BBX 10 10 2 -1
BITMAP
3F00
0000
0000
FFC0
0400
0400
0400
0800
1000
2000
ENDCHAR
STARTCHAR 30C7
ENCODING 11079
SWIDTH 1400 0
DWIDTH 14 0
BBX 12 10 1 -1
BITMAP
1F80
0030
0000
FFC0
0400
0400
0400
0800
1000
2000
ENDCHAR
STARTCHAR 30C8
ENCODING 11080
SWIDTH 1400 0
DWIDTH 14 0
BBX 4 10 5 -1
BITMAP
80
80
80
C0
B0
90
80
80
80
80
ENDCHAR
STARTCHAR 30C9
ENCODING 11081
SWIDTH 1400 0
DWIDTH 14 0
BBX 6 10 5 -1
BITMAP
84
88
80
C0
B0
90
80
80
80
80
ENDCHAR
STARTCHAR 30CA
ENCODING 11082
SWIDTH 1400 0
DWIDTH 14 0
BBX 10 11 2 -1
BITMAP
0400
0400
0400
FFC0
0400
0400
0400
0800
0800
1000
2000
ENDCHAR
STARTCHAR 30CB
ENCODING 11083
SWIDTH 1400 0
DWIDTH 14 0
BBX 9 7 2 1
BITMAP
3F00
0000
0000
0000
0000
0000
FF80
ENDCHAR
STARTCHAR 30CC
ENCODING 11084
SWIDTH 1400 0
DWIDTH 14 0
BBX 7 9 3 0
BITMAP
FE
02
04
24
1C
0C
12
20
40
ENDCHAR
STARTCHAR 30CD
ENCODING 11085
SWIDTH 1400 0
DWIDTH 14 0
BBX 8 11 3 -1
BITMAP
08
08
FE
02
04
08
3A
C9
08
08
08
ENDCHAR
STARTCHAR 30CE
ENCODING 11086
SWIDTH 1400 0
DWIDTH 14 0
BBX 6 9 4 0
BITMAP
04
04
08
08
10
10
20
40
80
ENDCHAR
STARTCHAR 30CF
ENCODING 11087
SWIDTH 1400 0
DWIDTH 14 0
BBX 10 7 2 1
BITMAP
0200
0100
2100
2080
4080
4080
8040
ENDCHAR
STARTCHAR 30D0
ENCODING 11088
SWIDTH 1400 0
DWIDTH 14 0
BBX 10 7 2 1
BITMAP
0200
0140
2100
2080
4080
4080
8040
ENDCHAR
STARTCHAR 30D1
ENCODING 11089
SWIDTH 1400 0
DWIDTH 14 0
BBX 10 8 2 1
BITMAP
00C0
02C0
0100
2100
2080
4080
4080
8040
ENDCHAR
STARTCHAR 30D2
ENCODING 11090
SWIDTH 1400 0
DWIDTH 14 0
BBX 7 9 4 0
BITMAP
80
80
84
B8
C0
80
80
80
7E
ENDCHAR
STARTCHAR 30D3
ENCODING 11091
SWIDTH 1400 0
DWIDTH 14 0
BBX 9 10 4 0
BITMAP
0200
8180
8000
8C00
F000
8000
8000
8000
8000
7E00
ENDCHAR
STARTCHAR 30D4
ENCODING 11092
SWIDTH 1400 0
DWIDTH 14 0
BBX 8 10 4 0
BITMAP
03
83
80
8C
F0
80
80
80
80
7E
ENDCHAR
STARTCHAR 30D5
ENCODING 11093
SWIDTH 1400 0
DWIDTH 14 0
BBX 8 9 3 -1
BITMAP
FF
01
02
02
02
04
08
10
20
ENDCHAR
STARTCHAR 30D6
ENCODING 11094
SWIDTH 1400 0
DWIDTH 14 0
BBX 10 12 3 -1
BITMAP
0080
0140
0080
FF00
0100
0200
0200
0400
0400
0800
1000
2000
ENDCHAR
STARTCHAR 30D7
ENCODING 11095
SWIDTH 1400 0
DWIDTH 14 0
BBX 10 12 3 -1
BITMAP
00C0
0140
0080
FF00
0100
0200
0200
0400
0400
0800
1000
2000
ENDCHAR
STARTCHAR 30D8
ENCODING 11096
SWIDTH 1400 0
DWIDTH 14 0
BBX 10 5 2 2
BITMAP
1000
6800
8600
0100
00C0
ENDCHAR
STARTCHAR 30D9
ENCODING 11097
SWIDTH 1400 0
DWIDTH 14 0
BBX 10 7 2 2
BITMAP
0100
0000
1100
6800
8600
0100
00C0
ENDCHAR
STARTCHAR 30DA
ENCODING 11098
SWIDTH 1400 0
DWIDTH 14 0
BBX 9 8 3 1
BITMAP
0600
0600
2000
5000
8800
0600
0100
0080
ENDCHAR
STARTCHAR 30DB
ENCODING 11099
SWIDTH 1400 0
DWIDTH 14 0
BBX 10 10 2 -1
BITMAP
0800
0800
FF80
0800
2900
4880
4880
8840
0800
3800
ENDCHAR
STARTCHAR 30DC
ENCODING 11100
SWIDTH 1400 0
DWIDTH 14 0
BBX 10 11 2 -1
BITMAP
0080
0800
0880
FF80
0800
2900
4880
4880
8840
0800
3800
ENDCHAR
STARTCHAR 30DD
ENCODING 11101
SWIDTH 1400 0
DWIDTH 14 0
BBX 10 11 2 -1
BITMAP
0180
0980
0800
FF80
0800
2900
4880
4880
8840
0800
3800
ENDCHAR
STARTCHAR 30DE
ENCODING 11102
SWIDTH 1400 0
DWIDTH 14 0
BBX 9 7 2 1
BITMAP
FF80
0080
0100
2200
1400
0800
0400
ENDCHAR
STARTCHAR 30DF
ENCODING 11103
SWIDTH 1400 0
DWIDTH 14 0
BBX 6 9 4 0
BITMAP
60
18
00
C0
38
00
00
70
0C
ENDCHAR
STARTCHAR 30E0
ENCODING 11104
SWIDTH 1400 0
DWIDTH 14 0
BBX 8 8 3 0
BITMAP
10
10
20
20
22
42
BF
41
ENDCHAR
STARTCHAR 30E1
ENCODING 11105
SWIDTH 1400 0
DWIDTH 14 0
BBX 7 9 3 0
BITMAP
02
04
04
24
18
14
20
40
80
ENDCHAR
STARTCHAR 30E2
ENCODING 11106
SWIDTH 1400 0
DWIDTH 14 0
BBX 10 9 2 -1
BITMAP
7F80
0800
0800
FFC0
0800
0800
0800
0800
0F80
ENDCHAR
STARTCHAR 30E3
ENCODING 11107
SWIDTH 1400 0
DWIDTH 14 0
BBX 7 6 3 0
BITMAP
20
26
FC
14
10
10
ENDCHAR
STARTCHAR 30E4
ENCODING 11108
SWIDTH 1400 0
DWIDTH 14 0
BBX 8 10 3 -1
BITMAP
20
20
2F
F1
22
24
10
10
10
10
ENDCHAR
STARTCHAR 30E5
ENCODING 11109
SWIDTH 1400 0
DWIDTH 14 0
BBX 7 5 4 -1
BITMAP
78
08
08
08
FE
ENDCHAR
STARTCHAR 30E6
ENCODING 11110
SWIDTH 1400 0
DWIDTH 14 0
BBX 10 7 2 1
BITMAP
3E00
0200
0200
0200
0200
0200
FFC0
ENDCHAR
STARTCHAR 30E7
ENCODING 11111
SWIDTH 1400 0
DWIDTH 14 0
BBX 5 7 4 -2
BITMAP
F8
08
08
F8
08
F8
08
ENDCHAR
STARTCHAR 30E8
ENCODING 11112
SWIDTH 1400 0
DWIDTH 14 0
BBX 7 9 3 -1
BITMAP
FE
02
02
FE
02
02
02
FE
02
ENDCHAR
STARTCHAR 30E9
ENCODING 11113
SWIDTH 1400 0
DWIDTH 14 0
BBX 7 10 3 -1
BITMAP
7E
00
00
FE
02
02
04
04
08
30
ENDCHAR
STARTCHAR 30EA
ENCODING 11114
SWIDTH 1400 0
DWIDTH 14 0
BBX 6 11 4 -1
BITMAP
04
84
84
84
84
84
84
08
08
10
10
ENDCHAR
STARTCHAR 30EB
ENCODING 11115
SWIDTH 1400 0
DWIDTH 14 0
BBX 10 9 2 0
BITMAP
2400
2400
2400
2400
2440
2440
4480
4700
8400
ENDCHAR
STARTCHAR 30EC
ENCODING 11116
SWIDTH 1400 0
DWIDTH 14 0
BBX 8 9 3 0
BITMAP
80
80
80
81
81
82
8C
B0
C0
ENDCHAR
STARTCHAR 30ED
ENCODING 11117
SWIDTH 1400 0
DWIDTH 14 0
BBX 7 8 3 0
BITMAP
FE
82
82
82
82
82
FE
82
ENDCHAR
STARTCHAR 30EE
ENCODING 11118
SWIDTH 1400 0
DWIDTH 14 0
BBX 6 6 4 -1
BITMAP
FC
84
84
88
08
10
ENDCHAR
STARTCHAR 30EF
ENCODING 11119
SWIDTH 1400 0
DWIDTH 14 0
BBX 7 10 3 -1
BITMAP
FE
82
82
82
84
04
08
08
10
20
ENDCHAR
STARTCHAR 30F0
ENCODING 11120
SWIDTH 1400 0
DWIDTH 14 0
BBX 10 10 2 -1
BITMAP
0200
0200
FF80
2200
2200
2200
FFC0
0200
0200
0200
ENDCHAR
STARTCHAR 30F1
ENCODING 11121
SWIDTH 1400 0
DWIDTH 14 0
BBX 10 8 2 0
BITMAP
7F80
0100
0900
0800
0800
0800
0800
FFC0
ENDCHAR
STARTCHAR 30F2
ENCODING 11122
SWIDTH 1400 0
DWIDTH 14 0
BBX 7 10 3 -1
BITMAP
FE
02
02
02
FE
04
04
08
10
20
ENDCHAR
STARTCHAR 30F3
ENCODING 11123
SWIDTH 1400 0
DWIDTH 14 0
BBX 8 9 3 0
BITMAP
80
40
00
01
02
04
08
30
C0
ENDCHAR
STARTCHAR 30F4
ENCODING 11124
SWIDTH 1400 0
DWIDTH 14 0
BBX 9 10 3 0
BITMAP
1100
1080
FF00
8100
8100
8100
0200
0200
0400
0800
ENDCHAR
STARTCHAR 30F5
ENCODING 11125
SWIDTH 1400 0
DWIDTH 14 0
BBX 6 6 4 -1
BITMAP
20
FC
24
24
44
98
ENDCHAR
STARTCHAR 30F6
ENCODING 11126
SWIDTH 1400 0
DWIDTH 14 0
BBX 7 8 3 -2
BITMAP
20
40
7E
48
88
10
10
20
ENDCHAR
STARTCHAR 0410
ENCODING 11297
SWIDTH 1400 0
DWIDTH 14 0
BBX 7 10 3 0
BITMAP
10
28
28
24
44
7C
44
82
82
80
ENDCHAR
STARTCHAR 0411
ENCODING 11298
SWIDTH 1400 0
DWIDTH 14 0
BBX 6 10 4 0
BITMAP
FC
80
80
80
F8
84
84
84
84
F8
ENDCHAR
STARTCHAR 0412
ENCODING 11299
SWIDTH 1400 0
DWIDTH 14 0
BBX 7 10 4 0
BITMAP
F8
84
84
84
88
F4
82
82
82
FC
ENDCHAR
STARTCHAR 0413
ENCODING 11300
SWIDTH 1400 0
DWIDTH 14 0
BBX 6 10 5 0
BITMAP
FC
80
80
80
80
80
80
80
80
80
ENDCHAR
STARTCHAR 0414
ENCODING 11301
SWIDTH 1400 0
DWIDTH 14 0
BBX 8 10 3 0
BITMAP
7E
42
42
42
42
42
42
BD
81
81
ENDCHAR
STARTCHAR 0415
ENCODING 11302
SWIDTH 1400 0
DWIDTH 14 0
BBX 7 10 4 0
BITMAP
FC
80
80
80
80
F8
80
80
80
FE
ENDCHAR
STARTCHAR 0401
ENCODING 11303
SWIDTH 1400 0
DWIDTH 14 0
BBX 7 8 4 0
BITMAP
FC
80
80
FC
80
80
80
FE
ENDCHAR
STARTCHAR 0416
ENCODING 11304
SWIDTH 1400 0
DWIDTH 14 0
BBX 8 10 3 0
BITMAP
91
52
52
52
54
7A
91
91
91
91
ENDCHAR
STARTCHAR 0417
ENCODING 11305
SWIDTH 1400 0
DWIDTH 14 0
BBX 7 10 3 0
BITMAP
3C
42
82
02
1C
06
02
82
82
7C
ENDCHAR
STARTCHAR 0418
ENCODING 11306
SWIDTH 1400 0
DWIDTH 14 0
BBX 7 10 3 0
BITMAP
82
86
8A
8A
92
A2
A2
C2
C2
82
ENDCHAR
STARTCHAR 0419
ENCODING 11307
SWIDTH 1400 0
DWIDTH 14 0
BBX 7 10 3 0
BITMAP
24
1C
82
8E
8A
92
A2
A2
C2
82
ENDCHAR
STARTCHAR 041A
ENCODING 11308
SWIDTH 1400 0
DWIDTH 14 0
BBX 6 10 4 0
BITMAP
84
88
90
90
90
F0
88
88
88
84
ENDCHAR
STARTCHAR 041B
ENCODING 11309
SWIDTH 1400 0
DWIDTH 14 0
BBX 8 10 2 0
BITMAP
3F
21
21
21
21
21
21
21
21
C1
ENDCHAR
STARTCHAR 041C
ENCODING 11310
SWIDTH 1400 0
DWIDTH 14 0
BBX 8 10 3 0
BITMAP
81
C3
C5
C5
A5
A9
A9
99
99
81
ENDCHAR
STARTCHAR 041D
ENCODING 11311
SWIDTH 1400 0
DWIDTH 14 0
BBX 7 10 3 0
BITMAP
82
82
82
82
82
FE
82
82
82
82
ENDCHAR
STARTCHAR 041E
ENCODING 11312
SWIDTH 1400 0
DWIDTH 14 0
BBX 8 10 3 0
BITMAP
3C
42
C3
81
81
81
81
81
42
3C
ENDCHAR
STARTCHAR 041F
ENCODING 11313
SWIDTH 1400 0
DWIDTH 14 0
BBX 6 10 4 0
BITMAP
FC
84
84
84
84
84
84
84
84
84
ENDCHAR
STARTCHAR 0420
ENCODING 11314
SWIDTH 1400 0
DWIDTH 14 0
BBX 6 10 4 0
BITMAP
F8
84
84
84
84
F8
80
80
80
80
ENDCHAR
STARTCHAR 0421
ENCODING 11315
SWIDTH 1400 0
DWIDTH 14 0
BBX 8 10 3 0
BITMAP
1C
62
41
80
80
80
81
81
42
3C
ENDCHAR
STARTCHAR 0422
ENCODING 11316
SWIDTH 1400 0
DWIDTH 14 0
BBX 8 10 3 0
BITMAP
FF
10
10
10
10
10
10
10
10
10
ENDCHAR
STARTCHAR 0423
ENCODING 11317
SWIDTH 1400 0
DWIDTH 14 0
BBX 6 10 4 0
BITMAP
04
84
88
88
50
50
30
20
20
C0
ENDCHAR
STARTCHAR 0424
ENCODING 11318
SWIDTH 1400 0
DWIDTH 14 0
BBX 9 10 2 0
BITMAP
0800
3E00
4900
8880
8880
8880
8880
4900
3E00
0800
ENDCHAR
STARTCHAR 0425
ENCODING 11319
SWIDTH 1400 0
DWIDTH 14 0
BBX 6 10 4 0
BITMAP
84
8C
48
50
30
20
50
48
88
84
ENDCHAR
STARTCHAR 0426
ENCODING 11320
SWIDTH 1400 0
DWIDTH 14 0
BBX 8 11 3 -1
BITMAP
82
82
82
82
82
82
82
82
FF
01
01
ENDCHAR
STARTCHAR 0427
ENCODING 11321
SWIDTH 1400 0
DWIDTH 14 0
BBX 6 10 4 0
BITMAP
84
84
84
84
84
8C
74
04
04
04
ENDCHAR
STARTCHAR 0428
ENCODING 11322
SWIDTH 1400 0
DWIDTH 14 0
BBX 9 10 2 0
BITMAP
8880
8880
8880
8880
8880
8880
8880
8880
8880
FF80
ENDCHAR
STARTCHAR 0429
ENCODING 11323
SWIDTH 1400 0
DWIDTH 14 0
BBX 10 11 2 -1
BITMAP
8880
8880
8880
8880
8880
8880
8880
8880
FFC0
0040
0040
ENDCHAR
STARTCHAR 042A
ENCODING 11324
SWIDTH 1400 0
DWIDTH 14 0
BBX 8 10 3 0
BITMAP
E0
20
20
20
3E
21
21
21
21
3E
ENDCHAR
STARTCHAR 042B
ENCODING 11325
SWIDTH 1400 0
DWIDTH 14 0
BBX 8 10 3 0
BITMAP
81
81
81
81
F9
85
85
85
85
F9
ENDCHAR
STARTCHAR 042C
ENCODING 11326
SWIDTH 1400 0
DWIDTH 14 0
BBX 6 10 4 0
BITMAP
80
80
80
80
F8
84
84
84
84
F8
ENDCHAR
STARTCHAR 042D
ENCODING 11327
SWIDTH 1400 0
DWIDTH 14 0
BBX 8 10 3 0
BITMAP
38
46
82
01
01
1F
01
82
82
7C
ENDCHAR
STARTCHAR 042E
ENCODING 11328
SWIDTH 1400 0
DWIDTH 14 0
BBX 10 10 2 0
BITMAP
8700
8880
9040
9040
9040
F040
9040
9040
8880
8700
ENDCHAR
STARTCHAR 042F
ENCODING 11329
SWIDTH 1400 0
DWIDTH 14 0
BBX 7 11 3 -1
BITMAP
7E
C2
82
82
82
7E
82
82
82
82
02
ENDCHAR
STARTCHAR 0430
ENCODING 11345
SWIDTH 1400 0
DWIDTH 14 0
BBX 6 9 4 -1
BITMAP
70
88
88
08
F8
88
88
BC
40
ENDCHAR
STARTCHAR 0431
ENCODING 11346
SWIDTH 1400 0
DWIDTH 14 0
BBX 6 10 4 0
BITMAP
7C
40
80
B8
C4
84
84
84
8C
78
ENDCHAR
STARTCHAR 0432
ENCODING 11347
SWIDTH 1400 0
DWIDTH 14 0
BBX 5 8 4 0
BITMAP
F8
88
88
90
F8
88
88
F8
ENDCHAR
STARTCHAR 0433
ENCODING 11348
SWIDTH 1400 0
DWIDTH 14 0
BBX 4 8 5 0
BITMAP
F0
80
80
80
80
80
80
80
ENDCHAR
STARTCHAR 0434
ENCODING 11349
SWIDTH 1400 0
DWIDTH 14 0
BBX 7 8 3 0
BITMAP
7C
44
44
44
44
44
FE
82
ENDCHAR
STARTCHAR 0435
ENCODING 11350
SWIDTH 1400 0
DWIDTH 14 0
BBX 6 8 4 0
BITMAP
38
48
84
84
FC
84
48
38
ENDCHAR
STARTCHAR 0451
ENCODING 11351
SWIDTH 1400 0
DWIDTH 14 0
BBX 6 10 4 0
BITMAP
40
00
78
48
84
84
FC
80
84
78
ENDCHAR
STARTCHAR 0436
ENCODING 11352
SWIDTH 1400 0
DWIDTH 14 0
BBX 6 8 4 0
BITMAP
84
A4
A8
A8
FC
A4
A4
A4
ENDCHAR
STARTCHAR 0437
ENCODING 11353
SWIDTH 1400 0
DWIDTH 14 0
BBX 6 8 4 0
BITMAP
70
88
88
08
38
4C
44
38
ENDCHAR
STARTCHAR 0438
ENCODING 11354
SWIDTH 1400 0
DWIDTH 14 0
BBX 5 7 4 0
BITMAP
88
88
B8
A8
C8
88
88
ENDCHAR
STARTCHAR 0439
ENCODING 11355
SWIDTH 1400 0
DWIDTH 14 0
BBX 5 10 4 0
BITMAP
48
30
00
88
98
A8
A8
C8
88
88
ENDCHAR
STARTCHAR 043A
ENCODING 11356
SWIDTH 1400 0
DWIDTH 14 0
BBX 4 7 5 0
BITMAP
90
90
A0
E0
90
90
90
ENDCHAR
STARTCHAR 043B
ENCODING 11357
SWIDTH 1400 0
DWIDTH 14 0
BBX 6 7 4 0
BITMAP
7C
44
44
44
44
44
C4
ENDCHAR
STARTCHAR 043C
ENCODING 11358
SWIDTH 1400 0
DWIDTH 14 0
BBX 7 7 3 0
BITMAP
CE
CA
CA
AA
B2
92
92
ENDCHAR
STARTCHAR 043D
ENCODING 11359
SWIDTH 1400 0
DWIDTH 14 0
BBX 5 7 4 0
BITMAP
88
88
88
F8
88
88
88
ENDCHAR
STARTCHAR 043E
ENCODING 11360
SWIDTH 1400 0
DWIDTH 14 0
BBX 6 8 4 0
BITMAP
78
48
84
84
84
84
48
78
ENDCHAR
STARTCHAR 043F
ENCODING 11361
SWIDTH 1400 0
DWIDTH 14 0
BBX 6 8 4 0
BITMAP
FC
84
84
84
84
84
84
84
ENDCHAR
STARTCHAR 0440
ENCODING 11362
SWIDTH 1400 0
DWIDTH 14 0
BBX 6 9 4 -1
BITMAP
B8
CC
84
84
84
84
CC
B8
80
ENDCHAR
STARTCHAR 0441
ENCODING 11363
SWIDTH 1400 0
DWIDTH 14 0
BBX 5 8 4 0
BITMAP
30
48
80
80
80
80
48
30
ENDCHAR
STARTCHAR 0442
ENCODING 11364
SWIDTH 1400 0
DWIDTH 14 0
BBX 5 8 4 0
BITMAP
F8
20
20
20
20
20
20
20
ENDCHAR
STARTCHAR 0443
ENCODING 11365
SWIDTH 1400 0
DWIDTH 14 0
BBX 4 8 5 -1
BITMAP
10
90
A0
60
60
40
40
80
ENDCHAR
STARTCHAR 0444
ENCODING 11366
SWIDTH 1400 0
DWIDTH 14 0
BBX 10 11 2 -1
BITMAP
0800
0800
6B80
9CC0
8840
8840
8840
8C40
7B80
0800
0800
ENDCHAR
STARTCHAR 0445
ENCODING 11367
SWIDTH 1400 0
DWIDTH 14 0
BBX 5 7 4 0
BITMAP
08
50
50
20
50
48
88
ENDCHAR
STARTCHAR 0446
ENCODING 11368
SWIDTH 1400 0
DWIDTH 14 0
BBX 6 9 4 -1
BITMAP
88
88
88
88
88
88
FC
04
04
ENDCHAR
STARTCHAR 0447
ENCODING 11369
SWIDTH 1400 0
DWIDTH 14 0
BBX 4 8 5 0
BITMAP
90
90
90
90
90
F0
10
10
ENDCHAR
STARTCHAR 0448
ENCODING 11370
SWIDTH 1400 0
DWIDTH 14 0
BBX 7 8 3 0
BITMAP
92
92
92
92
92
92
92
FE
ENDCHAR
STARTCHAR 0449
ENCODING 11371
SWIDTH 1400 0
DWIDTH 14 0
BBX 8 9 3 -1
BITMAP
82
92
92
92
92
92
FF
01
01
ENDCHAR
STARTCHAR 044A
ENCODING 11372
SWIDTH 1400 0
DWIDTH 14 0
BBX 5 7 5 0
BITMAP
80
80
F0
88
88
88
F0
ENDCHAR
STARTCHAR 044B
ENCODING 11373
SWIDTH 1400 0
DWIDTH 14 0
BBX 6 8 4 0
BITMAP
84
84
84
E4
94
94
94
E4
ENDCHAR
STARTCHAR 044C
ENCODING 11374
SWIDTH 1400 0
DWIDTH 14 0
BBX 4 7 5 0
BITMAP
80
80
E0
90
90
90
E0
ENDCHAR
STARTCHAR 044D
ENCODING 11375
SWIDTH 1400 0
DWIDTH 14 0
BBX 6 8 4 0
BITMAP
30
48
84
04
3C
04
48
30
ENDCHAR
STARTCHAR 044E
ENCODING 11376
SWIDTH 1400 0
DWIDTH 14 0
BBX 8 8 3 0
BITMAP
0E
92
A1
A1
E1
A1
B2
9E
ENDCHAR
STARTCHAR 044F
ENCODING 11377
SWIDTH 1400 0
DWIDTH 14 0
BBX 5 8 4 0
BITMAP
78
88
88
88
78
88
88
88
ENDCHAR
STARTCHAR AC00
ENCODING 12321
SWIDTH 1400 0
DWIDTH 14 0
BBX 12 12 1 -2
BITMAP
FC40
0440
0440
0440
0470
0440
0840
1040
2040
C040
0040
0040
ENDCHAR
STARTCHAR AC01
ENCODING 12322
SWIDTH 1400 0
DWIDTH 14 0
BBX 12 12 1 -2
BITMAP
FC40
0440
0470
0440
0840
1040
E040
0000
7FC0
0040
0040
0040
ENDCHAR
STARTCHAR AC04
ENCODING 12323
SWIDTH 1400 0
DWIDTH 14 0
BBX 12 12 1 -2
BITMAP
FC40
0440
0440
0470
0440
1840
E040
0040
4040
4000
4000
7FC0
ENDCHAR
STARTCHAR AC07
ENCODING 12324
SWIDTH 1400 0
DWIDTH 14 0
BBX 12 12 1 -2
BITMAP
FC40
0440
0470
0440
0840
3040
C040
7FC0
4000
4000
4000
7FC0
ENDCHAR
STARTCHAR AC08
ENCODING 12325
SWIDTH 1400 0
DWIDTH 14 0
BBX 12 12 1 -2
BITMAP
FC40
0440
0470
0440
0840
F040
0000
7FC0
0040
7FC0
4000
7FC0
ENDCHAR
STARTCHAR AC09
ENCODING 12326
SWIDTH 1400 0
DWIDTH 14 0
BBX 12 12 1 -2
BITMAP
FC40
0440
0470
0440
1840
E040
0000
FBC0
0840
F840
8040
FC40
ENDCHAR
STARTCHAR AC0A
ENCODING 12327
SWIDTH 1400 0
DWIDTH 14 0
BBX 12 12 1 -2
BITMAP
FC40
0440
0470
0440
1840
E040
0000
FBC0
0A40
FA40
8240
FBC0
ENDCHAR
STARTCHAR AC10
ENCODING 12328
SWIDTH 1400 0
DWIDTH 14 0
BBX 12 12 1 -2
BITMAP
FC40
0440
0470
0440
0840
3040
C000
7FC0
4040
4040
4040
7FC0
ENDCHAR
STARTCHAR AC11
ENCODING 12329
SWIDTH 1400 0
DWIDTH 14 0
BBX 12 12 1 -2
BITMAP
FC40
0440
0470
0440
1840
E040
4040
4040
7FC0
4040
4040
7FC0
ENDCHAR
STARTCHAR AC12
ENCODING 12330
SWIDTH 1400 0
DWIDTH 14 0
BBX 12 12 1 -2
BITMAP
FC40
0440
0470
0840
F040
0040
8800
8880
F880
8940
8A20
FA20
ENDCHAR
STARTCHAR AC13
ENCODING 12331
SWIDTH 1400 0
DWIDTH 14 0
BBX 12 12 1 -2
BITMAP
FC40
0440
0470
0440
0840
1040
E040
0000
0600
0A00
3180
4060
ENDCHAR
STARTCHAR AC14
ENCODING 12332
SWIDTH 1400 0
DWIDTH 14 0
BBX 12 12 1 -2
BITMAP
FC40
0440
0470
0440
0840
3040
C040
2100
2100
5280
5280
8C40
ENDCHAR
STARTCHAR AC15
ENCODING 12333
SWIDTH 1400 0
DWIDTH 14 0
BBX 12 12 1 -2
BITMAP
FC40
0440
0470
0440
0840
3040
C040
3F00
C0C0
8040
C0C0
3F00
ENDCHAR
STARTCHAR AC16
ENCODING 12334
SWIDTH 1400 0
DWIDTH 14 0
BBX 12 12 1 -2
BITMAP
FC40
0440
0470
0440
0840
7040
8040
7FC0
0400
0A00
3180
4040
ENDCHAR
STARTCHAR AC17
ENCODING 12335
SWIDTH 1400 0
DWIDTH 14 0
BBX 12 12 1 -2
BITMAP
FC40
0440
0470
0440
0840
7040
9F40
0000
7FE0
0400
0B00
70E0
ENDCHAR
STARTCHAR AC19
ENCODING 12336
SWIDTH 1400 0
DWIDTH 14 0
BBX 12 12 1 -2
BITMAP
FC40
0440
0470
0440
0840
7040
8040
7FC0
4000
7FC0
4000
7FC0
ENDCHAR
STARTCHAR AC1A
ENCODING 12337
SWIDTH 1400 0
DWIDTH 14 0
BBX 12 12 1 -2
BITMAP
FC40
0440
0470
0440
0840
F040
0000
7FE0
1080
1080
1080
7FE0
ENDCHAR
STARTCHAR AC1B
ENCODING 12338
SWIDTH 1400 0
DWIDTH 14 0
BBX 12 12 1 -2
BITMAP
FC40
0440
0470
0440
0840
7040
9F40
0000
FFE0
3FC0
4040
3F80
ENDCHAR
STARTCHAR AC1C
ENCODING 12339
SWIDTH 1400 0
DWIDTH 14 0
BBX 10 13 2 -2
BITMAP
0240
FA40
0A40
0A40
0A40
0BC0
0A40
1240
1240
6240
8240
0240
0240
ENDCHAR
STARTCHAR AC1D
ENCODING 12340
SWIDTH 1400 0
DWIDTH 14 0
BBX 11 13 1 -2
BITMAP
0120
F920
0920
09E0
0920
1120
3120
C120
0000
3FE0
0020
0020
0020
ENDCHAR
STARTCHAR AC20
ENCODING 12341
SWIDTH 1400 0
DWIDTH 14 0
BBX 10 13 2 -2
BITMAP
0240
F240
1240
1240
13C0
1240
2240
C240
0240
4240
4000
4000
7FC0
ENDCHAR
STARTCHAR AC24
ENCODING 12342
SWIDTH 1400 0
DWIDTH 14 0
BBX 10 13 2 -2
BITMAP
0040
F240
1240
13C0
1240
1240
6240
8000
7FC0
0040
7FC0
4000
7FC0
ENDCHAR
STARTCHAR AC2C
ENCODING 12343
SWIDTH 1400 0
DWIDTH 14 0
BBX 10 13 2 -2
BITMAP
0240
F240
1240
13C0
1240
1240
2240
C240
7FC0
4040
4040
4040
7FC0
ENDCHAR
STARTCHAR AC2D
ENCODING 12344
SWIDTH 1400 0
DWIDTH 14 0
BBX 11 13 1 -2
BITMAP
0120
F920
0920
09E0
0920
1120
6120
2020
2020
3FE0
2020
2020
3FE0
ENDCHAR
STARTCHAR AC2F
ENCODING 12345
SWIDTH 1400 0
DWIDTH 14 0
BBX 11 13 1 -2
BITMAP
0120
F920
0920
09E0
0920
0920
1120
E120
0000
0200
0500
18C0
6020
ENDCHAR
STARTCHAR AC30
ENCODING 12346
SWIDTH 1400 0
DWIDTH 14 0
BBX 12 13 1 -2
BITMAP
0120
F920
0920
09E0
0920
0920
3120
C120
1000
10C0
30C0
4920
0610
ENDCHAR
STARTCHAR AC31
ENCODING 12347
SWIDTH 1400 0
DWIDTH 14 0
BBX 10 12 2 -2
BITMAP
F240
0A40
1240
13C0
1240
2240
C240
1F80
60C0
4040
60C0
3F00
ENDCHAR
STARTCHAR AC38
ENCODING 12348
SWIDTH 1400 0
DWIDTH 14 0
BBX 12 13 1 -2
BITMAP
0040
FC40
0440
0440
0470
0440
0840
0840
1070
2040
C040
0040
0040
ENDCHAR
STARTCHAR AC39
ENCODING 12349
SWIDTH 1400 0
DWIDTH 14 0
BBX 12 13 1 -2
BITMAP
0040
FC40
0470
0440
0440
0870
1040
E040
0000
7FC0
0040
0040
0040
ENDCHAR
STARTCHAR AC3C
ENCODING 12350
SWIDTH 1400 0
DWIDTH 14 0
BBX 12 12 1 -2
BITMAP
FC40
0440
0470
0440
0440
1870
E040
0040
4040
4000
4000
7FC0
ENDCHAR
STARTCHAR AC40
ENCODING 12351
SWIDTH 1400 0
DWIDTH 14 0
BBX 12 12 1 -2
BITMAP
FC40
0470
0440
0840
1070
E040
0040
7FC0
0040
7FC0
4000
7FC0
ENDCHAR
STARTCHAR AC4B
ENCODING 12352
SWIDTH 1400 0
DWIDTH 14 0
BBX 12 12 1 -2
BITMAP
FC40
0440
0470
0440
0C40
1070
E040
0040
0600
0D00
1080
6060
ENDCHAR
STARTCHAR AC4D
ENCODING 12353
SWIDTH 1400 0
DWIDTH 14 0
BBX 12 13 1 -2
BITMAP
0040
FC40
0440
0470
0440
0870
3040
C040
3F00
C0C0
8040
C0C0
3F00
ENDCHAR
STARTCHAR AC54
ENCODING 12354
SWIDTH 1400 0
DWIDTH 14 0
BBX 10 13 2 -2
BITMAP
0240
FA40
0A40
0A40
0BC0
0A40
0A40
1240
13C0
6240
8240
0240
0040
ENDCHAR
STARTCHAR AC58
ENCODING 12355
SWIDTH 1400 0
DWIDTH 14 0
BBX 10 13 2 -2
BITMAP
0240
F240
1240
13C0
1240
1240
23C0
C240
0240
4040
4000
4000
7FC0
ENDCHAR
STARTCHAR AC5C
ENCODING 12356
SWIDTH 1400 0
DWIDTH 14 0
BBX 11 13 1 -2
BITMAP
0120
7920
09E0
0920
0920
09E0
3120
C120
3FE0
0020
3FE0
2000
3FE0
ENDCHAR
STARTCHAR AC70
ENCODING 12357
SWIDTH 1400 0
DWIDTH 14 0
BBX 10 13 2 -2
BITMAP
0040
FC40
0440
0440
0440
0440
0BC0
0840
1040
2040
C040
0040
0040
ENDCHAR
STARTCHAR AC71
ENCODING 12358
SWIDTH 1400 0
DWIDTH 14 0
BBX 10 13 2 -2
BITMAP
0040
FC40
0440
0440
07C0
0840
3040
C040
0000
7FC0
0040
0040
0040
ENDCHAR
STARTCHAR AC74
ENCODING 12359
SWIDTH 1400 0
DWIDTH 14 0
BBX 10 12 2 -2
BITMAP
FC40
0440
0440
0440
0BC0
1040
E040
0040
4040
4000
4000
7FC0
ENDCHAR
STARTCHAR AC77
ENCODING 12360
SWIDTH 1400 0
DWIDTH 14 0
BBX 10 12 2 -2
BITMAP
FC40
0440
0440
07C0
0840
3040
C040
7FC0
4000
4000
4000
7FC0
ENDCHAR
STARTCHAR AC78
ENCODING 12361
SWIDTH 1400 0
DWIDTH 14 0
BBX 10 13 2 -2
BITMAP
0040
FC40
0440
05C0
0840
1840
6040
8000
7FC0
0040
7FC0
4000
7FC0
ENDCHAR
STARTCHAR AC7A
ENCODING 12362
SWIDTH 1400 0
DWIDTH 14 0
BBX 10 13 2 -2
BITMAP
0040
FC40
0440
07C0
0440
1840
E040
0000
FBC0
0A40
F240
8240
FBC0
ENDCHAR
STARTCHAR AC80
ENCODING 12363
SWIDTH 1400 0
DWIDTH 14 0
BBX 10 12 2 -2
BITMAP
FC40
0440
0440
07C0
0840
7040
8000
7FC0
4040
4040
4040
7FC0
ENDCHAR
STARTCHAR AC81
ENCODING 12364
SWIDTH 1400 0
DWIDTH 14 0
BBX 10 13 2 -2
BITMAP
0040
FC40
0440
0440
07C0
0840
F040
4040
4040
7FC0
4040
4040
7FC0
ENDCHAR
STARTCHAR AC83
ENCODING 12365
SWIDTH 1400 0
DWIDTH 14 0
BBX 12 13 1 -2
BITMAP
0020
7E20
0220
0220
03E0
0420
1820
E020
0020
0200
0500
18C0
6030
ENDCHAR
STARTCHAR AC84
ENCODING 12366
SWIDTH 1400 0
DWIDTH 14 0
BBX 12 13 1 -2
BITMAP
0020
7E20
0220
0220
05E0
0420
1820
E020
1080
10C0
30C0
4920
8610
ENDCHAR
STARTCHAR AC85
ENCODING 12367
SWIDTH 1400 0
DWIDTH 14 0
BBX 10 12 2 -2
BITMAP
FC40
0440
0440
07C0
0840
1040
E040
1F00
60C0
4040
60C0
1F00
ENDCHAR
STARTCHAR AC86
ENCODING 12368
SWIDTH 1400 0
DWIDTH 14 0
BBX 10 12 2 -2
BITMAP
FC40
0440
0440
07C0
0840
3040
C040
FFC0
0400
0A00
3100
C0C0
ENDCHAR
STARTCHAR AC89
ENCODING 12369
SWIDTH 1400 0
DWIDTH 14 0
BBX 10 12 2 -2
BITMAP
FC40
0440
0440
07C0
0840
3040
C000
7FC0
4000
7FC0
4000
7FC0
ENDCHAR
STARTCHAR AC8A
ENCODING 12370
SWIDTH 1400 0
DWIDTH 14 0
BBX 11 12 2 -2
BITMAP
FC40
0440
0440
0BC0
1840
6040
8040
7FE0
1080
1080
1080
7FC0
ENDCHAR
STARTCHAR AC8B
ENCODING 12371
SWIDTH 1400 0
DWIDTH 14 0
BBX 12 12 1 -2
BITMAP
7E20
0220
0220
03E0
0420
3820
CFA0
0000
7FF0
3FC0
2020
1FC0
ENDCHAR
STARTCHAR AC8C
ENCODING 12372
SWIDTH 1400 0
DWIDTH 14 0
BBX 10 13 2 -2
BITMAP
0140
F940
0940
0940
0940
0F40
0940
1140
1140
2140
C140
0140
0040
ENDCHAR
STARTCHAR AC90
ENCODING 12373
SWIDTH 1400 0
DWIDTH 14 0
BBX 10 13 2 -2
BITMAP
0100
F140
1140
1140
1740
1140
2140
C140
0140
4040
4000
4000
7FC0
ENDCHAR
STARTCHAR AC94
ENCODING 12374
SWIDTH 1400 0
DWIDTH 14 0
BBX 12 12 1 -2
BITMAP
7920
0920
0B20
0920
0920
3120
C020
3FE0
0020
1FE0
2000
1FF0
ENDCHAR
STARTCHAR AC9C
ENCODING 12375
SWIDTH 1400 0
DWIDTH 14 0
BBX 10 12 2 -2
BITMAP
F140
1140
1140
1740
1140
2140
C140
7FC0
4040
4040
4040
7FC0
ENDCHAR
STARTCHAR AC9D
ENCODING 12376
SWIDTH 1400 0
DWIDTH 14 0
BBX 10 12 2 -2
BITMAP
F140
1140
1140
1740
1140
6140
8140
4040
7FC0
4040
4040
7FC0
ENDCHAR
STARTCHAR AC9F
ENCODING 12377
SWIDTH 1400 0
DWIDTH 14 0
BBX 12 13 1 -2
BITMAP
0020
F920
0920
0920
0F20
0920
1120
6120
8000
0200
0500
18C0
6030
ENDCHAR
STARTCHAR ACA0
ENCODING 12378
SWIDTH 1400 0
DWIDTH 14 0
BBX 12 12 1 -2
BITMAP
F920
0920
0920
0F20
1120
3120
C120
1020
10C0
30C0
4920
0610
ENDCHAR
STARTCHAR ACA1
ENCODING 12379
SWIDTH 1400 0
DWIDTH 14 0
BBX 10 13 2 -2
BITMAP
0140
F140
1140
1140
1740
1140
2140
C140
1F00
60C0
4040
60C0
1F00
ENDCHAR
STARTCHAR ACA8
ENCODING 12380
SWIDTH 1400 0
DWIDTH 14 0
BBX 10 12 2 -2
BITMAP
FC40
0440
0440
07C0
0440
0840
0840
13C0
2040
C040
0040
0040
ENDCHAR
STARTCHAR ACA9
ENCODING 12381
SWIDTH 1400 0
DWIDTH 14 0
BBX 10 12 2 -2
BITMAP
FC40
0440
05C0
0440
0BC0
3040
C040
0000
7FC0
0040
0040
0040
ENDCHAR
STARTCHAR ACAA
ENCODING 12382
SWIDTH 1400 0
DWIDTH 14 0
BBX 10 13 2 -2
BITMAP
0040
FC40
0440
05C0
0440
0BC0
7040
8040
FBC0
0840
0840
0840
0840
ENDCHAR
STARTCHAR ACAC
ENCODING 12383
SWIDTH 1400 0
DWIDTH 14 0
BBX 10 12 2 -2
BITMAP
FC40
0440
07C0
0440
0840
13C0
E040
0040
4040
4000
4000
7FC0
ENDCHAR
STARTCHAR ACAF
ENCODING 12384
SWIDTH 1400 0
DWIDTH 14 0
BBX 10 12 2 -2
BITMAP
FC40
0440
07C0
0440
0840
33C0
C040
7FC0
4000
4000
4000
7FC0
ENDCHAR
STARTCHAR ACB0
ENCODING 12385
SWIDTH 1400 0
DWIDTH 14 0
BBX 10 12 2 -2
BITMAP
FC40
05C0
0440
0840
31C0
C040
0040
7FC0
0040
7FC0
4000
3FC0
ENDCHAR
STARTCHAR ACB8
ENCODING 12386
SWIDTH 1400 0
DWIDTH 14 0
BBX 10 13 2 -2
BITMAP
0040
FC40
07C0
0440
0440
0BC0
3040
C000
7FC0
4040
4040
4040
7FC0
ENDCHAR
STARTCHAR ACB9
ENCODING 12387
SWIDTH 1400 0
DWIDTH 14 0
BBX 10 12 2 -2
BITMAP
FC40
07C0
0440
0440
0BC0
3040
C040
4040
7FC0
4040
4040
7FC0
ENDCHAR
STARTCHAR ACBB
ENCODING 12388
SWIDTH 1400 0
DWIDTH 14 0
BBX 11 12 1 -2
BITMAP
7E20
0220
03E0
0220
0420
19E0
E020
0220
0200
0500
18C0
6020
ENDCHAR
STARTCHAR ACBC
ENCODING 12389
SWIDTH 1400 0
DWIDTH 14 0
BBX 11 11 1 -1
BITMAP
7C20
02E0
0220
0420
0CE0
1020
E000
1080
10C0
30C0
4D20
ENDCHAR
STARTCHAR ACBD
ENCODING 12390
SWIDTH 1400 0
DWIDTH 14 0
BBX 11 12 2 -2
BITMAP
FC40
0440
07C0
0440
0840
31C0
C040
1F80
6060
4020
6060
1F80
ENDCHAR
STARTCHAR ACC1
ENCODING 12391
SWIDTH 1400 0
DWIDTH 14 0
BBX 10 12 2 -2
BITMAP
FC40
05C0
0440
0440
09C0
3040
C000
7FC0
4000
7FC0
4000
7FC0
ENDCHAR
STARTCHAR ACC4
ENCODING 12392
SWIDTH 1400 0
DWIDTH 14 0
BBX 10 12 2 -2
BITMAP
F940
0940
0F40
0940
0940
0940
1740
1140
2140
C140
0140
0040
ENDCHAR
STARTCHAR ACC8
ENCODING 12393
SWIDTH 1400 0
DWIDTH 14 0
BBX 10 12 2 -2
BITMAP
F140
1140
1740
1140
1140
2740
C140
0140
4040
4000
4000
7FC0
ENDCHAR
STARTCHAR ACCC
ENCODING 12394
SWIDTH 1400 0
DWIDTH 14 0
BBX 10 12 2 -2
BITMAP
F140
1740
1140
1140
3740
C140
0100
7FC0
0040
7FC0
4000
7FC0
ENDCHAR
STARTCHAR ACD5
ENCODING 12395
SWIDTH 1400 0
DWIDTH 14 0
BBX 11 13 2 -2
BITMAP
0120
F120
1720
1120
1120
1720
6120
C040
4040
7FC0
4040
4040
7FC0
ENDCHAR
STARTCHAR ACD7
ENCODING 12396
SWIDTH 1400 0
DWIDTH 14 0
BBX 12 12 1 -2
BITMAP
F920
0920
0F20
0920
1720
1120
E120
0020
0200
0500
18C0
6030
ENDCHAR
STARTCHAR ACE0
ENCODING 12397
SWIDTH 1400 0
DWIDTH 14 0
BBX 11 11 2 -1
BITMAP
7FC0
0040
0040
0040
0080
0880
0880
0880
0880
0800
FFE0
ENDCHAR
STARTCHAR ACE1
ENCODING 12398
SWIDTH 1400 0
DWIDTH 14 0
BBX 12 12 1 -2
BITMAP
3FE0
0020
0420
0420
0420
FFF0
0000
7FE0
0020
0020
0020
0020
ENDCHAR
STARTCHAR ACE4
ENCODING 12399
SWIDTH 1400 0
DWIDTH 14 0
BBX 12 12 1 -2
BITMAP
3FE0
0020
0020
0420
0420
0420
FFF0
0000
2000
2000
2000
3FE0
ENDCHAR
STARTCHAR ACE7
ENCODING 12400
SWIDTH 1400 0
DWIDTH 14 0
BBX 12 12 1 -2
BITMAP
3FE0
0020
0420
0420
0420
FFF0
0000
7FC0
4000
4000
4000
7FC0
ENDCHAR
STARTCHAR ACE8
ENCODING 12401
SWIDTH 1400 0
DWIDTH 14 0
BBX 12 12 1 -2
BITMAP
7FC0
0020
0020
0440
0440
FFF0
0000
7FC0
0020
7FC0
4000
7FE0
ENDCHAR
STARTCHAR ACEA
ENCODING 12402
SWIDTH 1400 0
DWIDTH 14 0
BBX 12 12 1 -2
BITMAP
3FE0
0020
0420
0420
0420
FFF0
0000
79E0
0920
7920
4120
7DE0
ENDCHAR
STARTCHAR ACEC
ENCODING 12403
SWIDTH 1400 0
DWIDTH 14 0
BBX 12 12 1 -2
BITMAP
3FE0
0020
0420
0420
0420
FFF0
0000
7880
0880
7940
4320
7800
ENDCHAR
STARTCHAR ACEF
ENCODING 12404
SWIDTH 1400 0
DWIDTH 14 0
BBX 12 12 1 -2
BITMAP
7FE0
0420
0420
0420
FFF0
0000
79C0
0BE0
7800
43E0
4220
79C0
ENDCHAR
STARTCHAR ACF0
ENCODING 12405
SWIDTH 1400 0
DWIDTH 14 0
BBX 12 12 1 -2
BITMAP
3FE0
0020
0420
0420
0420
FFF0
0000
3FE0
2020
2020
2020
3FE0
ENDCHAR
STARTCHAR ACF1
ENCODING 12406
SWIDTH 1400 0
DWIDTH 14 0
BBX 12 12 1 -2
BITMAP
3FE0
0020
0420
0420
0420
FFF0
4020
4020
7FE0
4020
4020
7FE0
ENDCHAR
STARTCHAR ACF3
ENCODING 12407
SWIDTH 1400 0
DWIDTH 14 0
BBX 12 12 1 -2
BITMAP
3FE0
0020
0420
0420
0420
FFF0
0000
0000
0600
0900
3080
4060
ENDCHAR
STARTCHAR ACF5
ENCODING 12408
SWIDTH 1400 0
DWIDTH 14 0
BBX 12 12 1 -2
BITMAP
3FE0
0020
0420
0420
0420
FFF0
0000
1F80
6060
4020
6060
1F80
ENDCHAR
STARTCHAR ACF6
ENCODING 12409
SWIDTH 1400 0
DWIDTH 14 0
BBX 12 12 1 -2
BITMAP
3FE0
0020
0420
0420
0420
FFF0
0000
7FE0
0600
0B00
3080
0040
ENDCHAR
STARTCHAR ACFC
ENCODING 12410
SWIDTH 1400 0
DWIDTH 14 0
BBX 12 12 1 -2
BITMAP
FE40
0240
0240
0240
0270
1240
1240
1040
17C0
F840
0040
0040
ENDCHAR
STARTCHAR ACFD
ENCODING 12411
SWIDTH 1400 0
DWIDTH 14 0
BBX 12 13 1 -2
BITMAP
0040
FE40
0240
1240
1270
1240
FFC0
0040
0000
7FC0
0040
0040
0040
ENDCHAR
STARTCHAR AD00
ENCODING 12412
SWIDTH 1400 0
DWIDTH 14 0
BBX 12 12 1 -2
BITMAP
FE40
0240
0240
1240
1270
1240
FFC0
0040
4040
4000
4000
7FC0
ENDCHAR
STARTCHAR AD04
ENCODING 12413
SWIDTH 1400 0
DWIDTH 14 0
BBX 12 13 1 -2
BITMAP
0040
FE40
0240
2240
2270
2240
FFC0
0040
7FC0
0040
7FC0
4000
7FC0
ENDCHAR
STARTCHAR AD06
ENCODING 12414
SWIDTH 1400 0
DWIDTH 14 0
BBX 12 13 1 -2
BITMAP
0040
FE40
0240
1270
1240
FFC0
0040
03C0
FA40
FA40
8240
FA40
03C0
ENDCHAR
STARTCHAR AD0C
ENCODING 12577
SWIDTH 1400 0
DWIDTH 14 0
BBX 12 13 1 -2
BITMAP
0040
FE40
0240
1270
1240
1240
FFC0
0040
7FC0
4040
4040
4040
7FC0
ENDCHAR
STARTCHAR AD0D
ENCODING 12578
SWIDTH 1400 0
DWIDTH 14 0
BBX 12 13 1 -2
BITMAP
0040
FE40
0240
1270
1240
1240
FFC0
0040
4040
7FC0
4040
4040
7FC0
ENDCHAR
STARTCHAR AD0F
ENCODING 12579
SWIDTH 1400 0
DWIDTH 14 0
BBX 12 13 1 -2
BITMAP
0040
FE40
0240
1270
1240
1240
FFC0
0040
0040
0600
0900
30C0
4020
ENDCHAR
STARTCHAR AD11
ENCODING 12580
SWIDTH 1400 0
DWIDTH 14 0
BBX 12 13 1 -2
BITMAP
0040
FE40
0240
1270
1240
1240
FFC0
0040
1F80
6060
4020
6060
1F80
ENDCHAR
STARTCHAR AD18
ENCODING 12581
SWIDTH 1400 0
DWIDTH 14 0
BBX 10 13 2 -2
BITMAP
0140
F940
0940
0940
0940
09C0
2940
2940
2140
2140
FF40
0140
0140
ENDCHAR
STARTCHAR AD1C
ENCODING 12582
SWIDTH 1400 0
DWIDTH 14 0
BBX 11 13 1 -2
BITMAP
0120
7D20
0520
0520
25E0
2520
2520
FF20
0120
2120
2000
2000
3FE0
ENDCHAR
STARTCHAR AD20
ENCODING 12583
SWIDTH 1400 0
DWIDTH 14 0
BBX 10 12 2 -2
BITMAP
F840
0A40
0A40
49C0
4A40
FE40
0040
7FC0
0040
7FC0
4000
7FC0
ENDCHAR
STARTCHAR AD29
ENCODING 12584
SWIDTH 1400 0
DWIDTH 14 0
BBX 10 12 2 -2
BITMAP
F940
0940
2940
29C0
2940
FF40
0140
4040
7FC0
4040
4040
3FC0
ENDCHAR
STARTCHAR AD2C
ENCODING 12585
SWIDTH 1400 0
DWIDTH 14 0
BBX 11 12 1 -2
BITMAP
7D20
0520
2520
29E0
2120
FF20
0120
0080
30C0
30C0
4920
0400
ENDCHAR
STARTCHAR AD2D
ENCODING 12586
SWIDTH 1400 0
DWIDTH 14 0
BBX 11 12 1 -2
BITMAP
7D20
0520
2520
25E0
2520
FF20
0120
0F80
3040
2020
3060
0F80
ENDCHAR
STARTCHAR AD34
ENCODING 12587
SWIDTH 1400 0
DWIDTH 14 0
BBX 11 12 1 -2
BITMAP
3F20
0120
0120
0120
0120
1120
1120
1020
1020
FFE0
0020
0020
ENDCHAR
STARTCHAR AD35
ENCODING 12588
SWIDTH 1400 0
DWIDTH 14 0
BBX 11 12 1 -2
BITMAP
7F20
0120
1120
1120
1120
FFE0
0020
0000
3FE0
0020
0020
0020
ENDCHAR
STARTCHAR AD38
ENCODING 12589
SWIDTH 1400 0
DWIDTH 14 0
BBX 11 13 1 -2
BITMAP
0020
7F20
0120
0120
1120
1120
17E0
F820
0020
2000
2000
2000
3FE0
ENDCHAR
STARTCHAR AD3C
ENCODING 12590
SWIDTH 1400 0
DWIDTH 14 0
BBX 10 12 2 -2
BITMAP
FE40
0240
2240
2240
2040
FFC0
0040
7FC0
0040
7FC0
4000
7FC0
ENDCHAR
STARTCHAR AD44
ENCODING 12591
SWIDTH 1400 0
DWIDTH 14 0
BBX 11 12 1 -2
BITMAP
7F20
0120
1120
1120
1020
FFE0
0020
3FE0
2020
2020
2020
3FE0
ENDCHAR
STARTCHAR AD45
ENCODING 12592
SWIDTH 1400 0
DWIDTH 14 0
BBX 11 12 1 -2
BITMAP
7F20
0120
1120
1120
1020
FFE0
0020
2020
3FE0
2020
2020
3FE0
ENDCHAR
STARTCHAR AD47
ENCODING 12593
SWIDTH 1400 0
DWIDTH 14 0
BBX 11 13 1 -2
BITMAP
0020
7F20
0120
1120
1120
1120
FFE0
0020
0220
0200
0500
18C0
6020
ENDCHAR
STARTCHAR AD49
ENCODING 12594
SWIDTH 1400 0
DWIDTH 14 0
BBX 11 12 1 -2
BITMAP
3F20
0120
1120
1120
1120
FFE0
0020
0F80
3060
2020
3060
0F80
ENDCHAR
STARTCHAR AD50
ENCODING 12595
SWIDTH 1400 0
DWIDTH 14 0
BBX 12 11 1 -1
BITMAP
3FE0
0020
0020
0020
0040
1140
1140
1140
1140
1100
FFF0
ENDCHAR
STARTCHAR AD54
ENCODING 12596
SWIDTH 1400 0
DWIDTH 14 0
BBX 12 12 1 -2
BITMAP
7FC0
0020
1120
1120
1120
FFF0
0000
0000
2000
2000
2000
3FE0
ENDCHAR
STARTCHAR AD58
ENCODING 12597
SWIDTH 1400 0
DWIDTH 14 0
BBX 12 12 1 -2
BITMAP
3FE0
0020
0020
1120
1120
FFF0
0000
3FE0
0020
3FE0
2000
3FE0
ENDCHAR
STARTCHAR AD61
ENCODING 12598
SWIDTH 1400 0
DWIDTH 14 0
BBX 12 12 1 -2
BITMAP
7FC0
0020
1120
1120
1100
FFF0
2020
2020
3FE0
2020
2020
3FE0
ENDCHAR
STARTCHAR AD63
ENCODING 12599
SWIDTH 1400 0
DWIDTH 14 0
BBX 12 12 1 -2
BITMAP
7FC0
0020
1120
1120
1100
FFF0
0000
0200
0600
0D00
30C0
4020
ENDCHAR
STARTCHAR AD6C
ENCODING 12600
SWIDTH 1400 0
DWIDTH 14 0
BBX 11 12 2 -2
BITMAP
FFC0
0040
0040
0040
0040
0040
FFE0
0400
0400
0400
0400
0400
ENDCHAR
STARTCHAR AD6D
ENCODING 12601
SWIDTH 1400 0
DWIDTH 14 0
BBX 11 12 2 -2
BITMAP
7FC0
0040
0040
0040
0040
FFE0
0400
7FC0
0040
0040
0040
0040
ENDCHAR
STARTCHAR AD70
ENCODING 12602
SWIDTH 1400 0
DWIDTH 14 0
BBX 12 12 1 -2
BITMAP
3FE0
0020
0020
0020
0020
FFF0
0200
0200
2200
2000
2000
3FE0
ENDCHAR
STARTCHAR AD73
ENCODING 12603
SWIDTH 1400 0
DWIDTH 14 0
BBX 11 12 2 -2
BITMAP
7FC0
0040
0040
0040
FFE0
0400
0400
7FC0
4000
4000
4000
7FC0
ENDCHAR
STARTCHAR AD74
ENCODING 12604
SWIDTH 1400 0
DWIDTH 14 0
BBX 12 12 1 -2
BITMAP
7FC0
0020
0040
0040
FFF0
0400
0400
7FC0
0020
7FC0
4000
3FE0
ENDCHAR
STARTCHAR AD75
ENCODING 12605
SWIDTH 1400 0
DWIDTH 14 0
BBX 11 12 2 -2
BITMAP
7FC0
0040
0040
0040
FFE0
0400
0400
F3C0
0840
F040
8040
F840
ENDCHAR
STARTCHAR AD76
ENCODING 12606
SWIDTH 1400 0
DWIDTH 14 0
BBX 12 12 1 -2
BITMAP
3FE0
0020
0020
0020
FFF0
0400
0400
79E0
0920
7920
4120
7DE0
ENDCHAR
STARTCHAR AD7B
ENCODING 12607
SWIDTH 1400 0
DWIDTH 14 0
BBX 12 12 1 -2
BITMAP
3FE0
0020
0020
0020
FFF0
0400
7DC0
0BE0
0800
79E0
4220
7DE0
ENDCHAR
STARTCHAR AD7C
ENCODING 12608
SWIDTH 1400 0
DWIDTH 14 0
BBX 11 12 2 -2
BITMAP
7FC0
0040
0040
0040
FFE0
0400
0400
7FC0
4040
4040
4040
7FC0
ENDCHAR
STARTCHAR AD7D
ENCODING 12609
SWIDTH 1400 0
DWIDTH 14 0
BBX 11 12 2 -2
BITMAP
7FC0
0040
0040
0040
FFE0
0400
4440
4040
7FC0
4040
4040
7FC0
ENDCHAR
STARTCHAR AD7F
ENCODING 12610
SWIDTH 1400 0
DWIDTH 14 0
BBX 11 12 2 -2
BITMAP
7FC0
0040
0040
0040
0040
FFE0
0400
0400
0C00
1200
6180
8040
ENDCHAR
STARTCHAR AD81
ENCODING 12611
SWIDTH 1400 0
DWIDTH 14 0
BBX 11 12 2 -2
BITMAP
FFC0
0040
0040
0040
FFE0
0400
0400
3F00
C0C0
8040
C0C0
3F00
ENDCHAR
STARTCHAR AD82
ENCODING 12612
SWIDTH 1400 0
DWIDTH 14 0
BBX 12 11 1 -1
BITMAP
3FE0
0020
0020
0020
FFF0
0400
0400
3FE0
0600
0D00
30E0
ENDCHAR
STARTCHAR AD88
ENCODING 12613
SWIDTH 1400 0
DWIDTH 14 0
BBX 10 13 2 -2
BITMAP
0040
7E40
0240
0240
0240
0240
FFC0
1040
13C0
1040
1040
1040
0040
ENDCHAR
STARTCHAR AD89
ENCODING 12614
SWIDTH 1400 0
DWIDTH 14 0
BBX 10 12 2 -2
BITMAP
7E40
0240
0240
0240
FFC0
13C0
1040
0000
7FC0
0040
0040
0040
ENDCHAR
STARTCHAR AD8C
ENCODING 12615
SWIDTH 1400 0
DWIDTH 14 0
BBX 11 13 2 -2
BITMAP
0040
FC40
0440
0440
0440
FFC0
1040
13C0
1040
4040
4000
4000
7FE0
ENDCHAR
STARTCHAR AD90
ENCODING 12616
SWIDTH 1400 0
DWIDTH 14 0
BBX 10 13 2 -2
BITMAP
0040
FC40
0440
0440
FFC0
1040
13C0
0040
7FC0
0040
7FC0
4000
7FC0
ENDCHAR
STARTCHAR AD9C
ENCODING 12617
SWIDTH 1400 0
DWIDTH 14 0
BBX 12 12 1 -1
BITMAP
0020
7E20
0220
0220
03E0
7C20
09E0
0820
1080
30C0
3140
CF30
ENDCHAR
STARTCHAR AD9D
ENCODING 12618
SWIDTH 1400 0
DWIDTH 14 0
BBX 10 12 2 -2
BITMAP
7E40
0240
0240
0240
FFC0
13C0
1040
3F00
60C0
4040
60C0
1F00
ENDCHAR
STARTCHAR ADA4
ENCODING 12619
SWIDTH 1400 0
DWIDTH 14 0
BBX 10 12 2 -2
BITMAP
7A40
0A40
0A40
0A40
0A40
FE40
2240
2E40
2240
2240
2240
0240
ENDCHAR
STARTCHAR ADB7
ENCODING 12620
SWIDTH 1400 0
DWIDTH 14 0
BBX 11 12 1 -2
BITMAP
7CA0
04A0
04A0
04A0
FFA0
13A0
10A0
1220
0300
0500
18C0
6020
ENDCHAR
STARTCHAR ADC0
ENCODING 12621
SWIDTH 1400 0
DWIDTH 14 0
BBX 11 12 1 -2
BITMAP
3F20
0120
0120
0120
0120
0120
FFE0
0820
0820
0820
0820
0820
ENDCHAR
STARTCHAR ADC1
ENCODING 12622
SWIDTH 1400 0
DWIDTH 14 0
BBX 11 12 1 -2
BITMAP
7F20
0120
0120
0120
FFE0
0820
0820
0000
3FE0
0020
0020
0020
ENDCHAR
STARTCHAR ADC4
ENCODING 12623
SWIDTH 1400 0
DWIDTH 14 0
BBX 11 12 1 -2
BITMAP
7F20
0120
0120
0120
0120
FFE0
0820
0820
2820
2000
2000
3FE0
ENDCHAR
STARTCHAR ADC8
ENCODING 12624
SWIDTH 1400 0
DWIDTH 14 0
BBX 10 12 2 -2
BITMAP
FE40
0240
0240
0240
FFC0
1040
1000
7FC0
0040
7FC0
4000
3FC0
ENDCHAR
STARTCHAR ADD0
ENCODING 12625
SWIDTH 1400 0
DWIDTH 14 0
BBX 11 12 1 -2
BITMAP
7F20
0120
0120
0120
FFE0
0820
0800
3FE0
2020
2020
2020
3FE0
ENDCHAR
STARTCHAR ADD1
ENCODING 12626
SWIDTH 1400 0
DWIDTH 14 0
BBX 11 12 1 -2
BITMAP
7F20
0120
0120
0120
FFE0
0820
0820
2020
3FE0
2020
2020
3FE0
ENDCHAR
STARTCHAR ADD3
ENCODING 12627
SWIDTH 1400 0
DWIDTH 14 0
BBX 11 12 1 -2
BITMAP
7F20
0120
0120
0120
0120
FFE0
0820
0A20
0200
0500
18C0
6020
ENDCHAR
STARTCHAR ADDC
ENCODING 12628
SWIDTH 1400 0
DWIDTH 14 0
BBX 12 12 1 -2
BITMAP
3FE0
0020
0020
0020
0020
0020
FFF0
1080
1080
1080
1080
1080
ENDCHAR
STARTCHAR ADE0
ENCODING 12629
SWIDTH 1400 0
DWIDTH 14 0
BBX 11 12 2 -2
BITMAP
7FC0
0040
0040
0040
0040
FFE0
1100
1100
9100
8000
8000
FFC0
ENDCHAR
STARTCHAR ADE4
ENCODING 12630
SWIDTH 1400 0
DWIDTH 14 0
BBX 12 12 1 -2
BITMAP
7FC0
0020
0040
0040
FFF0
1080
1080
7FC0
0020
7FC0
4000
3FE0
ENDCHAR
STARTCHAR ADF8
ENCODING 12631
SWIDTH 1400 0
DWIDTH 14 0
BBX 11 11 1 -1
BITMAP
7FC0
0040
0040
0040
0040
0040
0040
0040
0040
0040
FFE0
ENDCHAR
STARTCHAR ADF9
ENCODING 12632
SWIDTH 1400 0
DWIDTH 14 0
BBX 11 12 2 -2
BITMAP
FFC0
0040
0040
0040
0040
FFE0
0000
FFC0
0040
0040
0040
0040
ENDCHAR
STARTCHAR ADFC
ENCODING 12633
SWIDTH 1400 0
DWIDTH 14 0
BBX 11 12 2 -2
BITMAP
7FC0
0040
0040
0040
0040
FFE0
0000
0000
4000
4000
4000
7FC0
ENDCHAR
STARTCHAR ADFF
ENCODING 12634
SWIDTH 1400 0
DWIDTH 14 0
BBX 11 12 2 -2
BITMAP
FFC0
0040
0040
0040
0040
FFE0
0000
FF80
8000
8000
8000
FF80
ENDCHAR
STARTCHAR AE00
ENCODING 12635
SWIDTH 1400 0
DWIDTH 14 0
BBX 12 12 1 -2
BITMAP
7FE0
0020
0040
0040
FFF0
0000
0000
7FE0
0020
3FE0
4000
3FE0
ENDCHAR
STARTCHAR AE01
ENCODING 12636
SWIDTH 1400 0
DWIDTH 14 0
BBX 11 12 2 -2
BITMAP
7FC0
0040
0040
0040
FFE0
0000
0000
F3C0
1040
F040
8040
F840
ENDCHAR
STARTCHAR AE08
ENCODING 12637
SWIDTH 1400 0
DWIDTH 14 0
BBX 11 12 2 -2
BITMAP
7FC0
0040
0040
0040
0040
FFE0
0000
7FC0
4040
4040
4040
7FC0
ENDCHAR
STARTCHAR AE09
ENCODING 12638
SWIDTH 1400 0
DWIDTH 14 0
BBX 11 12 2 -2
BITMAP
7FC0
0040
0040
0040
0040
FFE0
4040
4040
7FC0
4040
4040
7FC0
ENDCHAR
STARTCHAR AE0B
ENCODING 12639
SWIDTH 1400 0
DWIDTH 14 0
BBX 11 12 2 -2
BITMAP
7FC0
0040
0040
0040
0040
FFE0
0000
0400
0C00
0A00
3180
C040
ENDCHAR
STARTCHAR AE0D
ENCODING 12640
SWIDTH 1400 0
DWIDTH 14 0
BBX 11 12 2 -2
BITMAP
7FC0
0040
0040
0040
0040
FFE0
0000
3F00
C0C0
8040
C0C0
3F00
ENDCHAR
STARTCHAR AE14
ENCODING 12641
SWIDTH 1400 0
DWIDTH 14 0
BBX 10 12 2 -2
BITMAP
7E40
0240
0240
0240
0240
0240
0240
0240
03C0
FC40
0040
0040
ENDCHAR
STARTCHAR AE30
ENCODING 12642
SWIDTH 1400 0
DWIDTH 14 0
BBX 11 12 1 -2
BITMAP
7E20
0220
0220
0220
0220
0220
0420
0820
1020
E020
0020
0020
ENDCHAR
STARTCHAR AE31
ENCODING 12643
SWIDTH 1400 0
DWIDTH 14 0
BBX 10 12 2 -2
BITMAP
FC40
0440
0440
0440
0840
1040
E040
7FC0
0040
0040
0040
0040
ENDCHAR
STARTCHAR AE34
ENCODING 12644
SWIDTH 1400 0
DWIDTH 14 0
BBX 10 12 2 -2
BITMAP
FC40
0440
0440
0440
0440
1840
E040
0040
4040
4000
4000
7FC0
ENDCHAR
STARTCHAR AE37
ENCODING 12645
SWIDTH 1400 0
DWIDTH 14 0
BBX 10 12 2 -2
BITMAP
FC40
0440
0440
0440
0840
3040
C000
7FC0
4000
4000
4000
7FC0
ENDCHAR
STARTCHAR AE38
ENCODING 12646
SWIDTH 1400 0
DWIDTH 14 0
BBX 10 12 2 -2
BITMAP
FC40
0440
0440
0440
0840
3040
C000
7FC0
0040
7FC0
4000
7FC0
ENDCHAR
STARTCHAR AE3A
ENCODING 12647
SWIDTH 1400 0
DWIDTH 14 0
BBX 10 12 2 -2
BITMAP
FC40
0440
0440
0440
1840
E040
0000
FBC0
0A40
F240
8240
FBC0
ENDCHAR
STARTCHAR AE40
ENCODING 12648
SWIDTH 1400 0
DWIDTH 14 0
BBX 10 12 2 -2
BITMAP
FC40
0440
0440
0440
0840
3040
C000
7FC0
4040
4040
4040
7FC0
ENDCHAR
STARTCHAR AE41
ENCODING 12649
SWIDTH 1400 0
DWIDTH 14 0
BBX 10 13 2 -2
BITMAP
0040
FC40
0440
0440
0440
0840
7040
C040
4040
7FC0
4040
4040
7FC0
ENDCHAR
STARTCHAR AE43
ENCODING 12650
SWIDTH 1400 0
DWIDTH 14 0
BBX 12 12 1 -2
BITMAP
7E20
0220
0220
0220
0420
0820
F020
0200
0300
0500
18C0
6030
ENDCHAR
STARTCHAR AE45
ENCODING 12651
SWIDTH 1400 0
DWIDTH 14 0
BBX 10 12 2 -2
BITMAP
FC40
0440
0440
0440
0840
3040
C040
3F00
C0C0
8040
40C0
3F00
ENDCHAR
STARTCHAR AE46
ENCODING 12652
SWIDTH 1400 0
DWIDTH 14 0
BBX 10 12 2 -2
BITMAP
FC40
0440
0440
0440
0840
7040
8040
FFC0
0400
0A00
3180
C040
ENDCHAR
STARTCHAR AE4A
ENCODING 12653
SWIDTH 1400 0
DWIDTH 14 0
BBX 11 12 2 -2
BITMAP
FC40
0440
0440
0840
1840
6040
8040
7FE0
1080
1080
1080
7FE0
ENDCHAR
STARTCHAR AE4C
ENCODING 12654
SWIDTH 1400 0
DWIDTH 14 0
BBX 13 11 0 -1
BITMAP
F720
1120
1120
1120
1138
1120
1120
2120
6220
C620
0020
ENDCHAR
STARTCHAR AE4D
ENCODING 12655
SWIDTH 1400 0
DWIDTH 14 0
BBX 12 12 1 -2
BITMAP
FF40
1140
1140
1170
2240
4240
8C40
0000
7FC0
0040
0040
0040
ENDCHAR
STARTCHAR AE4E
ENCODING 12656
SWIDTH 1400 0
DWIDTH 14 0
BBX 12 12 1 -2
BITMAP
FF40
1140
1170
1140
2240
4440
0800
7FC0
0840
0840
0840
0840
ENDCHAR
STARTCHAR AE50
ENCODING 12657
SWIDTH 1400 0
DWIDTH 14 0
BBX 12 12 1 -2
BITMAP
FF40
1140
1140
1170
1140
2240
C440
0040
4000
4000
4000
7FC0
ENDCHAR
STARTCHAR AE54
ENCODING 12658
SWIDTH 1400 0
DWIDTH 14 0
BBX 12 13 1 -2
BITMAP
0040
FF40
1140
1170
1140
2240
C440
0800
7FC0
0040
7FC0
4000
3FE0
ENDCHAR
STARTCHAR AE56
ENCODING 12659
SWIDTH 1400 0
DWIDTH 14 0
BBX 12 12 1 -2
BITMAP
FF40
1140
1140
1270
2240
C440
0840
7BC0
0A40
7A40
8240
7BC0
ENDCHAR
STARTCHAR AE5C
ENCODING 12660
SWIDTH 1400 0
DWIDTH 14 0
BBX 12 12 1 -2
BITMAP
FF40
1140
1140
1270
2240
4440
0840
7FC0
4040
4040
4040
7FC0
ENDCHAR
STARTCHAR AE5D
ENCODING 12661
SWIDTH 1400 0
DWIDTH 14 0
BBX 12 12 1 -2
BITMAP
FF40
1140
1140
1170
2240
4440
4860
4020
7FE0
4020
4020
7FE0
ENDCHAR
STARTCHAR AE5F
ENCODING 12662
SWIDTH 1400 0
DWIDTH 14 0
BBX 12 12 1 -2
BITMAP
FF40
1140
1140
1170
2240
6240
8440
0240
0600
0D00
10C0
6020
ENDCHAR
STARTCHAR AE60
ENCODING 12663
SWIDTH 1400 0
DWIDTH 14 0
BBX 12 12 1 -2
BITMAP
FF40
1140
1140
1170
2240
4640
8840
0080
3080
30C0
4920
8610
ENDCHAR
STARTCHAR AE61
ENCODING 12664
SWIDTH 1400 0
DWIDTH 14 0
BBX 12 12 1 -2
BITMAP
FF40
1140
1140
1170
2240
4640
8840
1F80
6060
4020
6060
1F80
ENDCHAR
STARTCHAR AE65
ENCODING 12665
SWIDTH 1400 0
DWIDTH 14 0
BBX 12 12 1 -2
BITMAP
FF40
1140
1140
1170
2240
4640
0840
7FC0
4000
7FC0
4000
7FC0
ENDCHAR
STARTCHAR AE68
ENCODING 12666
SWIDTH 1400 0
DWIDTH 14 0
BBX 10 12 2 -2
BITMAP
FD40
2540
2540
2540
2540
25C0
2540
2540
4940
9940
0140
0140
ENDCHAR
STARTCHAR AE69
ENCODING 12667
SWIDTH 1400 0
DWIDTH 14 0
BBX 10 12 2 -2
BITMAP
FD40
2540
2540
25C0
4540
4940
9140
0000
7FC0
0040
0040
0040
ENDCHAR
STARTCHAR AE6C
ENCODING 12668
SWIDTH 1400 0
DWIDTH 14 0
BBX 11 13 1 -2
BITMAP
0080
FEA0
12A0
12A0
12E0
12A0
24A0
48A0
00A0
2000
2000
2000
3FE0
ENDCHAR
STARTCHAR AE70
ENCODING 12669
SWIDTH 1400 0
DWIDTH 14 0
BBX 10 12 2 -2
BITMAP
FE40
2640
25C0
4640
4A40
9840
0000
7FC0
0040
7FC0
4000
7FC0
ENDCHAR
STARTCHAR AE78
ENCODING 12670
SWIDTH 1400 0
DWIDTH 14 0
BBX 11 12 1 -2
BITMAP
FEA0
12A0
12A0
12E0
24A0
64A0
08A0
3FE0
2020
2020
2020
3FE0
ENDCHAR
STARTCHAR AE79
ENCODING 12833
SWIDTH 1400 0
DWIDTH 14 0
BBX 10 12 2 -2
BITMAP
FD40
2540
2540
25C0
4540
4940
1140
4040
7FC0
4040
4040
7FC0
ENDCHAR
STARTCHAR AE7B
ENCODING 12834
SWIDTH 1400 0
DWIDTH 14 0
BBX 10 12 2 -2
BITMAP
FD40
2540
2540
25C0
2540
4940
9140
0040
0400
0A00
3180
4040
ENDCHAR
STARTCHAR AE7C
ENCODING 12835
SWIDTH 1400 0
DWIDTH 14 0
BBX 12 12 1 -2
BITMAP
EEA0
22A0
22A0
22E0
42A0
44A0
08A0
0080
1080
30C0
4920
8610
ENDCHAR
STARTCHAR AE7D
ENCODING 12836
SWIDTH 1400 0
DWIDTH 14 0
BBX 10 12 2 -2
BITMAP
FD40
2540
2540
25C0
4540
4940
1140
1F00
60C0
4040
60C0
1F00
ENDCHAR
STARTCHAR AE84
ENCODING 12837
SWIDTH 1400 0
DWIDTH 14 0
BBX 13 12 0 -2
BITMAP
F720
1120
1120
1138
1120
1120
1120
2138
2220
C620
0020
0020
ENDCHAR
STARTCHAR AE85
ENCODING 12838
SWIDTH 1400 0
DWIDTH 14 0
BBX 12 12 1 -2
BITMAP
FF40
1170
1140
1140
2270
4240
8C40
0000
7FC0
0040
0040
0040
ENDCHAR
STARTCHAR AE8C
ENCODING 12839
SWIDTH 1400 0
DWIDTH 14 0
BBX 12 13 1 -2
BITMAP
0040
FF40
1170
1140
1170
2240
C440
0800
7FC0
0040
7FC0
4000
7FE0
ENDCHAR
STARTCHAR AEBC
ENCODING 12840
SWIDTH 1400 0
DWIDTH 14 0
BBX 12 13 1 -2
BITMAP
0010
F710
1110
1110
1110
1170
1110
1110
2110
6210
8210
0010
0010
ENDCHAR
STARTCHAR AEBD
ENCODING 12841
SWIDTH 1400 0
DWIDTH 14 0
BBX 10 12 2 -2
BITMAP
FE40
1140
1140
13C0
2240
4440
8840
0000
7FC0
0040
0040
0040
ENDCHAR
STARTCHAR AEBE
ENCODING 12842
SWIDTH 1400 0
DWIDTH 14 0
BBX 10 12 2 -2
BITMAP
FE40
1140
1240
13C0
2240
4440
0840
7FC0
0840
0840
0840
0840
ENDCHAR
STARTCHAR AEC0
ENCODING 12843
SWIDTH 1400 0
DWIDTH 14 0
BBX 10 12 2 -2
BITMAP
FE40
1240
1240
1240
13C0
2440
CC40
1040
4040
4000
4000
7FC0
ENDCHAR
STARTCHAR AEC4
ENCODING 12844
SWIDTH 1400 0
DWIDTH 14 0
BBX 11 12 2 -2
BITMAP
EE40
2240
2240
23C0
2240
C440
0840
7FC0
0040
7FC0
4000
7FE0
ENDCHAR
STARTCHAR AECC
ENCODING 12845
SWIDTH 1400 0
DWIDTH 14 0
BBX 11 12 2 -2
BITMAP
FE20
1120
1220
12E0
2220
C420
0820
7FC0
4040
4040
4040
7FC0
ENDCHAR
STARTCHAR AECD
ENCODING 12846
SWIDTH 1400 0
DWIDTH 14 0
BBX 11 12 2 -2
BITMAP
FE40
1140
1240
13C0
2240
4440
4820
4020
7FE0
4020
4020
7FE0
ENDCHAR
STARTCHAR AECF
ENCODING 12847
SWIDTH 1400 0
DWIDTH 14 0
BBX 11 13 1 -2
BITMAP
0020
FF20
1120
1120
11E0
2220
6220
8420
0220
0600
0D00
10C0
6020
ENDCHAR
STARTCHAR AED0
ENCODING 12848
SWIDTH 1400 0
DWIDTH 14 0
BBX 12 13 1 -2
BITMAP
0020
F720
1120
1120
11E0
2220
C220
0420
1000
10C0
30C0
6920
0610
ENDCHAR
STARTCHAR AED1
ENCODING 12849
SWIDTH 1400 0
DWIDTH 14 0
BBX 11 13 2 -2
BITMAP
0020
EE20
1120
1220
22E0
2220
4420
0820
1F20
60C0
4040
60C0
1F00
ENDCHAR
STARTCHAR AED8
ENCODING 12850
SWIDTH 1400 0
DWIDTH 14 0
BBX 10 13 2 -2
BITMAP
0100
FD40
2540
2540
2540
2740
2540
2540
2540
4940
9940
0140
0140
ENDCHAR
STARTCHAR AED9
ENCODING 12851
SWIDTH 1400 0
DWIDTH 14 0
BBX 10 13 2 -2
BITMAP
0100
FD40
2540
2540
2740
4540
C940
1140
0000
7FC0
0040
0040
0040
ENDCHAR
STARTCHAR AEDC
ENCODING 12852
SWIDTH 1400 0
DWIDTH 14 0
BBX 10 12 2 -2
BITMAP
FD40
2540
2540
2740
2540
4940
9140
0140
4040
4000
4000
7FC0
ENDCHAR
STARTCHAR AEE8
ENCODING 12853
SWIDTH 1400 0
DWIDTH 14 0
BBX 11 13 2 -2
BITMAP
0100
FD40
2540
2540
2740
4540
4940
1140
7FE0
4020
4020
4020
7FE0
ENDCHAR
STARTCHAR AEEB
ENCODING 12854
SWIDTH 1400 0
DWIDTH 14 0
BBX 10 12 2 -2
BITMAP
FD40
2540
2540
2740
2540
4940
C940
1440
0600
0A00
3180
C040
ENDCHAR
STARTCHAR AEED
ENCODING 12855
SWIDTH 1400 0
DWIDTH 14 0
BBX 11 12 2 -2
BITMAP
FD20
2520
2520
2720
4520
4920
9920
1F00
60C0
4040
60C0
1F00
ENDCHAR
STARTCHAR AEF4
ENCODING 12856
SWIDTH 1400 0
DWIDTH 14 0
BBX 11 13 1 -2
BITMAP
0020
F720
1120
1120
11E0
1120
1120
1120
21E0
6220
C420
0020
0020
ENDCHAR
STARTCHAR AEF8
ENCODING 12857
SWIDTH 1400 0
DWIDTH 14 0
BBX 11 12 2 -2
BITMAP
FE20
1220
12E0
1220
1220
24E0
C820
0020
4020
4000
4000
7FC0
ENDCHAR
STARTCHAR AEFC
ENCODING 12858
SWIDTH 1400 0
DWIDTH 14 0
BBX 11 12 2 -2
BITMAP
EE20
22E0
2220
2220
22E0
C420
0820
7FC0
0040
7FC0
4000
7FE0
ENDCHAR
STARTCHAR AF07
ENCODING 12859
SWIDTH 1400 0
DWIDTH 14 0
BBX 12 12 1 -2
BITMAP
7720
1120
11E0
1120
12E0
2220
C420
0020
0300
0500
18C0
6030
ENDCHAR
STARTCHAR AF08
ENCODING 12860
SWIDTH 1400 0
DWIDTH 14 0
BBX 11 11 1 -1
BITMAP
F720
1120
11E0
1120
2220
46E0
8020
10A0
10C0
30C0
4D20
ENDCHAR
STARTCHAR AF0D
ENCODING 12861
SWIDTH 1400 0
DWIDTH 14 0
BBX 10 12 2 -2
BITMAP
EE40
2240
23C0
2240
45C0
CC40
0000
7FC0
4000
7FC0
4000
7FC0
ENDCHAR
STARTCHAR AF10
ENCODING 12862
SWIDTH 1400 0
DWIDTH 14 0
BBX 10 12 2 -2
BITMAP
FD40
2540
2540
2740
2540
2540
2740
2540
4940
9140
0140
0040
ENDCHAR
STARTCHAR AF2C
ENCODING 12863
SWIDTH 1400 0
DWIDTH 14 0
BBX 12 11 1 -1
BITMAP
7BE0
0820
0820
0820
0820
0820
0A20
1240
0200
0200
FFF0
ENDCHAR
STARTCHAR AF2D
ENCODING 12864
SWIDTH 1400 0
DWIDTH 14 0
BBX 12 12 1 -2
BITMAP
7BC0
0820
0820
0A20
0A00
0200
FFF0
0000
7FC0
0020
0020
0020
ENDCHAR
STARTCHAR AF30
ENCODING 12865
SWIDTH 1400 0
DWIDTH 14 0
BBX 12 12 1 -2
BITMAP
7BC0
0820
0820
0A20
0A40
0A40
FFF0
0000
2000
2000
2000
3FE0
ENDCHAR
STARTCHAR AF32
ENCODING 12866
SWIDTH 1400 0
DWIDTH 14 0
BBX 12 12 1 -2
BITMAP
7BC0
0820
0820
0A40
0A40
FFF0
0000
41C0
47E0
43E0
7A20
03E0
ENDCHAR
STARTCHAR AF34
ENCODING 12867
SWIDTH 1400 0
DWIDTH 14 0
BBX 12 12 1 -2
BITMAP
7BC0
0820
0820
0A40
0A40
FFF0
0000
7FE0
0020
3FE0
4000
3FE0
ENDCHAR
STARTCHAR AF3C
ENCODING 12868
SWIDTH 1400 0
DWIDTH 14 0
BBX 12 12 1 -2
BITMAP
79E0
0820
0820
0A20
0A20
FFF0
0000
3FE0
2020
2020
2020
3FE0
ENDCHAR
STARTCHAR AF3D
ENCODING 12869
SWIDTH 1400 0
DWIDTH 14 0
BBX 12 12 1 -2
BITMAP
7BC0
0820
0820
0A40
0A40
FFF0
4020
4020
7FE0
4020
4020
7FE0
ENDCHAR
STARTCHAR AF3F
ENCODING 12870
SWIDTH 1400 0
DWIDTH 14 0
BBX 12 12 1 -2
BITMAP
7BE0
0820
0820
0A20
0A20
0200
FFF0
0000
0600
0500
18C0
6020
ENDCHAR
STARTCHAR AF41
ENCODING 12871
SWIDTH 1400 0
DWIDTH 14 0
BBX 12 12 1 -2
BITMAP
7BE0
0820
0820
0A20
0A20
FFF0
0000
0F80
3060
2020
3060
0F80
ENDCHAR
STARTCHAR AF42
ENCODING 12872
SWIDTH 1400 0
DWIDTH 14 0
BBX 12 12 1 -2
BITMAP
7BC0
0820
0820
0A40
0A40
FFF0
0000
3FE0
0200
0700
1980
7060
ENDCHAR
STARTCHAR AF43
ENCODING 12873
SWIDTH 1400 0
DWIDTH 14 0
BBX 12 12 1 -2
BITMAP
7BC0
0820
0A40
0A40
FFF0
0000
0F00
0000
7FE0
0600
0900
70E0
ENDCHAR
STARTCHAR AF48
ENCODING 12874
SWIDTH 1400 0
DWIDTH 14 0
BBX 12 12 1 -2
BITMAP
FF40
1140
1140
1140
1140
1970
2940
0840
FFC0
0040
0040
0040
ENDCHAR
STARTCHAR AF49
ENCODING 12875
SWIDTH 1400 0
DWIDTH 14 0
BBX 12 12 1 -2
BITMAP
EE40
1140
2140
2A70
2A40
FFC0
07C0
0040
7FC0
0040
0040
0040
ENDCHAR
STARTCHAR AF50
ENCODING 12876
SWIDTH 1400 0
DWIDTH 14 0
BBX 13 12 0 -2
BITMAP
7720
08A0
10A0
1538
1520
FFE0
0000
3FE0
0020
3FE0
2000
3FE0
ENDCHAR
STARTCHAR AF5C
ENCODING 12877
SWIDTH 1400 0
DWIDTH 14 0
BBX 12 11 1 -1
BITMAP
EE40
1140
2140
2A70
2A40
FFC0
0040
2080
3080
3140
4B20
ENDCHAR
STARTCHAR AF5D
ENCODING 12878
SWIDTH 1400 0
DWIDTH 14 0
BBX 12 12 1 -2
BITMAP
EE40
1140
1140
2170
2A40
0840
FFC0
1F80
6060
4020
6060
1F80
ENDCHAR
STARTCHAR AF64
ENCODING 12879
SWIDTH 1400 0
DWIDTH 14 0
BBX 10 13 2 -2
BITMAP
0140
FD40
2540
2540
2540
25C0
5540
5540
1140
1340
FD40
0140
0100
ENDCHAR
STARTCHAR AF65
ENCODING 12880
SWIDTH 1400 0
DWIDTH 14 0
BBX 10 12 2 -2
BITMAP
FD40
2540
2540
35C0
3540
FF40
0140
0000
7FC0
0040
0040
0040
ENDCHAR
STARTCHAR AF79
ENCODING 12881
SWIDTH 1400 0
DWIDTH 14 0
BBX 10 12 2 -2
BITMAP
FD40
2540
2540
35C0
3540
FF40
0140
1F00
60C0
4040
60C0
1F00
ENDCHAR
STARTCHAR AF80
ENCODING 12882
SWIDTH 1400 0
DWIDTH 14 0
BBX 10 11 2 -1
BITMAP
E740
2140
2140
2140
2140
2A40
2A40
0840
0FC0
F040
0040
ENDCHAR
STARTCHAR AF84
ENCODING 12883
SWIDTH 1400 0
DWIDTH 14 0
BBX 10 12 2 -2
BITMAP
EE40
2140
2140
2140
2A40
0840
FFC0
0040
4040
4000
4000
7FC0
ENDCHAR
STARTCHAR AF88
ENCODING 12884
SWIDTH 1400 0
DWIDTH 14 0
BBX 10 12 2 -2
BITMAP
EE40
2140
2140
2A40
2A40
FFC0
0040
7FC0
0040
7FC0
4000
7FC0
ENDCHAR
STARTCHAR AF90
ENCODING 12885
SWIDTH 1400 0
DWIDTH 14 0
BBX 10 12 2 -2
BITMAP
EF40
2140
2140
2940
2A40
FFC0
0040
7FC0
4040
4040
4040
7FC0
ENDCHAR
STARTCHAR AF91
ENCODING 12886
SWIDTH 1400 0
DWIDTH 14 0
BBX 10 12 2 -2
BITMAP
EF40
2140
2140
2940
0840
FFC0
0040
4040
7FC0
4040
4040
7FC0
ENDCHAR
STARTCHAR AF95
ENCODING 12887
SWIDTH 1400 0
DWIDTH 14 0
BBX 10 12 2 -2
BITMAP
EF40
2140
2140
2940
2A40
FFC0
0040
1F00
60C0
4040
60C0
1F00
ENDCHAR
STARTCHAR AF9C
ENCODING 12888
SWIDTH 1400 0
DWIDTH 14 0
BBX 11 11 2 -1
BITMAP
F7C0
1040
1040
1040
1040
1040
2940
2940
0900
0900
FFE0
ENDCHAR
STARTCHAR AFB8
ENCODING 12889
SWIDTH 1400 0
DWIDTH 14 0
BBX 12 12 1 -2
BITMAP
F9E0
0820
0820
0820
0820
0820
FFF0
0200
0200
0200
0200
0200
ENDCHAR
STARTCHAR AFB9
ENCODING 12890
SWIDTH 1400 0
DWIDTH 14 0
BBX 11 12 2 -2
BITMAP
FBC0
0840
0840
0840
0840
FFE0
0400
0400
7FC0
0040
0040
0040
ENDCHAR
STARTCHAR AFBC
ENCODING 12891
SWIDTH 1400 0
DWIDTH 14 0
BBX 11 12 2 -2
BITMAP
FBC0
0840
0840
0840
0840
FFE0
0400
0400
4400
4000
4000
7FC0
ENDCHAR
STARTCHAR AFC0
ENCODING 12892
SWIDTH 1400 0
DWIDTH 14 0
BBX 12 12 1 -2
BITMAP
7FE0
0440
0840
0840
FFF0
0200
0200
7FC0
0020
7FE0
4000
3FE0
ENDCHAR
STARTCHAR AFC7
ENCODING 12893
SWIDTH 1400 0
DWIDTH 14 0
BBX 11 12 2 -2
BITMAP
FBC0
0840
0840
0840
FFE0
0400
0780
F7C0
1000
F3C0
8440
F3C0
ENDCHAR
STARTCHAR AFC8
ENCODING 12894
SWIDTH 1400 0
DWIDTH 14 0
BBX 11 12 2 -2
BITMAP
FBC0
0840
0840
0840
0840
FFE0
0400
7FC0
4040
4040
4040
7FC0
ENDCHAR
STARTCHAR AFC9
ENCODING 12895
SWIDTH 1400 0
DWIDTH 14 0
BBX 11 12 2 -2
BITMAP
FBC0
0840
0840
0840
0840
FFE0
4440
4440
7FC0
4040
4040
7FC0
ENDCHAR
STARTCHAR AFCB
ENCODING 12896
SWIDTH 1400 0
DWIDTH 14 0
BBX 11 12 2 -2
BITMAP
FBC0
0840
0840
0840
0840
FFE0
0400
0400
0400
0A00
3100
C0C0
ENDCHAR
STARTCHAR AFCD
ENCODING 12897
SWIDTH 1400 0
DWIDTH 14 0
BBX 11 12 2 -2
BITMAP
FBC0
0840
0840
0840
0840
FFE0
0400
1F00
60C0
4040
60C0
1F00
ENDCHAR
STARTCHAR AFCE
ENCODING 12898
SWIDTH 1400 0
DWIDTH 14 0
BBX 12 11 1 -1
BITMAP
F9E0
0820
0820
0820
0820
FFF0
0200
7FE0
0600
0900
70E0
ENDCHAR
STARTCHAR AFD4
ENCODING 12899
SWIDTH 1400 0
DWIDTH 14 0
BBX 10 12 2 -2
BITMAP
F740
1140
1140
1140
1140
1140
FFC0
0840
0BC0
0840
0840
0840
ENDCHAR
STARTCHAR AFDC
ENCODING 12900
SWIDTH 1400 0
DWIDTH 14 0
BBX 10 12 2 -2
BITMAP
EE40
2240
2240
2240
FF40
13C0
0040
7FC0
0040
7FC0
4000
7FC0
ENDCHAR
STARTCHAR AFE8
ENCODING 12901
SWIDTH 1400 0
DWIDTH 14 0
BBX 12 11 1 -1
BITMAP
7720
1120
1120
1FA0
F820
09E0
0820
1080
30C0
2940
CE30
ENDCHAR
STARTCHAR AFE9
ENCODING 12902
SWIDTH 1400 0
DWIDTH 14 0
BBX 11 12 1 -2
BITMAP
73A0
10A0
10A0
10A0
FFE0
05E0
0420
0F80
3060
2020
3060
0F80
ENDCHAR
STARTCHAR AFF0
ENCODING 12903
SWIDTH 1400 0
DWIDTH 14 0
BBX 10 13 2 -2
BITMAP
0100
FD40
2540
2540
2540
2540
2740
F940
1740
1140
1140
1140
0040
ENDCHAR
STARTCHAR AFF1
ENCODING 12904
SWIDTH 1400 0
DWIDTH 14 0
BBX 12 13 1 -2
BITMAP
0090
EE90
2290
2290
2290
2F90
5390
1080
3FF0
0010
0010
0010
0010
ENDCHAR
STARTCHAR AFF4
ENCODING 12905
SWIDTH 1400 0
DWIDTH 14 0
BBX 11 13 1 -2
BITMAP
0020
FCA0
24A0
24A0
24A0
24A0
F8A0
13A0
10A0
2080
2000
2000
3FE0
ENDCHAR
STARTCHAR AFF8
ENCODING 12906
SWIDTH 1400 0
DWIDTH 14 0
BBX 12 13 1 -2
BITMAP
0010
6C90
2490
2490
2490
FE90
1390
0080
3FE0
0020
3FE0
2000
3FF0
ENDCHAR
STARTCHAR B000
ENCODING 12907
SWIDTH 1400 0
DWIDTH 14 0
BBX 12 13 1 -2
BITMAP
0010
EE90
2290
2290
2290
FF90
0B90
0890
3FF0
2010
2010
2010
3FF0
ENDCHAR
STARTCHAR B001
ENCODING 12908
SWIDTH 1400 0
DWIDTH 14 0
BBX 11 13 2 -2
BITMAP
0120
FD20
2520
2520
2520
FF20
1720
1120
4040
7FC0
4040
4040
7FC0
ENDCHAR
STARTCHAR B004
ENCODING 12909
SWIDTH 1400 0
DWIDTH 14 0
BBX 12 13 1 -2
BITMAP
00A0
FCA0
24A0
24A0
24A0
FEA0
13A0
10A0
1000
1040
30C0
4920
8610
ENDCHAR
STARTCHAR B00C
ENCODING 12910
SWIDTH 1400 0
DWIDTH 14 0
BBX 10 12 2 -2
BITMAP
FE40
1240
1240
1240
1240
1240
FFC0
0840
0840
0840
0840
0840
ENDCHAR
STARTCHAR B010
ENCODING 12911
SWIDTH 1400 0
DWIDTH 14 0
BBX 11 13 1 -2
BITMAP
0020
FF20
1120
1120
1120
1120
FFE0
0420
0420
2420
2000
2000
3FE0
ENDCHAR
STARTCHAR B014
ENCODING 12912
SWIDTH 1400 0
DWIDTH 14 0
BBX 11 12 1 -2
BITMAP
F720
1120
1120
1120
FFE0
0820
0020
3FE0
0020
3FE0
2000
3FE0
ENDCHAR
STARTCHAR B01C
ENCODING 12913
SWIDTH 1400 0
DWIDTH 14 0
BBX 11 12 1 -2
BITMAP
FF20
1120
1120
1120
FFE0
0420
0420
3FE0
2020
2020
2020
3FE0
ENDCHAR
STARTCHAR B01D
ENCODING 12914
SWIDTH 1400 0
DWIDTH 14 0
BBX 11 12 1 -2
BITMAP
FF20
1120
1120
1120
FFE0
0420
0420
2020
3FE0
2020
2020
3FE0
ENDCHAR
STARTCHAR B028
ENCODING 12915
SWIDTH 1400 0
DWIDTH 14 0
BBX 12 12 1 -2
BITMAP
7BE0
0820
0820
0820
0820
0820
FFF0
1080
1080
1080
1080
1080
ENDCHAR
STARTCHAR B044
ENCODING 12916
SWIDTH 1400 0
DWIDTH 14 0
BBX 12 11 1 -1
BITMAP
7BE0
0820
0820
0820
0820
0820
0820
0820
0820
1040
FFF0
ENDCHAR
STARTCHAR B045
ENCODING 12917
SWIDTH 1400 0
DWIDTH 14 0
BBX 11 12 2 -2
BITMAP
7FC0
0840
0840
0840
0840
FFE0
0000
7FC0
0040
0040
0040
0040
ENDCHAR
STARTCHAR B048
ENCODING 12918
SWIDTH 1400 0
DWIDTH 14 0
BBX 11 12 2 -2
BITMAP
7FC0
0840
0840
0840
0840
FFE0
0000
0000
4000
4000
4000
7FC0
ENDCHAR
STARTCHAR B04A
ENCODING 12919
SWIDTH 1400 0
DWIDTH 14 0
BBX 11 12 2 -2
BITMAP
7FC0
0840
0840
0840
0840
FFE0
0380
8000
8FC0
87C0
8440
F780
ENDCHAR
STARTCHAR B04C
ENCODING 12920
SWIDTH 1400 0
DWIDTH 14 0
BBX 12 12 1 -2
BITMAP
7DE0
0420
0420
0420
0820
FFF0
0000
7FE0
0020
3FE0
4000
3FE0
ENDCHAR
STARTCHAR B04E
ENCODING 12921
SWIDTH 1400 0
DWIDTH 14 0
BBX 11 12 2 -2
BITMAP
7FC0
0840
0840
0840
0840
FFE0
0000
F3C0
1240
F240
8240
FBC0
ENDCHAR
STARTCHAR B053
ENCODING 12922
SWIDTH 1400 0
DWIDTH 14 0
BBX 11 12 2 -2
BITMAP
7FC0
0840
0840
0840
0840
FFE0
0000
F380
17C0
F380
8440
F380
ENDCHAR
STARTCHAR B054
ENCODING 12923
SWIDTH 1400 0
DWIDTH 14 0
BBX 11 12 2 -2
BITMAP
7FC0
0840
0840
0840
0840
FFE0
0000
7FC0
4040
4040
4040
7FC0
ENDCHAR
STARTCHAR B055
ENCODING 12924
SWIDTH 1400 0
DWIDTH 14 0
BBX 11 12 2 -2
BITMAP
7FC0
0840
0840
0840
0840
FFE0
4040
4040
7FC0
4040
4040
7FC0
ENDCHAR
STARTCHAR B057
ENCODING 12925
SWIDTH 1400 0
DWIDTH 14 0
BBX 11 12 2 -2
BITMAP
7FC0
0840
0840
0840
0840
FFE0
0000
0400
0400
0A00
3180
C040
ENDCHAR
STARTCHAR B059
ENCODING 12926
SWIDTH 1400 0
DWIDTH 14 0
BBX 11 12 2 -2
BITMAP
7FC0
0840
0840
0840
0840
FFE0
0000
1F00
60C0
4040
60C0
1F00
ENDCHAR
STARTCHAR B05D
ENCODING 13089
SWIDTH 1400 0
DWIDTH 14 0
BBX 11 12 2 -2
BITMAP
7FC0
0840
0840
0840
0840
FFE0
0000
7FC0
4000
7FC0
4000
7FC0
ENDCHAR
STARTCHAR B07C
ENCODING 13090
SWIDTH 1400 0
DWIDTH 14 0
BBX 11 12 1 -2
BITMAP
F720
1120
1120
1120
1120
1120
1120
2120
2220
C220
0020
0020
ENDCHAR
STARTCHAR B07D
ENCODING 13091
SWIDTH 1400 0
DWIDTH 14 0
BBX 10 12 2 -2
BITMAP
FE40
1240
1240
2240
2440
D840
0040
3FC0
0040
0040
0040
0040
ENDCHAR
STARTCHAR B080
ENCODING 13092
SWIDTH 1400 0
DWIDTH 14 0
BBX 10 12 2 -2
BITMAP
F740
1140
1140
1140
1140
2240
C440
0040
4040
4000
4000
7FC0
ENDCHAR
STARTCHAR B084
ENCODING 13093
SWIDTH 1400 0
DWIDTH 14 0
BBX 11 12 2 -2
BITMAP
EE40
2240
2240
2240
2440
C840
0000
7FC0
0040
3FC0
4000
3FE0
ENDCHAR
STARTCHAR B08C
ENCODING 13094
SWIDTH 1400 0
DWIDTH 14 0
BBX 10 12 2 -2
BITMAP
FF40
1140
1240
1240
2440
4840
0000
7FC0
4040
4040
4040
7FC0
ENDCHAR
STARTCHAR B08D
ENCODING 13095
SWIDTH 1400 0
DWIDTH 14 0
BBX 10 12 2 -2
BITMAP
EE40
1140
1240
2240
2440
C840
4040
4040
7FC0
4040
4040
7FC0
ENDCHAR
STARTCHAR B08F
ENCODING 13096
SWIDTH 1400 0
DWIDTH 14 0
BBX 12 12 1 -2
BITMAP
F720
1120
1120
1120
2220
6220
8420
0020
0200
0500
1880
6070
ENDCHAR
STARTCHAR B091
ENCODING 13097
SWIDTH 1400 0
DWIDTH 14 0
BBX 10 12 2 -2
BITMAP
EE40
1140
1140
2240
2240
4440
8840
1F40
60C0
4040
60C0
1F00
ENDCHAR
STARTCHAR B098
ENCODING 13098
SWIDTH 1400 0
DWIDTH 14 0
BBX 12 13 1 -2
BITMAP
0040
8040
8040
8040
8040
8070
8040
8040
8040
7FC0
0040
0040
0040
ENDCHAR
STARTCHAR B099
ENCODING 13099
SWIDTH 1400 0
DWIDTH 14 0
BBX 12 13 1 -2
BITMAP
0040
8040
8040
8070
8040
87C0
F840
0040
7FC0
0040
0040
0040
0040
ENDCHAR
STARTCHAR B09A
ENCODING 13100
SWIDTH 1400 0
DWIDTH 14 0
BBX 12 13 1 -2
BITMAP
8040
8040
8040
8070
8040
FFC0
0040
0040
FFC0
0840
0840
0840
0840
ENDCHAR
STARTCHAR B09C
ENCODING 13101
SWIDTH 1400 0
DWIDTH 14 0
BBX 12 12 1 -2
BITMAP
8040
8040
8040
8070
8040
FFC0
0040
0040
4040
4000
4000
7FC0
ENDCHAR
STARTCHAR B09F
ENCODING 13102
SWIDTH 1400 0
DWIDTH 14 0
BBX 12 13 1 -2
BITMAP
8000
8040
8040
8070
8040
FFC0
0040
0040
7FC0
4000
4000
4000
7FC0
ENDCHAR
STARTCHAR B0A0
ENCODING 13103
SWIDTH 1400 0
DWIDTH 14 0
BBX 12 13 1 -2
BITMAP
8000
8040
8040
8070
8040
FFC0
0040
7FC0
0040
7FC0
4000
4000
7FC0
ENDCHAR
STARTCHAR B0A1
ENCODING 13104
SWIDTH 1400 0
DWIDTH 14 0
BBX 12 13 1 -2
BITMAP
8000
8040
8040
8070
8040
FFC0
0040
0000
F7C0
1040
F040
8040
F840
ENDCHAR
STARTCHAR B0A2
ENCODING 13105
SWIDTH 1400 0
DWIDTH 14 0
BBX 12 13 1 -2
BITMAP
8000
8040
8040
8070
8040
FFC0
0040
0000
F3C0
1240
F240
8240
FBC0
ENDCHAR
STARTCHAR B0A8
ENCODING 13106
SWIDTH 1400 0
DWIDTH 14 0
BBX 12 13 1 -2
BITMAP
8000
8040
8040
8070
8040
FFC0
0040
0040
7FC0
4040
4040
4040
7FC0
ENDCHAR
STARTCHAR B0A9
ENCODING 13107
SWIDTH 1400 0
DWIDTH 14 0
BBX 12 13 1 -2
BITMAP
8000
8040
8040
8070
8040
FFC0
0040
4040
4040
7FC0
4040
4040
7FC0
ENDCHAR
STARTCHAR B0AB
ENCODING 13108
SWIDTH 1400 0
DWIDTH 14 0
BBX 12 12 1 -2
BITMAP
8040
8040
8040
8070
8040
FFC0
0040
0440
0600
0900
3080
4060
ENDCHAR
STARTCHAR B0AC
ENCODING 13109
SWIDTH 1400 0
DWIDTH 14 0
BBX 12 12 1 -1
BITMAP
8000
8040
8040
8070
8040
FFC0
0040
0040
2080
2080
5180
CA60
ENDCHAR
STARTCHAR B0AD
ENCODING 13110
SWIDTH 1400 0
DWIDTH 14 0
BBX 12 12 1 -2
BITMAP
8040
8040
8070
8040
8040
FFC0
0040
3F40
C0C0
8040
C0C0
3F00
ENDCHAR
STARTCHAR B0AE
ENCODING 13111
SWIDTH 1400 0
DWIDTH 14 0
BBX 12 13 1 -2
BITMAP
8040
8040
8040
8070
8040
FFC0
0040
0000
FFC0
0C00
0A00
3100
C0C0
ENDCHAR
STARTCHAR B0AF
ENCODING 13112
SWIDTH 1400 0
DWIDTH 14 0
BBX 12 13 1 -2
BITMAP
8040
8040
8040
8070
8040
FFC0
0040
1E00
0000
FFC0
0C00
3300
C0C0
ENDCHAR
STARTCHAR B0B1
ENCODING 13113
SWIDTH 1400 0
DWIDTH 14 0
BBX 12 13 1 -2
BITMAP
8040
8040
8040
8070
8040
FFC0
0040
0000
7FC0
4000
7FC0
4000
7FC0
ENDCHAR
STARTCHAR B0B3
ENCODING 13114
SWIDTH 1400 0
DWIDTH 14 0
BBX 12 13 1 -2
BITMAP
8040
8040
8040
8070
8040
FFC0
0040
1F40
0000
FFE0
3F80
4040
3F80
ENDCHAR
STARTCHAR B0B4
ENCODING 13115
SWIDTH 1400 0
DWIDTH 14 0
BBX 10 12 2 -1
BITMAP
8240
8240
8240
8240
8240
83C0
8240
8240
8240
7E40
0240
0240
ENDCHAR
STARTCHAR B0B5
ENCODING 13116
SWIDTH 1400 0
DWIDTH 14 0
BBX 10 12 2 -2
BITMAP
8240
8240
8240
83C0
8240
FE40
0240
0040
7FC0
0040
0040
0040
ENDCHAR
STARTCHAR B0B8
ENCODING 13117
SWIDTH 1400 0
DWIDTH 14 0
BBX 10 13 2 -2
BITMAP
8200
8240
8240
8240
83C0
8240
FE40
0240
0240
4040
4000
4000
7FC0
ENDCHAR
STARTCHAR B0BC
ENCODING 13118
SWIDTH 1400 0
DWIDTH 14 0
BBX 10 13 2 -2
BITMAP
8200
8240
8240
83C0
8240
FE40
0240
0000
7FC0
0040
7FC0
4000
7FC0
ENDCHAR
STARTCHAR B0C4
ENCODING 13119
SWIDTH 1400 0
DWIDTH 14 0
BBX 10 13 2 -2
BITMAP
0200
8240
8240
83C0
8240
8240
FE40
0240
7FC0
4040
4040
4040
7FC0
ENDCHAR
STARTCHAR B0C5
ENCODING 13120
SWIDTH 1400 0
DWIDTH 14 0
BBX 10 13 2 -2
BITMAP
0200
8240
8240
83C0
8240
8240
FE40
0200
4040
7FC0
4040
4040
7FC0
ENDCHAR
STARTCHAR B0C7
ENCODING 13121
SWIDTH 1400 0
DWIDTH 14 0
BBX 10 12 2 -2
BITMAP
8240
8240
8240
83C0
8240
FE40
0240
0040
0C00
1A00
6180
8040
ENDCHAR
STARTCHAR B0C8
ENCODING 13122
SWIDTH 1400 0
DWIDTH 14 0
BBX 10 13 2 -2
BITMAP
8200
8240
8240
83C0
8240
FE40
0240
0040
2100
6180
6180
9240
0800
ENDCHAR
STARTCHAR B0C9
ENCODING 13123
SWIDTH 1400 0
DWIDTH 14 0
BBX 10 12 2 -2
BITMAP
8240
8240
8240
83C0
8240
FE40
0240
3F40
C0C0
8040
C0C0
3F00
ENDCHAR
STARTCHAR B0D0
ENCODING 13124
SWIDTH 1400 0
DWIDTH 14 0
BBX 11 13 1 -2
BITMAP
0080
8080
8080
80E0
8080
8080
8080
80E0
8180
FE80
0080
0080
0080
ENDCHAR
STARTCHAR B0D1
ENCODING 13125
SWIDTH 1400 0
DWIDTH 14 0
BBX 12 13 1 -2
BITMAP
0040
8040
8070
8040
8040
87F0
F840
0040
0000
FFC0
0040
0040
0040
ENDCHAR
STARTCHAR B0D4
ENCODING 13126
SWIDTH 1400 0
DWIDTH 14 0
BBX 12 13 1 -2
BITMAP
8000
8040
8040
8070
8040
8040
FFF0
0040
0040
4040
4000
4000
7FE0
ENDCHAR
STARTCHAR B0D8
ENCODING 13127
SWIDTH 1400 0
DWIDTH 14 0
BBX 12 13 1 -2
BITMAP
8040
8040
8070
8040
8040
FFF0
0040
7FC0
0040
7FC0
4000
4000
7FE0
ENDCHAR
STARTCHAR B0E0
ENCODING 13128
SWIDTH 1400 0
DWIDTH 14 0
BBX 12 13 1 -2
BITMAP
8040
8040
8070
8040
8040
FFF0
0040
0000
7FC0
4040
4040
4040
7FC0
ENDCHAR
STARTCHAR B0E5
ENCODING 13129
SWIDTH 1400 0
DWIDTH 14 0
BBX 12 13 1 -2
BITMAP
0040
8040
8070
8040
8040
8070
FFC0
0040
1F40
60C0
4040
60C0
1F00
ENDCHAR
STARTCHAR B108
ENCODING 13130
SWIDTH 1400 0
DWIDTH 14 0
BBX 10 13 2 -2
BITMAP
0040
8040
8040
8040
87C0
8040
8040
8040
8040
FE40
0040
0040
0040
ENDCHAR
STARTCHAR B109
ENCODING 13131
SWIDTH 1400 0
DWIDTH 14 0
BBX 10 12 2 -2
BITMAP
8040
8040
87C0
8040
8040
FE40
0040
7FC0
0040
0040
0040
0040
ENDCHAR
STARTCHAR B10B
ENCODING 13132
SWIDTH 1400 0
DWIDTH 14 0
BBX 11 13 1 -2
BITMAP
0020
8020
8020
83E0
8020
8320
7C20
0020
7C80
04C0
04C0
0520
0400
ENDCHAR
STARTCHAR B10C
ENCODING 13133
SWIDTH 1400 0
DWIDTH 14 0
BBX 10 13 2 -2
BITMAP
0040
8040
8040
87C0
8040
8040
CF40
3040
0040
4040
4000
4000
7FC0
ENDCHAR
STARTCHAR B110
ENCODING 13134
SWIDTH 1400 0
DWIDTH 14 0
BBX 10 12 2 -2
BITMAP
8040
8040
87C0
8040
8740
7840
0040
7FC0
0040
7FC0
4000
7FC0
ENDCHAR
STARTCHAR B112
ENCODING 13135
SWIDTH 1400 0
DWIDTH 14 0
BBX 10 12 2 -2
BITMAP
8040
8040
87C0
8040
8040
7E40
0040
7BC0
0A40
7A40
8240
7BC0
ENDCHAR
STARTCHAR B113
ENCODING 13136
SWIDTH 1400 0
DWIDTH 14 0
BBX 10 12 2 -2
BITMAP
8040
8040
87C0
8040
8740
7840
0000
F240
13C0
F240
8240
FBC0
ENDCHAR
STARTCHAR B118
ENCODING 13137
SWIDTH 1400 0
DWIDTH 14 0
BBX 10 12 2 -2
BITMAP
8040
8040
87C0
8040
8040
7E40
0040
7FC0
4040
4040
4040
7FC0
ENDCHAR
STARTCHAR B119
ENCODING 13138
SWIDTH 1400 0
DWIDTH 14 0
BBX 10 12 2 -2
BITMAP
8040
8040
87C0
8040
8340
7C40
4040
4040
7FC0
4040
4040
7FC0
ENDCHAR
STARTCHAR B11B
ENCODING 13139
SWIDTH 1400 0
DWIDTH 14 0
BBX 10 13 2 -2
BITMAP
0040
8040
8040
87C0
8040
8040
CF40
3040
0040
0C00
1200
6180
8040
ENDCHAR
STARTCHAR B11C
ENCODING 13140
SWIDTH 1400 0
DWIDTH 14 0
BBX 10 12 2 -2
BITMAP
8040
8040
87C0
8040
8040
FE40
0040
2100
6180
6180
9240
0800
ENDCHAR
STARTCHAR B11D
ENCODING 13141
SWIDTH 1400 0
DWIDTH 14 0
BBX 10 13 2 -2
BITMAP
0040
8040
8040
87C0
8040
8040
FE40
0040
3F00
C0C0
8040
C0C0
3F00
ENDCHAR
STARTCHAR B123
ENCODING 13142
SWIDTH 1400 0
DWIDTH 14 0
BBX 10 13 2 -2
BITMAP
0040
8040
87C0
8040
8040
8740
7840
1F00
0000
FFC0
7F80
4040
3F80
ENDCHAR
STARTCHAR B124
ENCODING 13143
SWIDTH 1400 0
DWIDTH 14 0
BBX 10 12 2 -2
BITMAP
8240
8240
8240
8240
9E40
8240
8240
8240
FA40
0240
0240
0240
ENDCHAR
STARTCHAR B125
ENCODING 13144
SWIDTH 1400 0
DWIDTH 14 0
BBX 10 13 2 -2
BITMAP
0040
8240
8240
9E40
8240
8240
FE40
0240
0000
7FC0
0040
0040
0040
ENDCHAR
STARTCHAR B128
ENCODING 13145
SWIDTH 1400 0
DWIDTH 14 0
BBX 10 13 2 -2
BITMAP
0200
8240
8240
9E40
8240
8240
FE40
0240
0240
4000
4000
4000
7FC0
ENDCHAR
STARTCHAR B12C
ENCODING 13146
SWIDTH 1400 0
DWIDTH 14 0
BBX 10 13 2 -2
BITMAP
0240
8240
8E40
8240
8240
FE40
0240
0040
7FC0
0040
7FC0
4000
7FC0
ENDCHAR
STARTCHAR B134
ENCODING 13147
SWIDTH 1400 0
DWIDTH 14 0
BBX 10 13 2 -2
BITMAP
0240
8240
8240
9E40
8240
8240
FE40
0240
7FC0
4040
4040
4040
7FC0
ENDCHAR
STARTCHAR B135
ENCODING 13148
SWIDTH 1400 0
DWIDTH 14 0
BBX 10 13 2 -2
BITMAP
0240
8240
8240
9E40
8240
8640
7A40
0200
4040
7FC0
4040
4040
7FC0
ENDCHAR
STARTCHAR B137
ENCODING 13149
SWIDTH 1400 0
DWIDTH 14 0
BBX 10 13 2 -2
BITMAP
0240
8240
8240
9E40
8240
8240
FE40
0240
0040
0400
0A00
3180
C040
ENDCHAR
STARTCHAR B138
ENCODING 13150
SWIDTH 1400 0
DWIDTH 14 0
BBX 10 13 2 -2
BITMAP
0240
8240
8240
9E40
8240
8240
FE40
0240
2100
6180
6180
9240
0800
ENDCHAR
STARTCHAR B139
ENCODING 13151
SWIDTH 1400 0
DWIDTH 14 0
BBX 10 13 2 -2
BITMAP
0240
8240
8240
9E40
8240
8240
FE40
0240
3F00
C0C0
8040
C0C0
3F00
ENDCHAR
STARTCHAR B140
ENCODING 13152
SWIDTH 1400 0
DWIDTH 14 0
BBX 10 12 2 -2
BITMAP
8040
8040
87C0
8040
8040
87C0
8040
8040
FE40
0040
0040
0040
ENDCHAR
STARTCHAR B141
ENCODING 13153
SWIDTH 1400 0
DWIDTH 14 0
BBX 10 13 2 -2
BITMAP
8000
8040
83C0
8040
83C0
8040
FE40
0040
7FC0
0040
0040
0040
0040
ENDCHAR
STARTCHAR B144
ENCODING 13154
SWIDTH 1400 0
DWIDTH 14 0
BBX 10 12 2 -2
BITMAP
8040
83C0
8040
8040
83C0
8040
FE40
0040
4040
4000
4000
7FC0
ENDCHAR
STARTCHAR B148
ENCODING 13155
SWIDTH 1400 0
DWIDTH 14 0
BBX 10 12 2 -2
BITMAP
8040
83C0
8040
83C0
8040
FE40
0000
7FC0
0040
7FC0
4000
7FC0
ENDCHAR
STARTCHAR B150
ENCODING 13156
SWIDTH 1400 0
DWIDTH 14 0
BBX 10 12 2 -2
BITMAP
8040
83C0
8040
83C0
8040
FE40
0040
7FC0
4040
4040
4040
7FC0
ENDCHAR
STARTCHAR B151
ENCODING 13157
SWIDTH 1400 0
DWIDTH 14 0
BBX 10 12 2 -2
BITMAP
8040
83C0
8040
83C0
8040
FE40
4040
4040
7FC0
4040
4040
7FC0
ENDCHAR
STARTCHAR B154
ENCODING 13158
SWIDTH 1400 0
DWIDTH 14 0
BBX 12 12 1 -2
BITMAP
4020
41E0
4020
41E0
4020
7F20
0020
0080
1080
30C0
4920
8610
ENDCHAR
STARTCHAR B155
ENCODING 13159
SWIDTH 1400 0
DWIDTH 14 0
BBX 10 13 2 -2
BITMAP
8000
8040
83C0
8040
83C0
8040
FE40
0040
3F00
C0C0
8040
C0C0
3F00
ENDCHAR
STARTCHAR B158
ENCODING 13160
SWIDTH 1400 0
DWIDTH 14 0
BBX 10 13 2 -2
BITMAP
8000
8040
83C0
8040
83C0
8040
FE40
0040
7FC0
0040
7FC0
0040
0040
ENDCHAR
STARTCHAR B15C
ENCODING 13161
SWIDTH 1400 0
DWIDTH 14 0
BBX 10 13 2 -2
BITMAP
0240
8240
8240
9E40
8240
8240
9E40
8240
8240
FA40
0240
0240
0240
ENDCHAR
STARTCHAR B160
ENCODING 13162
SWIDTH 1400 0
DWIDTH 14 0
BBX 10 13 2 -2
BITMAP
0240
8240
9E40
8240
9E40
8240
8A40
7240
0240
4040
4000
4000
7FC0
ENDCHAR
STARTCHAR B178
ENCODING 13163
SWIDTH 1400 0
DWIDTH 14 0
BBX 11 12 1 -1
BITMAP
4000
4000
4000
4000
4000
4000
7FE0
0000
0400
0400
0400
FFE0
ENDCHAR
STARTCHAR B179
ENCODING 13164
SWIDTH 1400 0
DWIDTH 14 0
BBX 11 13 1 -2
BITMAP
4000
4000
4000
4000
7FC0
0400
FFE0
0000
7FE0
0020
0020
0020
0020
ENDCHAR
STARTCHAR B17C
ENCODING 13165
SWIDTH 1400 0
DWIDTH 14 0
BBX 11 13 2 -2
BITMAP
8000
8000
8000
8000
FFC0
0400
0400
FFE0
0000
8000
8000
8000
FFC0
ENDCHAR
STARTCHAR B180
ENCODING 13166
SWIDTH 1400 0
DWIDTH 14 0
BBX 12 12 1 -2
BITMAP
4000
4000
4000
3FE0
0200
FFF0
0000
7FE0
0020
7FE0
4000
7FE0
ENDCHAR
STARTCHAR B182
ENCODING 13167
SWIDTH 1400 0
DWIDTH 14 0
BBX 12 12 1 -2
BITMAP
4000
4000
4000
7FF0
0200
FFF0
0000
79E0
0920
7920
4120
79E0
ENDCHAR
STARTCHAR B188
ENCODING 13168
SWIDTH 1400 0
DWIDTH 14 0
BBX 12 13 1 -2
BITMAP
4000
4000
4000
4000
7FE0
0200
FFF0
0000
3FE0
2020
2020
2020
3FE0
ENDCHAR
STARTCHAR B189
ENCODING 13169
SWIDTH 1400 0
DWIDTH 14 0
BBX 12 12 1 -2
BITMAP
4000
4000
4000
7FE0
0200
FFF0
0000
4020
7FE0
4020
4020
7FE0
ENDCHAR
STARTCHAR B18B
ENCODING 13170
SWIDTH 1400 0
DWIDTH 14 0
BBX 11 13 2 -2
BITMAP
8000
8000
8000
8000
FFC0
0400
0400
FFE0
0400
0C00
1200
6180
8040
ENDCHAR
STARTCHAR B18D
ENCODING 13171
SWIDTH 1400 0
DWIDTH 14 0
BBX 12 13 1 -2
BITMAP
4000
4000
4000
4000
7FF0
0200
FFF0
0000
1F80
6040
4020
6060
1F80
ENDCHAR
STARTCHAR B192
ENCODING 13172
SWIDTH 1400 0
DWIDTH 14 0
BBX 11 13 2 -2
BITMAP
8000
8000
8000
8000
FFC0
0400
FFE0
0000
FFC0
2100
2100
2100
FFC0
ENDCHAR
STARTCHAR B193
ENCODING 13173
SWIDTH 1400 0
DWIDTH 14 0
BBX 12 12 1 -2
BITMAP
4000
4000
4000
7FE0
0200
FFF0
0000
0F00
7FE0
1F80
2040
1F80
ENDCHAR
STARTCHAR B194
ENCODING 13174
SWIDTH 1400 0
DWIDTH 14 0
BBX 12 13 1 -2
BITMAP
4000
4040
4040
4040
4040
7F40
0070
0840
0840
08C0
FF40
0040
0040
ENDCHAR
STARTCHAR B198
ENCODING 13175
SWIDTH 1400 0
DWIDTH 14 0
BBX 12 13 1 -2
BITMAP
8000
8040
8040
8040
FF40
0870
0840
FFC0
0040
4040
4000
4000
7FC0
ENDCHAR
STARTCHAR B19C
ENCODING 13176
SWIDTH 1400 0
DWIDTH 14 0
BBX 13 12 0 -2
BITMAP
4020
4020
4020
7FB8
0420
FFE0
0020
3FE0
0020
3FE0
2000
1FF0
ENDCHAR
STARTCHAR B1A8
ENCODING 13177
SWIDTH 1400 0
DWIDTH 14 0
BBX 12 11 1 -1
BITMAP
8040
8040
8040
FF70
0840
FBC0
0440
2080
3080
3180
4A60
ENDCHAR
STARTCHAR B1CC
ENCODING 13178
SWIDTH 1400 0
DWIDTH 14 0
BBX 10 13 2 -2
BITMAP
8000
8040
8040
8040
8040
FE40
0840
0840
0840
0FC0
F840
0040
0040
ENDCHAR
STARTCHAR B1D0
ENCODING 13179
SWIDTH 1400 0
DWIDTH 14 0
BBX 10 13 2 -2
BITMAP
8000
8040
8040
8040
FF40
0840
0840
FFC0
0040
4040
4000
4000
7FC0
ENDCHAR
STARTCHAR B1D4
ENCODING 13180
SWIDTH 1400 0
DWIDTH 14 0
BBX 11 12 1 -2
BITMAP
4020
4020
4020
7FA0
0820
FFE0
0020
3FE0
0020
3FE0
2000
3FE0
ENDCHAR
STARTCHAR B1DC
ENCODING 13181
SWIDTH 1400 0
DWIDTH 14 0
BBX 10 12 2 -2
BITMAP
8040
8040
8040
FF40
0840
FFC0
0040
7FC0
4040
4040
4040
7FC0
ENDCHAR
STARTCHAR B1DD
ENCODING 13182
SWIDTH 1400 0
DWIDTH 14 0
BBX 10 12 2 -2
BITMAP
8040
8040
8040
FF40
0840
FFC0
0040
4040
7FC0
4040
4040
7FC0
ENDCHAR
STARTCHAR B1DF
ENCODING 13345
SWIDTH 1400 0
DWIDTH 14 0
BBX 10 12 2 -2
BITMAP
8040
8040
8040
FF40
0840
0FC0
F840
0040
0400
0A00
3180
C040
ENDCHAR
STARTCHAR B1E8
ENCODING 13346
SWIDTH 1400 0
DWIDTH 14 0
BBX 11 11 1 -1
BITMAP
4000
4000
4000
4000
4000
7FE0
0000
1080
1080
1080
FFE0
ENDCHAR
STARTCHAR B1E9
ENCODING 13347
SWIDTH 1400 0
DWIDTH 14 0
BBX 12 12 1 -2
BITMAP
4000
4000
4000
7FE0
1080
FFF0
0000
7FE0
0020
0020
0020
0020
ENDCHAR
STARTCHAR B1EC
ENCODING 13348
SWIDTH 1400 0
DWIDTH 14 0
BBX 12 13 1 -2
BITMAP
4000
4000
4000
4000
7FE0
0880
0880
FFF0
0000
4000
4000
4000
7FE0
ENDCHAR
STARTCHAR B1F0
ENCODING 13349
SWIDTH 1400 0
DWIDTH 14 0
BBX 12 12 1 -2
BITMAP
4000
4000
4000
7FE0
1080
FFF0
0000
7FE0
0020
7FE0
4000
3FE0
ENDCHAR
STARTCHAR B1F9
ENCODING 13350
SWIDTH 1400 0
DWIDTH 14 0
BBX 13 12 0 -2
BITMAP
2000
2000
2000
3FF0
0840
FFF8
0000
2010
3FF0
2010
2010
3FF0
ENDCHAR
STARTCHAR B1FB
ENCODING 13351
SWIDTH 1400 0
DWIDTH 14 0
BBX 13 12 0 -2
BITMAP
2000
2000
2000
3FF0
0840
0840
FFF8
0000
0300
0500
18C0
2030
ENDCHAR
STARTCHAR B1FD
ENCODING 13352
SWIDTH 1400 0
DWIDTH 14 0
BBX 13 12 0 -2
BITMAP
2000
2000
2000
3FF0
0840
0840
FFF8
0000
1FE0
2010
2010
1FE0
ENDCHAR
STARTCHAR B204
ENCODING 13353
SWIDTH 1400 0
DWIDTH 14 0
BBX 11 12 2 -2
BITMAP
8000
8000
8000
8000
FFC0
0000
FFE0
0400
0400
0400
0400
0400
ENDCHAR
STARTCHAR B205
ENCODING 13354
SWIDTH 1400 0
DWIDTH 14 0
BBX 11 14 2 -3
BITMAP
8000
8000
8000
8000
FFC0
0000
FFE0
0400
0400
7FC0
0040
0040
0040
0040
ENDCHAR
STARTCHAR B208
ENCODING 13355
SWIDTH 1400 0
DWIDTH 14 0
BBX 12 13 1 -2
BITMAP
4000
4000
4000
4000
7FE0
0000
0000
FFF0
0200
4200
4200
4000
7FE0
ENDCHAR
STARTCHAR B20B
ENCODING 13356
SWIDTH 1400 0
DWIDTH 14 0
BBX 11 11 2 -1
BITMAP
8000
8000
8000
FFC0
0000
FFE0
0400
FFC0
8000
8000
FF80
ENDCHAR
STARTCHAR B20C
ENCODING 13357
SWIDTH 1400 0
DWIDTH 14 0
BBX 11 12 2 -2
BITMAP
8000
8000
8000
FFC0
0000
FFE0
0400
FFC0
0040
FFC0
8000
FFE0
ENDCHAR
STARTCHAR B214
ENCODING 13358
SWIDTH 1400 0
DWIDTH 14 0
BBX 11 12 2 -2
BITMAP
8000
8000
8000
FFC0
0000
FFE0
0400
FFC0
8040
8040
8040
FFC0
ENDCHAR
STARTCHAR B215
ENCODING 13359
SWIDTH 1400 0
DWIDTH 14 0
BBX 12 12 1 -2
BITMAP
4000
4000
4000
7FE0
0000
FFF0
0200
4220
7FE0
4020
4020
7FE0
ENDCHAR
STARTCHAR B217
ENCODING 13360
SWIDTH 1400 0
DWIDTH 14 0
BBX 11 12 2 -2
BITMAP
8000
8000
8000
FFC0
0000
FFE0
0400
0400
0400
1E00
2100
C0C0
ENDCHAR
STARTCHAR B219
ENCODING 13361
SWIDTH 1400 0
DWIDTH 14 0
BBX 12 12 1 -2
BITMAP
4000
4000
4000
7FE0
0000
FFF0
0200
1FC0
6060
4030
6060
1FC0
ENDCHAR
STARTCHAR B220
ENCODING 13362
SWIDTH 1400 0
DWIDTH 14 0
BBX 11 13 1 -2
BITMAP
2020
2020
2020
2020
3FA0
0020
0020
FFE0
0820
09E0
0820
0820
0820
ENDCHAR
STARTCHAR B234
ENCODING 13363
SWIDTH 1400 0
DWIDTH 14 0
BBX 12 12 1 -1
BITMAP
4020
4020
4020
7F20
03E0
FC20
09E0
0820
1000
30C0
28C0
4F30
ENDCHAR
STARTCHAR B23C
ENCODING 13364
SWIDTH 1400 0
DWIDTH 14 0
BBX 11 13 1 -2
BITMAP
40A0
40A0
40A0
40A0
7EA0
00A0
FFA0
10A0
17A0
10A0
10A0
10A0
1020
ENDCHAR
STARTCHAR B258
ENCODING 13365
SWIDTH 1400 0
DWIDTH 14 0
BBX 10 13 2 -2
BITMAP
4040
4040
4040
4040
7F40
0040
0040
FFC0
0840
0840
0840
0840
0840
ENDCHAR
STARTCHAR B25C
ENCODING 13366
SWIDTH 1400 0
DWIDTH 14 0
BBX 12 13 1 -2
BITMAP
4020
4020
4020
4020
7FA0
0020
03E0
FE20
0420
2420
2400
2000
3FF0
ENDCHAR
STARTCHAR B260
ENCODING 13367
SWIDTH 1400 0
DWIDTH 14 0
BBX 10 13 2 -2
BITMAP
8040
8040
8040
FF40
0040
FFC0
1040
0000
7FC0
0040
7FC0
4000
7FC0
ENDCHAR
STARTCHAR B268
ENCODING 13368
SWIDTH 1400 0
DWIDTH 14 0
BBX 10 13 2 -2
BITMAP
0040
8040
8040
8040
FF40
0040
FFC0
0840
7FC0
4040
4040
4040
7FC0
ENDCHAR
STARTCHAR B269
ENCODING 13369
SWIDTH 1400 0
DWIDTH 14 0
BBX 10 13 2 -2
BITMAP
4040
4040
4040
7FC0
0040
FFC0
0840
0840
4040
7FC0
4040
4040
7FC0
ENDCHAR
STARTCHAR B274
ENCODING 13370
SWIDTH 1400 0
DWIDTH 14 0
BBX 12 12 1 -2
BITMAP
4000
4000
4000
4000
7FE0
0000
FFF0
1080
1080
1080
1080
1080
ENDCHAR
STARTCHAR B275
ENCODING 13371
SWIDTH 1400 0
DWIDTH 14 0
BBX 12 12 1 -2
BITMAP
4000
4000
4000
7FE0
0000
FFF0
1080
7FE0
0020
0020
0020
0020
ENDCHAR
STARTCHAR B27C
ENCODING 13372
SWIDTH 1400 0
DWIDTH 14 0
BBX 12 12 1 -2
BITMAP
4000
4000
4000
3FE0
0000
FFF0
1080
7FE0
0020
3FE0
4000
3FE0
ENDCHAR
STARTCHAR B284
ENCODING 13373
SWIDTH 1400 0
DWIDTH 14 0
BBX 12 12 1 -2
BITMAP
4000
4000
4000
7FE0
0000
FFF0
1080
7FE0
4020
4020
4020
7FE0
ENDCHAR
STARTCHAR B285
ENCODING 13374
SWIDTH 1400 0
DWIDTH 14 0
BBX 12 12 1 -2
BITMAP
4000
4000
4000
7FE0
0000
FFF0
1080
50A0
7FE0
4020
4020
7FE0
ENDCHAR
STARTCHAR B289
ENCODING 13375
SWIDTH 1400 0
DWIDTH 14 0
BBX 12 12 1 -2
BITMAP
4000
4000
4000
7FC0
0000
FFF0
1080
1F80
6060
4020
6060
3F80
ENDCHAR
STARTCHAR B290
ENCODING 13376
SWIDTH 1400 0
DWIDTH 14 0
BBX 12 12 1 -1
BITMAP
4000
4000
4000
4000
4000
4000
7FC0
0000
0000
0000
0000
FFF0
ENDCHAR
STARTCHAR B291
ENCODING 13377
SWIDTH 1400 0
DWIDTH 14 0
BBX 12 12 1 -2
BITMAP
4000
4000
4000
7FC0
0000
FFF0
0000
7FE0
0020
0020
0020
0020
ENDCHAR
STARTCHAR B294
ENCODING 13378
SWIDTH 1400 0
DWIDTH 14 0
BBX 12 13 1 -2
BITMAP
4000
4000
4000
4000
7FC0
0000
0000
FFF0
0000
4000
4000
4000
7FE0
ENDCHAR
STARTCHAR B298
ENCODING 13379
SWIDTH 1400 0
DWIDTH 14 0
BBX 12 12 1 -2
BITMAP
4000
4000
4000
7FC0
0000
FFF0
0000
7FE0
0020
3FE0
4000
3FE0
ENDCHAR
STARTCHAR B299
ENCODING 13380
SWIDTH 1400 0
DWIDTH 14 0
BBX 12 12 1 -2
BITMAP
4000
4000
4000
7FC0
0000
FFF0
0000
7BC0
0840
7840
8040
7840
ENDCHAR
STARTCHAR B29A
ENCODING 13381
SWIDTH 1400 0
DWIDTH 14 0
BBX 12 12 1 -2
BITMAP
2000
2000
2000
3FE0
0000
FFF0
0000
79E0
0920
7920
4120
7DE0
ENDCHAR
STARTCHAR B2A0
ENCODING 13382
SWIDTH 1400 0
DWIDTH 14 0
BBX 12 12 1 -2
BITMAP
2000
2000
2000
3FE0
0000
FFF0
0000
3FE0
2020
2020
2020
3FE0
ENDCHAR
STARTCHAR B2A1
ENCODING 13383
SWIDTH 1400 0
DWIDTH 14 0
BBX 12 12 1 -2
BITMAP
4000
4000
4000
7FC0
0000
FFF0
0000
4040
7FC0
4040
4040
7FC0
ENDCHAR
STARTCHAR B2A3
ENCODING 13384
SWIDTH 1400 0
DWIDTH 14 0
BBX 12 12 1 -2
BITMAP
2000
2000
2000
3FE0
0000
0000
FFF0
0000
0600
0900
3080
4060
ENDCHAR
STARTCHAR B2A5
ENCODING 13385
SWIDTH 1400 0
DWIDTH 14 0
BBX 12 12 1 -2
BITMAP
4000
4000
4000
7FC0
0000
FFF0
0000
1F80
6060
4020
6060
1F80
ENDCHAR
STARTCHAR B2A6
ENCODING 13386
SWIDTH 1400 0
DWIDTH 14 0
BBX 12 11 1 -1
BITMAP
4000
4000
4000
7FC0
0000
FFF0
0000
7FE0
0600
0900
70E0
ENDCHAR
STARTCHAR B2AA
ENCODING 13387
SWIDTH 1400 0
DWIDTH 14 0
BBX 12 12 1 -2
BITMAP
2000
2000
2000
3FE0
0000
FFF0
0000
7FE0
1080
1080
1080
7FE0
ENDCHAR
STARTCHAR B2AC
ENCODING 13388
SWIDTH 1400 0
DWIDTH 14 0
BBX 10 12 2 -2
BITMAP
4040
4040
4040
4040
4040
7F40
0040
0040
0040
FFC0
0040
0040
ENDCHAR
STARTCHAR B2B0
ENCODING 13389
SWIDTH 1400 0
DWIDTH 14 0
BBX 11 12 1 -2
BITMAP
4020
4020
4020
7F20
0020
0020
FFE0
0020
2020
2000
2000
3FE0
ENDCHAR
STARTCHAR B2B4
ENCODING 13390
SWIDTH 1400 0
DWIDTH 14 0
BBX 10 12 2 -2
BITMAP
8040
8040
8040
FE40
0040
FFC0
0040
7FC0
0040
7FC0
4000
7FC0
ENDCHAR
STARTCHAR B2C8
ENCODING 13391
SWIDTH 1400 0
DWIDTH 14 0
BBX 10 12 2 -2
BITMAP
8040
8040
8040
8040
8040
8040
8040
8040
FFC0
0040
0040
0040
ENDCHAR
STARTCHAR B2C9
ENCODING 13392
SWIDTH 1400 0
DWIDTH 14 0
BBX 10 13 2 -2
BITMAP
8000
8040
8040
8040
8040
FFC0
0040
0040
FFC0
0040
0040
0040
0040
ENDCHAR
STARTCHAR B2CC
ENCODING 13393
SWIDTH 1400 0
DWIDTH 14 0
BBX 10 12 2 -2
BITMAP
8040
8040
8040
8040
8040
FFC0
0040
0040
4040
4000
4000
7FC0
ENDCHAR
STARTCHAR B2D0
ENCODING 13394
SWIDTH 1400 0
DWIDTH 14 0
BBX 11 12 2 -2
BITMAP
8040
8040
8040
8040
FFC0
0040
7FC0
0020
7FC0
4000
4000
7FC0
ENDCHAR
STARTCHAR B2D2
ENCODING 13395
SWIDTH 1400 0
DWIDTH 14 0
BBX 10 12 2 -2
BITMAP
8040
8040
8040
8040
FFC0
0040
0000
FBC0
0A40
FA40
8240
FBC0
ENDCHAR
STARTCHAR B2D8
ENCODING 13396
SWIDTH 1400 0
DWIDTH 14 0
BBX 10 13 2 -2
BITMAP
8000
8040
8040
8040
8040
FFC0
0040
0000
7FC0
4040
4040
4040
7FC0
ENDCHAR
STARTCHAR B2D9
ENCODING 13397
SWIDTH 1400 0
DWIDTH 14 0
BBX 10 13 2 -2
BITMAP
8000
8040
8040
8040
8040
FFC0
0040
4040
4040
7FC0
4040
4040
7FC0
ENDCHAR
STARTCHAR B2DB
ENCODING 13398
SWIDTH 1400 0
DWIDTH 14 0
BBX 10 12 2 -2
BITMAP
8040
8040
8040
8040
8040
FFC0
0040
0040
0440
0A00
3180
4040
ENDCHAR
STARTCHAR B2DD
ENCODING 13399
SWIDTH 1400 0
DWIDTH 14 0
BBX 10 12 2 -2
BITMAP
8040
8040
8040
8040
BFC0
E040
0040
1F00
60C0
4040
60C0
1F00
ENDCHAR
STARTCHAR B2E2
ENCODING 13400
SWIDTH 1400 0
DWIDTH 14 0
BBX 10 13 2 -2
BITMAP
8000
8040
8040
8040
8040
FFC0
0040
0000
FFC0
2100
2100
2100
FFC0
ENDCHAR
STARTCHAR B2E4
ENCODING 13401
SWIDTH 1400 0
DWIDTH 14 0
BBX 12 12 1 -2
BITMAP
FC40
8040
8040
8040
8070
8040
8040
8040
FFC0
0040
0040
0040
ENDCHAR
STARTCHAR B2E5
ENCODING 13402
SWIDTH 1400 0
DWIDTH 14 0
BBX 12 12 1 -2
BITMAP
FE40
8040
8070
8040
87C0
F840
0000
7FC0
0040
0040
0040
0040
ENDCHAR
STARTCHAR B2E6
ENCODING 13403
SWIDTH 1400 0
DWIDTH 14 0
BBX 12 12 1 -2
BITMAP
FE40
8040
8070
8040
FFC0
0040
0000
FFC0
0840
0840
0840
0840
ENDCHAR
STARTCHAR B2E8
ENCODING 13404
SWIDTH 1400 0
DWIDTH 14 0
BBX 12 12 1 -2
BITMAP
FE40
8040
8070
8040
8040
FFC0
0040
0040
4040
4000
4000
7FC0
ENDCHAR
STARTCHAR B2EB
ENCODING 13405
SWIDTH 1400 0
DWIDTH 14 0
BBX 12 12 1 -2
BITMAP
FE40
8040
8070
8040
87C0
F840
0000
7FC0
4000
4000
4000
7FC0
ENDCHAR
STARTCHAR B2EC
ENCODING 13406
SWIDTH 1400 0
DWIDTH 14 0
BBX 12 12 1 -2
BITMAP
FE40
8040
8070
8040
FFC0
0040
7FC0
0040
7FC0
4000
4000
7FC0
ENDCHAR
STARTCHAR B2ED
ENCODING 13407
SWIDTH 1400 0
DWIDTH 14 0
BBX 12 12 1 -2
BITMAP
FE40
8040
8070
8040
FFC0
0040
0000
F7C0
1040
F040
8040
F840
ENDCHAR
STARTCHAR B2EE
ENCODING 13408
SWIDTH 1400 0
DWIDTH 14 0
BBX 12 12 1 -2
BITMAP
FE40
8040
8070
8040
FFC0
0040
0000
FBC0
0A40
FA40
8240
FBC0
ENDCHAR
STARTCHAR B2EF
ENCODING 13409
SWIDTH 1400 0
DWIDTH 14 0
BBX 12 12 1 -2
BITMAP
FE40
8040
8070
8040
FFC0
0040
0000
FA40
0BC0
FA40
8240
FBC0
ENDCHAR
STARTCHAR B2F3
ENCODING 13410
SWIDTH 1400 0
DWIDTH 14 0
BBX 12 12 1 -2
BITMAP
FE40
8040
8070
8040
FFC0
0040
0380
F000
17E0
F3C0
8440
FBC0
ENDCHAR
STARTCHAR B2F4
ENCODING 13411
SWIDTH 1400 0
DWIDTH 14 0
BBX 12 12 1 -2
BITMAP
FE40
8040
8070
8040
87C0
F840
0000
7FC0
4040
4040
4040
7FC0
ENDCHAR
STARTCHAR B2F5
ENCODING 13412
SWIDTH 1400 0
DWIDTH 14 0
BBX 12 12 1 -2
BITMAP
FE40
8040
8070
8040
FFC0
0040
4040
4040
7FC0
4040
4040
7FC0
ENDCHAR
STARTCHAR B2F7
ENCODING 13413
SWIDTH 1400 0
DWIDTH 14 0
BBX 12 12 1 -2
BITMAP
FE40
8040
8070
8040
8040
FFC0
0040
0040
0600
0900
1080
6060
ENDCHAR
STARTCHAR B2F8
ENCODING 13414
SWIDTH 1400 0
DWIDTH 14 0
BBX 12 11 1 -1
BITMAP
FE40
8040
8070
8040
FFC0
0040
0000
2080
2080
3140
4B60
ENDCHAR
STARTCHAR B2F9
ENCODING 13415
SWIDTH 1400 0
DWIDTH 14 0
BBX 12 12 1 -2
BITMAP
FE40
8040
8070
8040
87C0
F840
0040
1F00
60C0
4040
60C0
1F00
ENDCHAR
STARTCHAR B2FA
ENCODING 13416
SWIDTH 1400 0
DWIDTH 14 0
BBX 12 12 1 -2
BITMAP
FE40
8040
8070
8040
FFC0
0040
0000
FFC0
0400
0A00
3180
4040
ENDCHAR
STARTCHAR B2FB
ENCODING 13417
SWIDTH 1400 0
DWIDTH 14 0
BBX 12 12 1 -2
BITMAP
FE40
8040
8070
8040
FFC0
0040
1F00
0000
7FC0
0400
1B00
60E0
ENDCHAR
STARTCHAR B2FF
ENCODING 13418
SWIDTH 1400 0
DWIDTH 14 0
BBX 12 12 1 -2
BITMAP
FE40
8040
8070
8040
FFC0
0040
1F00
0000
FFE0
3F80
4040
3F80
ENDCHAR
STARTCHAR B300
ENCODING 13419
SWIDTH 1400 0
DWIDTH 14 0
BBX 10 12 2 -2
BITMAP
FA40
8240
8240
8240
83C0
8240
8240
8240
8240
FE40
0240
0240
ENDCHAR
STARTCHAR B301
ENCODING 13420
SWIDTH 1400 0
DWIDTH 14 0
BBX 10 13 2 -2
BITMAP
0200
FA40
8240
83C0
8240
8240
FE40
0240
FFC0
0040
0040
0040
0040
ENDCHAR
STARTCHAR B304
ENCODING 13421
SWIDTH 1400 0
DWIDTH 14 0
BBX 10 13 2 -2
BITMAP
0200
FA40
8240
83C0
8240
8240
8240
FE40
0240
4240
4000
4000
7FC0
ENDCHAR
STARTCHAR B308
ENCODING 13422
SWIDTH 1400 0
DWIDTH 14 0
BBX 10 12 2 -2
BITMAP
FA40
8240
83C0
8240
FE40
0240
7FC0
0040
7FC0
4000
4000
7FC0
ENDCHAR
STARTCHAR B310
ENCODING 13423
SWIDTH 1400 0
DWIDTH 14 0
BBX 10 12 2 -2
BITMAP
FA40
8240
83C0
8240
8240
FE40
0240
7FC0
4040
4040
4040
7FC0
ENDCHAR
STARTCHAR B311
ENCODING 13424
SWIDTH 1400 0
DWIDTH 14 0
BBX 10 12 2 -2
BITMAP
FA40
8240
83C0
8240
8240
FE40
4240
4040
7FC0
4040
4040
7FC0
ENDCHAR
STARTCHAR B313
ENCODING 13425
SWIDTH 1400 0
DWIDTH 14 0
BBX 10 13 2 -2
BITMAP
0200
FA40
8240
83C0
8240
8240
FE40
0240
0000
0400
0A00
3180
C040
ENDCHAR
STARTCHAR B314
ENCODING 13426
SWIDTH 1400 0
DWIDTH 14 0
BBX 10 13 2 -2
BITMAP
0240
FA40
8240
83C0
8240
8240
FE40
0240
2100
6180
6180
9240
0800
ENDCHAR
STARTCHAR B315
ENCODING 13427
SWIDTH 1400 0
DWIDTH 14 0
BBX 10 13 2 -2
BITMAP
0200
FA40
8240
83C0
8240
8240
FE40
0240
3F00
C0C0
8040
C0C0
3F00
ENDCHAR
STARTCHAR B31C
ENCODING 13428
SWIDTH 1400 0
DWIDTH 14 0
BBX 12 13 1 -3
BITMAP
FC40
8040
8040
8070
8040
8040
8070
8040
80C0
FF40
0040
0040
0040
ENDCHAR
STARTCHAR B354
ENCODING 13429
SWIDTH 1400 0
DWIDTH 14 0
BBX 10 12 2 -2
BITMAP
FC40
8040
8040
8040
87C0
8040
8040
8040
8240
FC40
0040
0040
ENDCHAR
STARTCHAR B355
ENCODING 13430
SWIDTH 1400 0
DWIDTH 14 0
BBX 10 13 2 -2
BITMAP
0040
FC40
8040
87C0
8040
8040
8E40
7040
FFC0
0040
0040
0040
0040
ENDCHAR
STARTCHAR B356
ENCODING 13431
SWIDTH 1400 0
DWIDTH 14 0
BBX 10 13 2 -2
BITMAP
0040
FC40
8040
87C0
8040
8040
FE40
0000
FFC0
0840
0840
0840
0840
ENDCHAR
STARTCHAR B358
ENCODING 13432
SWIDTH 1400 0
DWIDTH 14 0
BBX 10 13 2 -2
BITMAP
0040
FC40
8040
87C0
8040
8040
8040
7C40
0040
4040
4000
4000
7FC0
ENDCHAR
STARTCHAR B35B
ENCODING 13433
SWIDTH 1400 0
DWIDTH 14 0
BBX 10 13 2 -2
BITMAP
0040
FC40
8040
87C0
8040
8040
FE40
0000
7FC0
4000
4000
4000
7FC0
ENDCHAR
STARTCHAR B35C
ENCODING 13434
SWIDTH 1400 0
DWIDTH 14 0
BBX 10 13 2 -2
BITMAP
0040
FC40
8040
87C0
8040
FC40
0040
7FC0
0040
7FC0
4000
4000
7FC0
ENDCHAR
STARTCHAR B35E
ENCODING 13435
SWIDTH 1400 0
DWIDTH 14 0
BBX 10 13 2 -2
BITMAP
0040
FC40
8040
87C0
8040
8040
7C40
0000
F3C0
1240
F240
8240
FBC0
ENDCHAR
STARTCHAR B35F
ENCODING 13436
SWIDTH 1400 0
DWIDTH 14 0
BBX 10 13 2 -2
BITMAP
0040
FC40
8040
87C0
8040
8040
7C40
0000
F240
13C0
F240
8240
F980
ENDCHAR
STARTCHAR B364
ENCODING 13437
SWIDTH 1400 0
DWIDTH 14 0
BBX 10 13 2 -2
BITMAP
0040
FC40
8040
87C0
8040
8040
FE40
0000
7FC0
4040
4040
4040
7FC0
ENDCHAR
STARTCHAR B365
ENCODING 13438
SWIDTH 1400 0
DWIDTH 14 0
BBX 10 13 2 -2
BITMAP
0040
FC40
8040
87C0
8040
8040
FE40
4040
4040
7FC0
4040
4040
7FC0
ENDCHAR
STARTCHAR B367
ENCODING 13601
SWIDTH 1400 0
DWIDTH 14 0
BBX 10 13 2 -2
BITMAP
0040
FC40
8040
87C0
8040
8040
8240
7C40
0040
0C00
0A00
3180
C040
ENDCHAR
STARTCHAR B369
ENCODING 13602
SWIDTH 1400 0
DWIDTH 14 0
BBX 10 13 2 -2
BITMAP
0040
FE40
8040
87C0
8040
8040
FE40
0040
3F00
C0C0
8040
C0C0
3F00
ENDCHAR
STARTCHAR B36B
ENCODING 13603
SWIDTH 1400 0
DWIDTH 14 0
BBX 10 13 2 -2
BITMAP
0040
FC40
8040
87C0
8040
8040
FE40
0000
1E00
FFC0
0C00
3300
40C0
ENDCHAR
STARTCHAR B36E
ENCODING 13604
SWIDTH 1400 0
DWIDTH 14 0
BBX 10 13 2 -2
BITMAP
0040
FC40
8040
87C0
8040
8040
FE40
0000
7FC0
1100
1100
1100
7FC0
ENDCHAR
STARTCHAR B370
ENCODING 13605
SWIDTH 1400 0
DWIDTH 14 0
BBX 10 12 2 -2
BITMAP
FA40
8240
8240
8240
9E40
8240
8240
8240
8A40
7240
0240
0240
ENDCHAR
STARTCHAR B371
ENCODING 13606
SWIDTH 1400 0
DWIDTH 14 0
BBX 10 13 2 -2
BITMAP
0200
FA40
8240
9E40
8240
8240
8240
7840
0000
7FC0
0040
0040
0040
ENDCHAR
STARTCHAR B374
ENCODING 13607
SWIDTH 1400 0
DWIDTH 14 0
BBX 10 13 2 -2
BITMAP
0200
FA40
8240
9E40
8240
8240
8240
FA40
0240
4040
4000
4000
7FC0
ENDCHAR
STARTCHAR B378
ENCODING 13608
SWIDTH 1400 0
DWIDTH 14 0
BBX 10 13 2 -2
BITMAP
0240
FA40
8240
8E40
8240
8240
FA40
0000
7FC0
0040
7FC0
4000
7FC0
ENDCHAR
STARTCHAR B380
ENCODING 13609
SWIDTH 1400 0
DWIDTH 14 0
BBX 10 13 2 -2
BITMAP
0240
FA40
8240
9E40
8240
8240
F240
0040
7FC0
4040
4040
4040
7FC0
ENDCHAR
STARTCHAR B381
ENCODING 13610
SWIDTH 1400 0
DWIDTH 14 0
BBX 10 13 2 -2
BITMAP
0240
FA40
8240
9E40
8240
8240
FA40
0040
4040
7FC0
4040
4040
7FC0
ENDCHAR
STARTCHAR B383
ENCODING 13611
SWIDTH 1400 0
DWIDTH 14 0
BBX 10 13 2 -2
BITMAP
0240
FA40
8240
9E40
8240
8240
8240
FA40
0000
0400
0A00
3180
4040
ENDCHAR
STARTCHAR B384
ENCODING 13612
SWIDTH 1400 0
DWIDTH 14 0
BBX 10 12 2 -1
BITMAP
0240
FA40
8240
8240
9E40
8240
FA40
0240
2100
2100
7380
8C40
ENDCHAR
STARTCHAR B385
ENCODING 13613
SWIDTH 1400 0
DWIDTH 14 0
BBX 10 13 2 -2
BITMAP
0240
FA40
8240
9E40
8240
8240
FA40
0040
1F00
60C0
4040
60C0
1F00
ENDCHAR
STARTCHAR B38C
ENCODING 13614
SWIDTH 1400 0
DWIDTH 14 0
BBX 10 12 2 -2
BITMAP
FC40
8040
87C0
8040
8040
87C0
8040
8040
FC40
0040
0040
0040
ENDCHAR
STARTCHAR B390
ENCODING 13615
SWIDTH 1400 0
DWIDTH 14 0
BBX 10 13 2 -2
BITMAP
0040
FC40
83C0
8040
8040
83C0
FC40
0040
0040
4040
4000
4000
7FC0
ENDCHAR
STARTCHAR B394
ENCODING 13616
SWIDTH 1400 0
DWIDTH 14 0
BBX 10 12 2 -2
BITMAP
FC40
81C0
8040
81C0
FC40
0040
0000
7FC0
0040
7FC0
4000
7FC0
ENDCHAR
STARTCHAR B3A0
ENCODING 13617
SWIDTH 1400 0
DWIDTH 14 0
BBX 10 12 2 -2
BITMAP
FC40
83C0
8040
8040
83C0
7C40
0040
2100
6180
6180
9240
0800
ENDCHAR
STARTCHAR B3A1
ENCODING 13618
SWIDTH 1400 0
DWIDTH 14 0
BBX 10 12 2 -2
BITMAP
FC40
83C0
8040
83C0
8040
FC40
0040
1F00
60C0
4040
60C0
1F00
ENDCHAR
STARTCHAR B3A8
ENCODING 13619
SWIDTH 1400 0
DWIDTH 14 0
BBX 10 13 2 -2
BITMAP
0200
FA40
8240
9E40
8240
8240
9E40
8240
8240
8E40
7240
0240
0240
ENDCHAR
STARTCHAR B3AC
ENCODING 13620
SWIDTH 1400 0
DWIDTH 14 0
BBX 10 13 2 -2
BITMAP
0240
FA40
8240
8E40
8240
8E40
8240
FA40
0240
4240
4000
4000
7FC0
ENDCHAR
STARTCHAR B3C4
ENCODING 13621
SWIDTH 1400 0
DWIDTH 14 0
BBX 11 11 2 -1
BITMAP
FF80
8000
8000
8000
8000
FFC0
0000
0400
0400
0400
FFE0
ENDCHAR
STARTCHAR B3C5
ENCODING 13622
SWIDTH 1400 0
DWIDTH 14 0
BBX 11 12 2 -2
BITMAP
FF80
8000
8000
FFC0
0400
0400
FFE0
0000
FFC0
0040
0040
0040
ENDCHAR
STARTCHAR B3C8
ENCODING 13623
SWIDTH 1400 0
DWIDTH 14 0
BBX 11 12 2 -2
BITMAP
FF80
8000
8000
8000
FFC0
0400
FFE0
0000
8000
8000
8000
FF80
ENDCHAR
STARTCHAR B3CB
ENCODING 13624
SWIDTH 1400 0
DWIDTH 14 0
BBX 11 12 2 -2
BITMAP
FF80
8000
8000
FFC0
0400
FFE0
0000
FF80
8000
8000
8000
FF80
ENDCHAR
STARTCHAR B3CC
ENCODING 13625
SWIDTH 1400 0
DWIDTH 14 0
BBX 11 12 2 -2
BITMAP
FF80
8000
8000
FFC0
0400
FFE0
0000
FF80
0080
FF80
8000
FFC0
ENDCHAR
STARTCHAR B3CE
ENCODING 13626
SWIDTH 1400 0
DWIDTH 14 0
BBX 12 12 1 -2
BITMAP
7FE0
4000
4000
7FE0
0200
FFF0
0000
79E0
0920
7920
4120
7DE0
ENDCHAR
STARTCHAR B3D0
ENCODING 13627
SWIDTH 1400 0
DWIDTH 14 0
BBX 11 12 2 -2
BITMAP
7FC0
4000
4000
7FC0
0400
FFE0
0000
F100
1100
F180
8640
F000
ENDCHAR
STARTCHAR B3D4
ENCODING 13628
SWIDTH 1400 0
DWIDTH 14 0
BBX 11 12 2 -2
BITMAP
FF80
8000
8000
FFC0
0400
FFE0
0000
7FC0
4040
4040
4040
7FC0
ENDCHAR
STARTCHAR B3D5
ENCODING 13629
SWIDTH 1400 0
DWIDTH 14 0
BBX 11 12 2 -2
BITMAP
FF80
8000
8000
FFC0
0400
FFE0
8040
8040
FFC0
8040
8040
FFC0
ENDCHAR
STARTCHAR B3D7
ENCODING 13630
SWIDTH 1400 0
DWIDTH 14 0
BBX 11 12 2 -2
BITMAP
FF80
8000
8000
FFC0
0400
0400
FFE0
0000
0C00
1200
2100
C0C0
ENDCHAR
STARTCHAR B3D9
ENCODING 13631
SWIDTH 1400 0
DWIDTH 14 0
BBX 12 12 1 -2
BITMAP
7FE0
4000
4000
7FE0
0200
FFF0
0000
1F80
6060
4020
6060
1F80
ENDCHAR
STARTCHAR B3DB
ENCODING 13632
SWIDTH 1400 0
DWIDTH 14 0
BBX 11 12 2 -2
BITMAP
FF80
8000
FFC0
0400
FFE0
0000
1E00
0000
FFC0
0C00
1600
E1C0
ENDCHAR
STARTCHAR B3DD
ENCODING 13633
SWIDTH 1400 0
DWIDTH 14 0
BBX 11 12 2 -2
BITMAP
FF80
8000
8000
FFC0
0400
FFE0
0000
FF80
8000
FF80
8000
FF80
ENDCHAR
STARTCHAR B3E0
ENCODING 13634
SWIDTH 1400 0
DWIDTH 14 0
BBX 12 13 1 -2
BITMAP
0040
7F40
4040
4040
4040
4070
7F40
0840
0840
0840
FFC0
0040
0040
ENDCHAR
STARTCHAR B3E4
ENCODING 13635
SWIDTH 1400 0
DWIDTH 14 0
BBX 12 12 1 -2
BITMAP
7F40
4040
4040
4070
7F40
0840
FFC0
0040
2040
2000
2000
3FE0
ENDCHAR
STARTCHAR B3E8
ENCODING 13636
SWIDTH 1400 0
DWIDTH 14 0
BBX 12 12 1 -2
BITMAP
7F40
4040
4040
7F70
0840
FFC0
0000
7FC0
0040
7FC0
4000
7FC0
ENDCHAR
STARTCHAR B3FC
ENCODING 13637
SWIDTH 1400 0
DWIDTH 14 0
BBX 11 12 2 -2
BITMAP
F920
8120
8120
8120
81E0
FD20
1120
1120
1120
FF20
0120
0120
ENDCHAR
STARTCHAR B410
ENCODING 13638
SWIDTH 1400 0
DWIDTH 14 0
BBX 12 12 1 -2
BITMAP
7D20
4120
4120
7DE0
1120
1120
FF20
01A0
1080
30C0
4920
8610
ENDCHAR
STARTCHAR B418
ENCODING 13639
SWIDTH 1400 0
DWIDTH 14 0
BBX 10 13 2 -2
BITMAP
0040
7F40
4040
4040
4040
4040
7F40
0840
0840
0840
FFC0
0040
0040
ENDCHAR
STARTCHAR B41C
ENCODING 13640
SWIDTH 1400 0
DWIDTH 14 0
BBX 10 13 2 -2
BITMAP
0040
FE40
8040
8040
8040
FF40
0840
FFC0
0040
4040
4000
4000
7FC0
ENDCHAR
STARTCHAR B420
ENCODING 13641
SWIDTH 1400 0
DWIDTH 14 0
BBX 11 13 1 -2
BITMAP
0020
7F20
4020
4020
7F20
0820
FFE0
0020
3FE0
0020
3FE0
2000
3FE0
ENDCHAR
STARTCHAR B428
ENCODING 13642
SWIDTH 1400 0
DWIDTH 14 0
BBX 10 13 2 -2
BITMAP
0040
7F40
4040
4040
7F40
0840
FFC0
0040
7FC0
4040
4040
4040
7FC0
ENDCHAR
STARTCHAR B429
ENCODING 13643
SWIDTH 1400 0
DWIDTH 14 0
BBX 10 13 2 -2
BITMAP
0040
7E40
4040
4040
7F40
0840
FFC0
0040
4040
7FC0
4040
4040
7FC0
ENDCHAR
STARTCHAR B42B
ENCODING 13644
SWIDTH 1400 0
DWIDTH 14 0
BBX 10 13 2 -2
BITMAP
0040
7F40
4040
4040
7F40
0840
0840
FFC0
0040
0600
0A00
3180
4040
ENDCHAR
STARTCHAR B434
ENCODING 13645
SWIDTH 1400 0
DWIDTH 14 0
BBX 11 11 1 -1
BITMAP
3FE0
2000
2000
2000
2000
3FE0
0000
1080
1080
1080
FFE0
ENDCHAR
STARTCHAR B450
ENCODING 13646
SWIDTH 1400 0
DWIDTH 14 0
BBX 11 12 2 -2
BITMAP
FF80
8000
8000
8000
FF80
0000
0000
FFE0
0400
0400
0400
0400
ENDCHAR
STARTCHAR B451
ENCODING 13647
SWIDTH 1400 0
DWIDTH 14 0
BBX 11 13 2 -3
BITMAP
FFC0
8000
8000
FFC0
0000
FFE0
0400
0400
7FC0
0040
0040
0040
0040
ENDCHAR
STARTCHAR B454
ENCODING 13648
SWIDTH 1400 0
DWIDTH 14 0
BBX 12 12 1 -2
BITMAP
7FE0
4000
4000
4000
7FE0
0000
FFF0
0200
4200
4200
4000
7FE0
ENDCHAR
STARTCHAR B458
ENCODING 13649
SWIDTH 1400 0
DWIDTH 14 0
BBX 11 12 2 -2
BITMAP
FFC0
8000
8000
FFC0
0000
FFE0
0400
FFC0
0040
FFC0
8000
FFE0
ENDCHAR
STARTCHAR B460
ENCODING 13650
SWIDTH 1400 0
DWIDTH 14 0
BBX 11 12 2 -2
BITMAP
FFC0
8000
8000
FFC0
0000
FFE0
0400
FFC0
8040
8040
8040
FFC0
ENDCHAR
STARTCHAR B461
ENCODING 13651
SWIDTH 1400 0
DWIDTH 14 0
BBX 11 12 2 -2
BITMAP
FFC0
8000
8000
FFC0
0000
FFE0
0400
8440
FFC0
8040
8040
FFC0
ENDCHAR
STARTCHAR B463
ENCODING 13652
SWIDTH 1400 0
DWIDTH 14 0
BBX 11 12 1 -2
BITMAP
7FE0
4000
4000
7FE0
0000
FFE0
0400
0400
0400
0A00
3180
C040
ENDCHAR
STARTCHAR B465
ENCODING 13653
SWIDTH 1400 0
DWIDTH 14 0
BBX 11 12 2 -2
BITMAP
FFC0
8000
8000
FFC0
0000
FFE0
0000
3F80
40C0
8040
40C0
3F80
ENDCHAR
STARTCHAR B46C
ENCODING 13654
SWIDTH 1400 0
DWIDTH 14 0
BBX 11 12 1 -2
BITMAP
3FA0
2020
2020
2020
3FA0
0020
FFE0
0820
09E0
0820
0820
0820
ENDCHAR
STARTCHAR B480
ENCODING 13655
SWIDTH 1400 0
DWIDTH 14 0
BBX 12 13 1 -2
BITMAP
0020
7F20
4020
4020
7E20
03E0
FC20
09E0
0820
1080
30C0
2920
C610
ENDCHAR
STARTCHAR B488
ENCODING 13656
SWIDTH 1400 0
DWIDTH 14 0
BBX 10 12 2 -2
BITMAP
F940
8140
8140
8140
F940
0140
FF40
1140
1740
1140
1140
1140
ENDCHAR
ENDFONT
